<?xml version="1.0" encoding="UTF-8"?>
<svg width="601px" height="558px" viewBox="0 0 601 558" version="1.1" xmlns="http://www.w3.org/2000/svg" xmlns:xlink="http://www.w3.org/1999/xlink"  preserveAspectRatio="none">
    <!-- Generator: Sketch 52.3 (67297) - http://www.bohemiancoding.com/sketch -->
    <title>分组</title>
    <desc>Created with Sketch.</desc>
    <defs>
        <linearGradient x1="99.9998543%" y1="50.0001815%" x2="-4.08857224e-05%" y2="50.0001815%" id="linearGradient-1">
            <stop stop-color="#0049E8" offset="0%"></stop>
            <stop stop-color="#CF14FF" offset="100%"></stop>
        </linearGradient>
    </defs>
    <g id="7.0.0登录/注册" stroke="none" stroke-width="1" fill="none" fill-rule="evenodd">
        <g id="7.0.0注册_默认" transform="translate(-661.000000, -158.000000)">
            <g id="分组-10" transform="translate(661.000000, 158.000000)">
                <g id="分组-9">
                    <g id="分组">
                        <path d="M599.798572,480.542681 C599.802276,480.565917 599.8042,480.589738 599.8042,480.614 L599.8042,543.544459 L584.640362,557.463006 L470.9952,557.463006 C470.5452,557.463006 470.309,557.306734 470.309,557.058734 C470.309,556.809734 470.7472,556.06692 470.9952,556.06692 L584.753201,556.06692 L598.9042,543.551125 L598.9042,480.830246 C598.82038,480.839336 598.735233,480.844 598.649,480.844 C597.357,480.844 596.309,479.797 596.309,478.504 C596.309,477.212 597.357,476.164 598.649,476.164 C599.941,476.164 600.989,477.212 600.989,478.504 C600.989,479.378915 600.50916,480.141196 599.798572,480.542681 Z M2.5048,91.1880188 L2.5048,37.0363471 L19.6686379,18.1178 L131.3138,18.1178 C131.7638,18.1178 132,18.274072 132,18.522072 C132,18.771072 131.5618,19.5138859 131.3138,19.5138859 L19.555799,19.5138859 L3.4048,37.0296815 L3.4048,91.22336 C4.54706005,91.4745581 5.402,92.493411 5.402,93.711 C5.402,95.117 4.262,96.258 2.856,96.258 C1.449,96.258 0.309,95.117 0.309,93.711 C0.309,92.4240738 1.2640839,91.3591626 2.5048,91.1880188 Z M543.140881,0.164 L585.753938,0.164 L595.106322,21.6823277 L595.106322,537.525 L577.858322,551.898 L70.309,550.563 L60.0499816,556.684 L18.8939,556.684 L5.6729,531 L7.6729,40.2711434 L22.4887753,23.834 L527.804881,23.834 L543.140881,0.164 Z M19.7323803,554.186 L58.7899816,554.08 L69,547.996 L576.446322,547.996 L591.205322,535.697 L592.968847,21.424858 L584.826294,2.828 L545.056881,2.828 L529.720881,26.164 L22.8137908,26.164 L9.87596394,40.3890412 L7.87596394,530.219 L19.7323803,554.186 Z" id="合并形状-copy" fill="url(#linearGradient-1)"></path>
                        <polygon id="Rectangle" fill="#171928" points="26.1152004 34 571.797076 34 582 43.4774541 582 529.571791 571.558282 540 26.4030074 540 16 529.088163 16 43.7601547"></polygon>
                    </g>
                </g>
            </g>
        </g>
    </g>
</svg>