<?xml version="1.0" encoding="UTF-8"?>
<svg width="40px" height="40px" viewBox="0 0 40 40" version="1.1" xmlns="http://www.w3.org/2000/svg" xmlns:xlink="http://www.w3.org/1999/xlink">
    <!-- Generator: Sketch 52.3 (67297) - http://www.bohemiancoding.com/sketch -->
    <title>icon_zhandui_s</title>
    <desc>Created with Sketch.</desc>
    <g id="1.0.0首页" stroke="none" stroke-width="1" fill="none" fill-rule="evenodd">
        <g id="1.0.1首页" transform="translate(0.000000, -161.000000)" fill-rule="nonzero">
            <g id="分组-2">
                <g id="分组-copy-14" transform="translate(0.000000, 161.000000)">
                    <g id="Icon_Customization">
                        <path d="M11,11 L23.08,11 C24.1403867,11 25,11.8596133 25,12.92 L25,22.08 C25,23.1403867 24.1403867,24 23.08,24 L12.92,24 C11.8596133,24 11,23.1403867 11,22.08 L11,11 Z" id="Rectangle-Copy-40" fill="#9B3FF4" opacity="0.5"></path>
                        <path d="M16,17 L28.08,17 C29.1403867,17 30,17.8596133 30,18.92 L30,28.08 C30,29.1403867 29.1403867,30 28.08,30 L17.92,30 C16.8596133,30 16,29.1403867 16,28.08 L16,17 Z" id="Rectangle" fill="#CA59FF"></path>
                    </g>
                </g>
            </g>
        </g>
    </g>
</svg>