<?xml version="1.0" encoding="UTF-8"?>
<svg width="40px" height="40px" viewBox="0 0 40 40" version="1.1" xmlns="http://www.w3.org/2000/svg" xmlns:xlink="http://www.w3.org/1999/xlink">
    <!-- Generator: Sketch 52.3 (67297) - http://www.bohemiancoding.com/sketch -->
    <title>暂无数据</title>
    <desc>Created with Sketch.</desc>
    <g id="1.0.0首页" stroke="none" stroke-width="1" fill="none" fill-rule="evenodd">
        <g id="1.1.2首页_赛程结果_暂无数据" transform="translate(-329.000000, -224.000000)" fill="#3D485B">
            <g id="分组-5" transform="translate(329.000000, 224.000000)">
                <g id="订单">
                    <path d="M29.7655228,4.75794031 L18.6037637,15.9196994 L14.9097012,15.9196994 C14.4393488,15.9196994 14.0473885,16.316915 14.0473885,16.7935738 L14.0473885,17.588005 C14.0473885,18.0646638 14.4393488,18.4618794 14.9097012,18.4618794 L16.0615838,18.4618794 L7.22727944,27.2961837 L7.22727944,7.14123407 C7.22727944,5.83042254 8.20718023,4.75794031 9.50064917,4.75794031 L14.4785448,4.75794031 C14.713721,3.72517971 15.6544257,2.93074843 16.7519146,2.93074843 L19.2604604,2.93074843 C19.5740286,2.13631723 20.3187531,1.61993689 21.1810658,1.61993689 C22.0433784,1.61993689 22.788103,2.13631715 23.1016713,2.93074843 L25.5710211,2.93074843 C26.6685099,2.93074843 27.6092146,3.72517972 27.8443908,4.75794031 L29.7655228,4.75794031 Z M10.6525144,35.1846572 L19.311815,26.5253566 L26.7308225,26.5253566 C27.2011749,26.5253566 27.5931352,26.128141 27.5931352,25.6514822 L27.5931352,24.857051 C27.5931352,24.3803922 27.2011749,23.9831766 26.7308225,23.9831766 L21.8539951,23.9831766 L35.1740482,10.6631234 L35.1740482,32.8013634 C35.1740482,34.112175 34.0765594,35.1846572 32.7830905,35.1846572 L10.6525144,35.1846572 Z M23.1016713,7.81650062 C23.1016713,6.78374003 22.2785547,5.90986564 21.2202619,5.90986564 C20.1619691,5.90986564 19.3388523,6.78373994 19.3388524,7.81650062 C19.3388525,8.8492613 20.1619691,9.72313568 21.2202619,9.72313568 C22.2393586,9.7231356 23.1016713,8.88898285 23.1016713,7.81650062 Z" id="合并形状" fill-rule="nonzero"></path>
                    <rect id="矩形-copy-3" transform="translate(20.081833, 20.081833) rotate(-315.000000) translate(-20.081833, -20.081833) " x="18.8818326" y="-6.31816741" width="2.4" height="52.8"></rect>
                </g>
            </g>
        </g>
    </g>
</svg>