<?xml version="1.0" encoding="UTF-8"?>
<svg width="30px" height="30px" viewBox="0 0 30 30" version="1.1" xmlns="http://www.w3.org/2000/svg" xmlns:xlink="http://www.w3.org/1999/xlink">
    <!-- Generator: Sketch 52.3 (67297) - http://www.bohemiancoding.com/sketch -->
    <title>icon_phonenum copy 4</title>
    <desc>Created with Sketch.</desc>
    <g id="0.0.0颜色标准、控件" stroke="none" stroke-width="1" fill="none" fill-rule="evenodd">
        <g id="登录注册_控件" transform="translate(-588.000000, -920.000000)" fill="#3D485B">
            <g id="分组-11" transform="translate(148.000000, 782.000000)">
                <g id="分组-9" transform="translate(92.000000, 131.000000)">
                    <g id="分组" transform="translate(348.000000, 7.000000)">
                        <path d="M14.9,21.6 C7.475,21.6 5,15.3 5,15.3 C5,15.3 7.475,9 14.9,9 C22.325,9 24.8,15.3 24.8,15.3 C24.8,15.3 22.20125,21.6 14.9,21.6 Z M14.9,11.646 C12.92,11.646 11.1875,13.284 11.1875,15.426 C11.1875,17.442 12.79625,19.206 14.9,19.206 C16.88,19.206 18.6125,17.568 18.6125,15.426 C18.48875,13.284 16.88,11.646 14.9,11.646 Z" id="形状"></path>
                    </g>
                </g>
            </g>
        </g>
    </g>
</svg>