<?xml version="1.0" encoding="UTF-8"?>
<svg width="30px" height="30px" viewBox="0 0 30 30" version="1.1" xmlns="http://www.w3.org/2000/svg" xmlns:xlink="http://www.w3.org/1999/xlink">
    <!-- Generator: Sketch 52.3 (67297) - http://www.bohemiancoding.com/sketch -->
    <title>icon_password_s</title>
    <desc>Created with Sketch.</desc>
    <defs>
        <path d="M22.547172,13.6432555 L20.8813732,13.6432555 L20.8813732,9.81425746 C20.8813732,6.60764259 18.2447634,4 15.0008766,4 C11.7567281,4 9.1171091,6.60764259 9.1171091,9.81448925 L9.1171091,13.6432039 L7.45308963,13.6432039 C6.6506352,13.6432039 6,14.2858301 6,15.0790685 L6,25.5623841 C6,26.3568588 6.6506352,27 7.45308963,27 L22.5486635,27 C23.351118,27 24,26.3569103 24,25.5623841 L24,15.0790685 C24,14.2857786 23.3496265,13.6432039 22.5469104,13.6432039 L22.547172,13.6432555 Z M15.8166237,20.5939815 L15.8166237,22.883041 C15.816205,22.9867286 15.7312156,23.070714 15.6260777,23.0716927 L14.3770623,23.0716927 C14.2713749,23.0711261 14.1858621,22.9870377 14.1851556,22.8831183 L14.1851556,20.5940073 C13.5984195,20.297367 13.1920506,19.7028502 13.1920506,19.0060109 C13.1920506,18.0199228 14.0017793,17.2180051 14.9993851,17.2180051 C15.9985085,17.2180051 16.8084989,18.019897 16.8084989,19.0057533 C16.8099904,19.7028502 16.4036215,20.2973927 15.8166499,20.5937497 L15.8166237,20.5939815 Z M18.6245993,13.6432555 L11.376709,13.6432555 L11.376709,9.90921429 C11.376709,7.93407633 13.0041736,6.32557936 15.0021588,6.32557936 C17.0004056,6.32557936 18.624861,7.93405058 18.624861,9.90921429 L18.624861,13.6432555 L18.6245993,13.6432555 Z" id="path-1"></path>
        <filter x="-38.9%" y="-21.7%" width="177.8%" height="160.9%" filterUnits="objectBoundingBox" id="filter-2">
            <feOffset dx="0" dy="2" in="SourceAlpha" result="shadowOffsetOuter1"></feOffset>
            <feGaussianBlur stdDeviation="2" in="shadowOffsetOuter1" result="shadowBlurOuter1"></feGaussianBlur>
            <feColorMatrix values="0 0 0 0 0   0 0 0 0 0   0 0 0 0 0  0 0 0 0.5 0" type="matrix" in="shadowBlurOuter1"></feColorMatrix>
        </filter>
    </defs>
    <g id="0.0.0颜色标准、控件" stroke="none" stroke-width="1" fill="none" fill-rule="evenodd">
        <g id="登录注册_控件" transform="translate(-249.000000, -865.000000)" fill-rule="nonzero">
            <g id="分组-11" transform="translate(148.000000, 782.000000)">
                <g id="Group-Copy-2" transform="translate(92.000000, 76.000000)">
                    <g id="分组" transform="translate(9.000000, 7.000000)">
                        <g id="形状">
                            <use fill="black" fill-opacity="1" filter="url(#filter-2)" xlink:href="#path-1"></use>
                            <use fill="#EEEEEE" xlink:href="#path-1"></use>
                        </g>
                    </g>
                </g>
            </g>
        </g>
    </g>
</svg>