<?xml version="1.0" encoding="UTF-8"?>
<svg width="26px" height="24px" viewBox="0 0 26 24" version="1.1" xmlns="http://www.w3.org/2000/svg" xmlns:xlink="http://www.w3.org/1999/xlink">
    <!-- Generator: Sketch 52.3 (67297) - http://www.bohemiancoding.com/sketch -->
    <title>icon_win</title>
    <desc>Created with Sketch.</desc>
    <defs>
        <linearGradient x1="50%" y1="1.89893425%" x2="50%" y2="100%" id="linearGradient-1">
            <stop stop-color="#4BBB37" offset="0%"></stop>
            <stop stop-color="#70B764" offset="100%"></stop>
        </linearGradient>
    </defs>
    <g id="1.0.0首页" stroke="none" stroke-width="1" fill="none" fill-rule="evenodd">
        <g id="1.0.4对战详情" transform="translate(-1593.000000, -533.000000)">
            <g id="实时预测_lb-copy-2" transform="translate(1468.000000, 524.000000)">
                <g id="预测胜利" transform="translate(125.071066, 9.000000)">
                    <g id="分组-2" transform="translate(0.411168, 0.000000)">
                        <path d="M4.22064075,2 L21.4495314,2 C22.0166257,2 22.4763464,2.45972077 22.4763464,3.02681508 C22.4763464,3.43953943 22.229234,3.81215223 21.8490278,3.97272828 L21.8490194,21.3021871 C21.849019,21.7581081 21.4794217,22.1277049 21.0235007,22.1277045 C20.9151195,22.1277044 20.8077991,22.1063625 20.7076638,22.0648966 C20.7076638,22.0648966 20.7076638,22.0648966 20.7076638,22.0648966 C18.1275678,20.9964816 15.3745332,19.801889 12.4485602,18.4811187 C8.32880073,20.6461059 6.02623001,21.8406985 5.54084799,22.0648966 C5.54084799,22.0648966 5.54084799,22.0648966 5.54084799,22.0648966 L5.54084799,22.0648966 C4.97665104,22.3254994 4.30801878,22.0793876 4.04741604,21.5151907 C3.97909021,21.3672673 3.94370401,21.2062701 3.94370378,21.0433292 L3.9437125,4.08436619 L3.9437125,4.08436619 C3.37829066,3.93142294 3.04391071,3.34907298 3.19685396,2.78365114 C3.32194903,2.32118233 3.74155185,2 4.22064075,2 Z" id="矩形" fill="url(#linearGradient-1)" opacity="0.801106771"></path>
                        <path d="M11.676819,9.65394949 L12.1648054,6.19344438 L13.9144154,6.19344438 L13.7656391,7.24664159 L14.1048492,7.25201505 L14.1048492,6 L15.8842144,6 L15.8842144,7.25201505 L17.7349924,7.25201505 L17.151789,8.50940355 L15.8842144,8.50940355 L15.8842144,10.7823751 L17.7349924,10.7823751 L17.151789,12.0773778 L15.8842144,12.0773778 L15.8842144,14.737238 L17.7766497,14.737238 L17.1934464,16 L11.8851059,16 L11.8851059,14.737238 L14.0631918,14.737238 L14.0631918,12.0773778 L11.9684206,12.0773778 L11.9684206,10.7823751 L14.0631918,10.7823751 L14.0631918,8.50940355 L13.5633032,8.514777 L13.3788205,9.65394949 L11.676819,9.65394949 Z M11.676819,6 L11.671025,14.5607676 L10.2457226,15.8027719 L9.45195665,15.8027719 L9.45195665,14.6567164 L9.93864528,14.6567164 L9.93864528,12.9136461 L9.06376454,12.9136461 L9.06376454,15.3869936 L7.31979695,16 L7.31979695,6 L11.676819,6 Z M9.06260575,9.33333333 L9.93401015,9.33333333 L9.93401015,7.66666667 L9.06260575,7.66666667 L9.06260575,9.33333333 Z M9.06260575,11.8333333 L9.93401015,11.8333333 L9.93401015,10.1666667 L9.06260575,10.1666667 L9.06260575,11.8333333 Z" id="胜" fill="#FFFFFF"></path>
                    </g>
                </g>
            </g>
        </g>
    </g>
</svg>