<?xml version="1.0" encoding="UTF-8"?>
<svg width="30px" height="30px" viewBox="0 0 30 30" version="1.1" xmlns="http://www.w3.org/2000/svg" xmlns:xlink="http://www.w3.org/1999/xlink">
    <!-- Generator: Sketch 56.2 (81672) - https://sketch.com -->
    <title>icon_help</title>
    <desc>Created with Sketch.</desc>
    <g id="2.0.0联赛_Dota" stroke="none" stroke-width="1" fill="none" fill-rule="evenodd">
        <g id="2.0.0联赛页_最近联赛_dota" transform="translate(-1841.000000, -1180.000000)" fill="#3D485B">
            <g id="分组-2" transform="translate(60.000000, 1175.000000)">
                <g id="分组-8">
                    <g id="yiwen-copy" transform="translate(1781.000000, 5.000000)">
                        <g id="yiwen">
                            <path d="M17.7216005,18.8789643 L12.1857802,18.8789643 L12.1857802,17.5246176 L13.5445841,17.5246176 L13.5445841,13.3132172 L12.1787761,13.3132172 L12.1787761,11.9410418 L16.342421,11.9410418 L16.342421,17.501695 L17.7216005,17.501695 L17.7216005,18.8789643 Z M14.9492332,7.73664553 C15.7063174,7.74364967 16.3475149,8.38230021 16.3405108,9.12155571 C16.3335066,9.87863995 15.6948561,10.5204742 14.9556006,10.51347 C14.1985164,10.5064659 13.5566821,9.86781536 13.564323,9.12855986 C13.5713272,8.37147562 14.209341,7.72964139 14.9492332,7.73664553 L14.9492332,7.73664553 Z M22.6614319,7.87227122 C22.6614319,7.75129056 22.6499706,7.62967316 22.6315051,7.50932924 C22.5162551,6.74969805 22.0762675,6.27214281 21.3421059,6.07347983 C21.143443,6.01999365 20.930135,6.0034384 20.7231944,6.0034384 C16.7970536,5.99961796 12.8702761,5.99898122 8.9441353,6.00152818 C7.79163534,6.00216492 7.01035497,6.69430164 7.00717127,7.76275188 C6.99698343,11.8015957 6.99825691,15.8410762 7.00717127,19.8805568 C7.00908149,20.9337253 7.76298202,21.6538786 8.81424028,21.6557888 C9.8680455,21.6570623 10.921214,21.6500581 11.9743825,21.6634297 C12.1112816,21.6647031 12.2800178,21.7334711 12.3793493,21.8277087 C12.8893783,22.314815 13.382852,22.8184766 13.8795095,23.3189545 C14.1915122,23.6328675 14.4977843,23.9518744 14.814881,24.2772487 C14.9040246,24.1931989 14.9676987,24.1358923 15.028189,24.0760387 C15.7789058,23.3253219 16.5258022,22.5695111 17.2860701,21.8283454 C17.3841282,21.7328344 17.5535011,21.6647031 17.691037,21.6634297 C18.7442055,21.6500581 19.7973739,21.6583357 20.8511792,21.6538786 C21.0141847,21.6532418 21.1835576,21.6456009 21.3401957,21.6029393 C22.1908808,21.3730761 22.6614319,20.7337888 22.6620686,19.8079684 C22.6639788,15.8296149 22.663222,11.8512614 22.6614319,7.87227122 L22.6614319,7.87227122 Z" id="Fill-1"></path>
                        </g>
                    </g>
                </g>
            </g>
        </g>
    </g>
</svg>