<?xml version="1.0" encoding="UTF-8"?>
<svg width="30px" height="30px" viewBox="0 0 30 30" version="1.1" xmlns="http://www.w3.org/2000/svg" xmlns:xlink="http://www.w3.org/1999/xlink">
    <!-- Generator: Sketch 52.3 (67297) - http://www.bohemiancoding.com/sketch -->
    <title>icon_pin_s</title>
    <desc>Created with Sketch.</desc>
    <defs>
        <path d="M23.5745941,5 L5.82540593,5 C3.9246574,5 3,5.89991788 3,7.70000456 L3,18.4999726 C3,20.3001597 3.86750008,21.1509241 5.72086581,21.1509241 L8.44183615,21.1509241 L8.10709868,23.9000068 C8.10703857,24.2321091 8.29847852,24.5369534 8.60442218,24.6919326 C8.74091807,24.7628283 8.89365734,24.7999686 9.04884838,24.8 C9.23147998,24.8 9.41426839,24.7494665 9.57055587,24.6487508 L14.9720657,21.1509241 L23.6791081,21.1509241 C25.5629472,21.1509241 26.4,20.3001848 26.4,18.4999726 L26.4,7.70000456 C26.4,5.89991788 25.4582764,5 23.5745941,5 Z M9.26388742,14.381718 C8.5149097,14.381718 7.90619869,13.797095 7.90619869,13.0801666 C7.90619869,12.3633135 8.51493584,11.7762316 9.26388742,11.7762316 C10.0127867,11.7762316 10.6216023,12.3609549 10.6216023,13.0801666 C10.6214716,13.7994787 10.0102516,14.381718 9.26388742,14.381718 Z M14.6970206,14.381718 C13.9440965,14.381718 13.3324061,13.797095 13.3324061,13.0801666 C13.3324061,12.3633135 13.9442272,11.7762316 14.6970206,11.7762316 C15.4498663,11.7762316 16.0615567,12.3609549 16.0615567,13.0801666 C16.0615828,13.7994787 15.4472005,14.381718 14.6970467,14.381718 L14.6970206,14.381718 Z M20.1385954,14.381718 C19.3856452,14.381718 18.7760978,13.797095 18.7760978,13.0801666 C18.7760978,12.3633135 19.3856452,11.7762316 20.1385693,11.7762316 C20.8911798,11.7762316 21.5030008,12.3609549 21.5030008,13.0801666 C21.5030008,13.7994787 20.8913104,14.381718 20.1385693,14.381718 L20.1385954,14.381718 Z" id="path-1"></path>
        <filter x="-29.9%" y="-25.3%" width="159.8%" height="170.7%" filterUnits="objectBoundingBox" id="filter-2">
            <feOffset dx="0" dy="2" in="SourceAlpha" result="shadowOffsetOuter1"></feOffset>
            <feGaussianBlur stdDeviation="2" in="shadowOffsetOuter1" result="shadowBlurOuter1"></feGaussianBlur>
            <feColorMatrix values="0 0 0 0 0   0 0 0 0 0   0 0 0 0 0  0 0 0 0.5 0" type="matrix" in="shadowBlurOuter1"></feColorMatrix>
        </filter>
    </defs>
    <g id="0.0.0颜色标准、控件" stroke="none" stroke-width="1" fill="none" fill-rule="evenodd">
        <g id="登录注册_控件" transform="translate(-250.000000, -559.000000)" fill-rule="nonzero">
            <g id="分组" transform="translate(250.000000, 559.000000)">
                <g id="形状">
                    <use fill="black" fill-opacity="1" filter="url(#filter-2)" xlink:href="#path-1"></use>
                    <use fill="#EEEEEE" xlink:href="#path-1"></use>
                </g>
            </g>
        </g>
    </g>
</svg>