<?xml version="1.0" encoding="UTF-8"?>
<svg width="30px" height="30px" viewBox="0 0 30 30" version="1.1" xmlns="http://www.w3.org/2000/svg" xmlns:xlink="http://www.w3.org/1999/xlink">
    <!-- Generator: Sketch 52.3 (67297) - http://www.bohemiancoding.com/sketch -->
    <title>icon_phonenum copy 5</title>
    <desc>Created with Sketch.</desc>
    <g id="0.0.0颜色标准、控件" stroke="none" stroke-width="1" fill="none" fill-rule="evenodd">
        <g id="登录注册_控件" transform="translate(-588.000000, -865.000000)">
            <g id="分组-11" transform="translate(148.000000, 782.000000)">
                <g id="Group-Copy-2" transform="translate(92.000000, 76.000000)">
                    <g id="分组" transform="translate(348.000000, 7.000000)">
                        <path d="M11.7517032,14.3223783 C11.4343265,14.8464148 11.25,15.4579284 11.25,16.12 C11.25,18.04 12.875,19.72 15,19.72 C15.5698008,19.72 16.1193095,19.5933776 16.6138389,19.3651075 L18.6301688,21.4563297 C17.5747814,21.7931775 16.3692579,22 15,22 C7.5,22 5,16 5,16 C5,16 6.11267837,13.3295719 9.08034366,11.5517968 L11.7517032,14.3223783 Z M12.6946315,10.2033917 C13.4043447,10.0731858 14.1716783,10 15,10 C22.5,10 25,16 25,16 C25,16 24.1058648,18.0437377 21.8951496,19.7456434 L18.7330141,16.4660571 C18.7442437,16.3524194 18.75,16.2369992 18.75,16.12 C18.625,14.08 17,12.52 15,12.52 C14.9762672,12.52 14.9525696,12.5202197 14.9289096,12.5206572 L12.6946317,10.2033919 Z" id="合并形状" fill="#3D485B"></path>
                        <path d="M5.90909091,4.91666667 L24.0909091,25.0833333" id="直线" stroke="#3D485B" stroke-linecap="square"></path>
                    </g>
                </g>
            </g>
        </g>
    </g>
</svg>