<?xml version="1.0" encoding="UTF-8"?>
<svg width="20px" height="20px" viewBox="0 0 20 20" version="1.1" xmlns="http://www.w3.org/2000/svg" xmlns:xlink="http://www.w3.org/1999/xlink">
    <!-- Generator: Sketch 52.3 (67297) - http://www.bohemiancoding.com/sketch -->
    <title>icon_select_s</title>
    <desc>Created with Sketch.</desc>
    <g id="1.0.0首页" stroke="none" stroke-width="1" fill="none" fill-rule="evenodd">
        <g id="1.0.2首页_赛程结果" transform="translate(-96.000000, -1073.000000)" fill="#CA59FF" fill-rule="nonzero">
            <g id="赛事预告" transform="translate(80.000000, 1063.000000)">
                <g id="分组-2" transform="translate(16.000000, 10.000000)">
                    <g id="分组" transform="translate(3.000000, 3.000000)">
                        <path d="M9.46862034,0.0690018519 L10.635287,0.0690018519 L11.6666667,1.09766481 L10.5,1.09766481 L9.19804632,1.09766481 L8.16666667,0.0690018519 L9.46862034,0.0690018519 Z M11.6666667,-7.10542736e-15 L12.9095251,-7.10542736e-15 L14,1.09001017 L14,2.33333333 L11.6666667,-7.10542736e-15 Z M0.0137750455,11.2333574 L-2.05169215e-13,1.16666667 L6.52811931,1.16666667 L7.67990096,2.34166397 L11.6674636,2.34166397 L12.8333333,3.53071016 L12.8333333,14 L2.75495219,14 L0.0137750455,11.2333574 Z M9.47171009,4.71239837 C9.40508294,4.65142276 9.29775744,4.65142276 9.23080208,4.71239837 L5.24301962,8.34373505 L3.60261331,6.85013152 C3.53861186,6.79214491 3.42570675,6.79214491 3.3617053,6.85013152 L2.38330369,7.74115256 C2.31667655,7.80182927 2.31667655,7.89956958 2.38330369,7.96024629 L5.12256562,10.4545672 C5.15571508,10.4847561 5.19903914,10.5 5.24301962,10.5 C5.28634368,10.5 5.32999595,10.4847561 5.36314541,10.4545672 L10.4497835,5.82251315 C10.5167388,5.76183644 10.5167388,5.66379723 10.4497835,5.60282162 L9.47171009,4.71239837 Z" id="合并形状"></path>
                    </g>
                </g>
            </g>
        </g>
    </g>
</svg>