<?xml version="1.0" encoding="UTF-8"?>
<svg width="40px" height="40px" viewBox="0 0 40 40" version="1.1" xmlns="http://www.w3.org/2000/svg" xmlns:xlink="http://www.w3.org/1999/xlink" preserveAspectRatio="none">
    <!-- Generator: Sketch 56.1 (81669) - https://sketch.com -->
    <title>占位图</title>
    <desc>Created with Sketch.</desc>
    <g id="1.0.0首页" stroke="none" stroke-width="1" fill="none" fill-rule="evenodd">
        <g id="1.0.1首页" transform="translate(-122.000000, -503.000000)">
            <g id="占位图备份-4" transform="translate(122.000000, 503.000000)">
                <g id="占位图">
                    <rect id="矩形" fill="#3D485B" x="0" y="0" width="40" height="40"></rect>
                    <path d="M11.5789474,17.5789474 C9.83489026,17.5789474 8.42105263,16.2358016 8.42105263,14.5789474 C8.42105263,12.9220931 9.83489026,11.5789474 11.5789474,11.5789474 C13.3230045,11.5789474 14.7368421,12.9220931 14.7368421,14.5789474 C14.7368421,16.2358016 13.3230045,17.5789474 11.5789474,17.5789474 Z M3.83366718,31.5252319 C0.559248923,31.4224039 10.2032445,22.7726978 11.0471693,22.7726978 C11.9404683,22.7726978 13.6695256,24.4153476 16.2343411,27.7006473 C19.8336786,21.619514 22.0709226,18.5789474 22.946073,18.5789474 C24.2587985,18.5789474 36.8532104,31.4930847 34.4274556,31.5252319 C32.0017009,31.5573792 7.10808544,31.62806 3.83366718,31.5252319 Z" id="形状结合" fill="#24293C"></path>
                </g>
            </g>
        </g>
    </g>
</svg>