<?xml version="1.0" encoding="UTF-8"?>
<svg width="259px" height="148px" viewBox="0 0 259 148" version="1.1" xmlns="http://www.w3.org/2000/svg" xmlns:xlink="http://www.w3.org/1999/xlink">
    <!-- Generator: Sketch 52.3 (67297) - http://www.bohemiancoding.com/sketch -->
    <title>kuan_mvp</title>
    <desc>Created with Sketch.</desc>
    <defs>
        <linearGradient x1="99.9998543%" y1="50.0001815%" x2="-4.08857224e-05%" y2="50.0001815%" id="linearGradient-1">
            <stop stop-color="#0049E8" offset="0%"></stop>
            <stop stop-color="#CF14FF" offset="100%"></stop>
        </linearGradient>
        <linearGradient x1="98.7015356%" y1="50.0001815%" x2="-4.08857224e-05%" y2="50.0001815%" id="linearGradient-2">
            <stop stop-color="#212F51" offset="0%"></stop>
            <stop stop-color="#342150" offset="100%"></stop>
        </linearGradient>
    </defs>
    <g id="2.0.0联赛" stroke="none" stroke-width="1" fill="none" fill-rule="evenodd">
        <g id="2.0.4联赛详情页" transform="translate(-706.000000, -1097.000000)">
            <g id="MVP" transform="translate(60.000000, 1081.000000)">
                <g id="分组-2" transform="translate(68.000000, 16.000000)">
                    <g id="MVP-Copy-2" transform="translate(578.000000, 0.000000)">
                        <g id="分组-5">
                            <g id="分组-3">
                                <g id="kuan_mvp">
                                    <path d="M257.901486,95.9952094 C257.39556,95.9457438 257,95.5192973 257,95 C257,94.4478632 257.447863,94 258,94 C258.552137,94 259,94.4478632 259,95 C259,95.5525641 258.552137,96 258,96 L258,134.318008 L250.430565,147 L226,147 L226,146.798851 L250.39129,146.798851 L257.901486,134.231513 L257.901486,95.9952094 Z M1,68 L1,24.0284771 L14.274522,11.4774214 L21.9619383,11.4774214 L27.406823,2 L45.8468913,2 C45.9312712,2 46,2.13167221 46,2.29332917 C46,2.45563798 45.9312712,2.58731019 45.8468913,2.58731019 L27.5337331,2.58731019 L22.0888484,12.0634279 L14.3490348,12.0634279 L1.30621735,24.3856869 L1.30621735,68.047741 C1.70868375,68.1770938 2,68.5546944 2,69 C2,69.552022 1.55232672,70 1.00019635,70 C0.447673277,70 0,69.552022 0,69 C0,68.4480434 0.447567222,68.0001061 1,68 Z M227.321944,-1.40687462e-12 L244.037973,-1.40687462e-12 L247.697564,7.47811472 L256,7.47811472 L256,135.303003 L250.082627,144.819324 L64.3587128,144.819324 L64.3587128,148 L52.0388577,148 L49.2939076,143.935424 L39.4366513,143.935424 L33.0228476,146.98812 L8.53580628,145.695707 L4,130.982819 L4,25.9656176 L14.8020873,15.3098275 L22.5584603,15.3098275 L28.6407393,5.15590688 L223.432835,4.71296395 L227.321944,-1.40687462e-12 Z M9.43809586,144.159213 L32.590572,145.381444 L38.9875649,142.353246 L50.1766418,142.353246 L52.9212489,146.417821 L63.0207168,146.417821 L63.0207168,142.235821 L249.598204,142.235821 L254.661661,134.092689 L254.661661,9.06095537 L246.950001,9.06095537 L243.290068,1.58284065 L227.979277,1.58284065 L224.090169,7.2951425 L29.1951499,7.73874753 L23.5,17 L15,17 L5.33799595,26.6988214 L5.33799595,130.465722 L9.43809586,144.159213 Z" id="合并形状" fill="url(#linearGradient-1)"></path>
                                    <polygon id="路径-copy" fill="url(#linearGradient-2)" points="9.43809586 144.159213 5.33799595 130.465722 5.33799595 26.6988214 15 17 23.5 17 29.1951499 7.73874753 224.090169 7.2951425 227.979277 1.58284065 243.290068 1.58284065 246.950001 9.06095537 254.661661 9.06095537 254.661661 134.092689 249.598204 142.235821 63.0207168 142.235821 63.0207168 146.417821 52.9212489 146.417821 50.1766418 142.353246 38.9875649 142.353246 32.590572 145.381444"></polygon>
                                </g>
                            </g>
                        </g>
                    </g>
                </g>
            </g>
        </g>
    </g>
</svg>