<?xml version="1.0" encoding="UTF-8"?>
<svg width="36px" height="36px" viewBox="0 0 36 36" version="1.1" xmlns="http://www.w3.org/2000/svg" xmlns:xlink="http://www.w3.org/1999/xlink">
    <!-- Generator: Sketch 52.3 (67297) - http://www.bohemiancoding.com/sketch -->
    <title>logo_all </title>
    <desc>Created with Sketch.</desc>
    <defs>
        <linearGradient x1="-32.7824177%" y1="-23.9221996%" x2="101.999998%" y2="100.999999%" id="linearGradient-1">
            <stop stop-color="#3023AE" offset="0%"></stop>
            <stop stop-color="#C86DD7" offset="100%"></stop>
        </linearGradient>
        <path d="M19.0016403,22.986795 C19.0016403,23.7551837 19.0010079,24.5234187 19.0017985,25.2918074 C19.0029053,26.4435448 19.5759206,26.9974244 20.771758,26.9988083 C22.2596371,27.000346 23.7476743,27.0004998 25.2357115,26.9986545 C26.4124168,26.9974244 26.9887525,26.4510795 26.9942866,25.31149 C27.0021925,23.7491867 27.00156,22.1868834 26.9944447,20.6245801 C26.9897012,19.5769451 26.4073571,19.0092262 25.3343764,19.0047669 C23.7541571,18.9984623 22.1739378,18.9983085 20.5938766,19.0049206 C19.5947365,19.0092262 19.0098624,19.5878627 19.0029053,20.5664551 C18.9972131,21.3731325 19.0016403,22.1799638 19.0016403,22.986795 Z M16.9980855,13.0112001 C16.9980855,12.2460577 17.0006277,11.4807594 16.99745,10.7156169 C16.9930011,9.6153448 16.3776274,9.00522508 15.2628684,9.00226484 C13.7682079,8.998214 12.2737063,9.00070683 10.7790457,9.00133003 C9.59199261,9.00164164 9.00331214,9.57499214 9.00140548,10.7385197 C8.99886327,12.2429416 9.00045215,13.7473635 9.00092882,15.2517854 C9.00124659,16.4174942 9.58516042,16.9962978 10.7691947,16.9981674 C12.2770429,17.000816 13.7848911,17.0003486 15.2927394,16.9983232 C16.3765152,16.9970768 16.98744,16.4067439 16.9966555,15.3457338 C17.0033288,14.5676598 16.9979266,13.78943 16.9980855,13.0112001 Z M19.002107,12.9858827 C19.002107,13.7959405 18.9978402,14.6061527 19.0033713,15.4162104 C19.0101666,16.4163523 19.6015162,16.9966415 20.6132265,16.9981856 C22.2056983,17.0006563 23.7981701,17.0005018 25.390642,16.99834 C26.3661633,16.9969503 26.9508756,16.5022067 26.9706294,15.5593526 C27.0060282,13.8756183 27.0088728,12.1903399 26.9821656,10.5062968 C26.9663626,9.5161919 26.2737156,8.97944757 25.3707301,9.00060233 C23.7659319,9.03843385 22.1597115,9.0087863 20.5539651,9.01218341 C19.5841328,9.0141908 19.012537,9.5677663 19.0038454,10.5166426 C18.9962599,11.3396712 19.0022651,12.1626997 19.002107,12.9858827 Z M9.00200628,22.9620721 C9.00200628,23.7431279 9.00121581,24.5241838 9.00216437,25.3052396 C9.00358721,26.436848 9.57778123,26.9963484 10.7464052,26.9981934 C12.2471827,27.0006534 13.7481182,27.0004997 15.2490538,26.9983472 C16.4031332,26.9966559 16.9855481,26.4503781 16.9928203,25.3362973 C17.0030964,23.7614243 17.0015155,22.1863976 16.9932946,20.6115246 C16.9880775,19.5843132 16.4058208,19.011744 15.3592447,19.0060552 C13.7662989,18.9977526 12.1731951,18.9982139 10.5800913,19.0060552 C9.60307612,19.0108215 9.01212424,19.5915395 9.00358721,20.5421829 C8.99647302,21.3487614 9.00216437,22.1553399 9.00200628,22.9620721 Z M18.0229831,2.00000293 C26.8571362,2.00528623 34.0076786,9.18064688 33.9999938,18.0327346 C33.992309,26.8638491 26.8099067,34.0118327 17.9557412,33.9999853 C9.12607086,33.9881379 1.98497435,26.8030111 2.00002374,17.9459604 C2.01507313,9.13517848 9.18995073,1.99471963 18.0229831,2.00000293 Z M25,26 C24.4647698,26.0062258 24.0075225,25.5676075 24,25 C23.9926636,24.4890044 24.4311685,24.0187524 25,24 C25.5094481,23.9816765 25.9947246,24.4473365 26,25 C26.0050245,25.5232184 25.5405166,25.9938105 25,26 Z" id="path-2"></path>
    </defs>
    <g id="5.0.0预测页" stroke="none" stroke-width="1" fill="none" fill-rule="evenodd">
        <g id="5.0.1预测页_实时预测" transform="translate(-86.000000, -150.000000)">
            <g id="分组-4" transform="translate(60.000000, 140.000000)">
                <g id="分组" transform="translate(26.000000, 10.000000)">
                    <mask id="mask-3" fill="white">
                        <use xlink:href="#path-2"></use>
                    </mask>
                    <use id="Mask" fill="url(#linearGradient-1)" xlink:href="#path-2"></use>
                </g>
            </g>
        </g>
    </g>
</svg>