<?xml version="1.0" encoding="UTF-8"?>
<svg width="50px" height="30px" viewBox="0 0 50 30" version="1.1" xmlns="http://www.w3.org/2000/svg" xmlns:xlink="http://www.w3.org/1999/xlink">
    <!-- Generator: Sketch 52.3 (67297) - http://www.bohemiancoding.com/sketch -->
    <title>logo_s</title>
    <desc>Created with Sketch.</desc>
    <defs>
        <filter x="-7.3%" y="-0.9%" width="114.6%" height="101.7%" filterUnits="objectBoundingBox" id="filter-1">
            <feOffset dx="3" dy="2" in="SourceAlpha" result="shadowOffsetOuter1"></feOffset>
            <feGaussianBlur stdDeviation="2" in="shadowOffsetOuter1" result="shadowBlurOuter1"></feGaussianBlur>
            <feColorMatrix values="0 0 0 0 0   0 0 0 0 0   0 0 0 0 0  0 0 0 0.2 0" type="matrix" in="shadowBlurOuter1" result="shadowMatrixOuter1"></feColorMatrix>
            <feMerge>
                <feMergeNode in="shadowMatrixOuter1"></feMergeNode>
                <feMergeNode in="SourceGraphic"></feMergeNode>
            </feMerge>
        </filter>
        <linearGradient x1="155.619698%" y1="51.267475%" x2="0.101642219%" y2="50%" id="linearGradient-2">
            <stop stop-color="#FFFFFF" offset="0%"></stop>
            <stop stop-color="#FFD026" offset="10.4534495%"></stop>
            <stop stop-color="#FB76CB" offset="40.539915%"></stop>
            <stop stop-color="#8000FF" offset="100%"></stop>
        </linearGradient>
    </defs>
    <g id="1.0.0首页" stroke="none" stroke-width="1" fill="none" fill-rule="evenodd">
        <g id="1.0.1首页" transform="translate(-4.000000, -12.000000)" fill="url(#linearGradient-2)">
            <g id="分组-2">
                <g id="分组-10" filter="url(#filter-1)">
                    <g id="分组-3" transform="translate(4.000000, 12.000000)">
                        <g id="logo" transform="translate(6.000000, 3.000000)">
                            <g id="分组">
                                <path d="M2.57571742e-14,18.6666667 L14.9285714,18.6666667 L12.2142857,24 L4.07142857,24 L2.57571742e-14,18.6666667 Z M-2.13162821e-14,9.33333333 L19,9.33333333 L16.2857143,14.6666667 L4.07142857,14.6666667 L-2.13162821e-14,9.33333333 Z M0,4.4408921e-14 L32.5714286,4.4408921e-14 C35.4605069,4.4408921e-14 38,2.59258286 38,5.33333333 L38,14.6666667 C38,17.6216785 35.4605069,20.2136305 32.5714286,20 L25.7857143,20 L17.6428571,24 L21.7142857,18.6666667 L19,14.6666667 L35.2857143,8 L36.6428571,9.33333333 L36.6428571,6.66666667 L31.2142857,6.66666667 L31.2142857,5.33333333 L20.3571429,5.33333333 C20.1419684,5.48921071 20.1422774,5.48511052 20.3571429,5.33333333 L4.07142857,5.33333333 L0,4.4408921e-14 Z" id="logo" fill-rule="nonzero"></path>
                            </g>
                        </g>
                    </g>
                </g>
            </g>
        </g>
    </g>
</svg>