<?xml version="1.0" encoding="UTF-8"?>
<svg width="108px" height="108px" viewBox="0 0 108 108" version="1.1" xmlns="http://www.w3.org/2000/svg" xmlns:xlink="http://www.w3.org/1999/xlink">
    <!-- Generator: Sketch 56.2 (81672) - https://sketch.com -->
    <title>直播推荐</title>
    <desc>Created with Sketch.</desc>
    <g id="6.0.0个人中心" stroke="none" stroke-width="1" fill="none" fill-rule="evenodd">
        <g id="6.0.0个人中心_成为会员" transform="translate(-503.000000, -855.000000)">
            <g id="分组-12" transform="translate(503.000000, 855.000000)">
                <g id="分组-22">
                    <g>
                        <g id="分组" transform="translate(1.000000, 13.000000)">
                            <g>
                                <g opacity="0.2" transform="translate(24.935659, 18.106026)" fill="#AB88FF">
                                    <path d="M0.538287268,7.34028092 C0.146805618,6.94879928 0,6.41051201 0,5.72541912 L0,2.20208428 C0,1.51699139 0.195740825,0.978704123 0.587222474,0.587222474 C0.978704123,0.195740825 1.51699139,0 2.25101948,0 C2.98504758,0 3.52333484,0.195740825 3.91481649,0.587222474 C4.30629814,0.978704123 4.45310376,1.51699139 4.45310376,2.20208428 L4.45310376,5.72541912 C4.45310376,6.41051201 4.25736294,6.94879928 3.86588129,7.34028092 C3.47439964,7.73176257 2.93611237,7.9275034 2.20208428,7.9275034 C1.46805618,7.9275034 0.929768917,7.73176257 0.538287268,7.34028092 Z M3.27865881,6.80199366 C3.52333484,6.55731763 3.62120526,6.16583598 3.62120526,5.72541912 L3.62120526,2.20208428 C3.62120526,1.71273222 3.52333484,1.37018577 3.27865881,1.07657454 C3.03398278,0.831898505 2.69143634,0.685092886 2.20208428,0.685092886 C1.71273222,0.685092886 1.32125057,0.831898505 1.12550974,1.07657454 C0.880833711,1.32125057 0.782963299,1.71273222 0.782963299,2.20208428 L0.782963299,5.72541912 C0.782963299,6.21477118 0.880833711,6.55731763 1.12550974,6.80199366 C1.37018577,7.04666969 1.71273222,7.19347531 2.20208428,7.19347531 C2.69143634,7.19347531 3.03398278,7.09560489 3.27865881,6.80199366 Z" id="形状" fill-rule="nonzero"></path>
                                    <polygon id="路径" points="10.2020843 7.73176257 9.41912098 7.73176257 9.41912098 0.63615768 8 1.51699139 8 0.734028092 9.12550974 0 10.2020843 0"></polygon>
                                    <polygon id="路径" points="15.2020843 7.73176257 14.419121 7.73176257 14.419121 0.63615768 13 1.51699139 13 0.734028092 14.1255097 0 15.2020843 0"></polygon>
                                    <path d="M19.5382873,7.34028092 C19.1468056,6.94879928 19,6.41051201 19,5.72541912 L19,2.20208428 C19,1.51699139 19.1957408,0.978704123 19.5872225,0.587222474 C19.9787041,0.195740825 20.5169914,0 21.2510195,0 C21.9850476,0 22.5233348,0.195740825 22.9148165,0.587222474 C23.3062981,0.978704123 23.4531038,1.51699139 23.4531038,2.20208428 L23.4531038,5.72541912 C23.4531038,6.41051201 23.2573629,6.94879928 22.8658813,7.34028092 C22.4743996,7.73176257 21.9361124,7.9275034 21.2020843,7.9275034 C20.4680562,7.9275034 19.8808337,7.73176257 19.5382873,7.34028092 Z M22.2786588,6.80199366 C22.5233348,6.55731763 22.6212053,6.16583598 22.6212053,5.72541912 L22.6212053,2.20208428 C22.6212053,1.71273222 22.5233348,1.37018577 22.2786588,1.07657454 C22.0339828,0.831898505 21.6914363,0.685092886 21.2020843,0.685092886 C20.7127322,0.685092886 20.3212506,0.831898505 20.1255097,1.07657454 C19.8808337,1.32125057 19.7829633,1.71273222 19.7829633,2.20208428 L19.7829633,5.72541912 C19.7829633,6.21477118 19.8808337,6.55731763 20.1255097,6.80199366 C20.3701858,7.04666969 20.7127322,7.19347531 21.2020843,7.19347531 C21.6425011,7.19347531 22.0339828,7.09560489 22.2786588,6.80199366 Z" id="形状" fill-rule="nonzero"></path>
                                    <path d="M27.5382873,7.34028092 C27.1468056,6.94879928 27,6.41051201 27,5.72541912 L27,2.20208428 C27,1.51699139 27.1957408,0.978704123 27.5872225,0.587222474 C27.9787041,0.195740825 28.5169914,0 29.2510195,0 C29.9850476,0 30.5233348,0.195740825 30.9148165,0.587222474 C31.3062981,0.978704123 31.4531038,1.51699139 31.4531038,2.20208428 L31.4531038,5.72541912 C31.4531038,6.41051201 31.2573629,6.94879928 30.8658813,7.34028092 C30.4743996,7.73176257 29.9361124,7.9275034 29.2020843,7.9275034 C28.4680562,7.9275034 27.9297689,7.73176257 27.5382873,7.34028092 Z M30.2786588,6.80199366 C30.5233348,6.55731763 30.6212053,6.16583598 30.6212053,5.72541912 L30.6212053,2.20208428 C30.6212053,1.71273222 30.5233348,1.37018577 30.2786588,1.07657454 C30.0339828,0.831898505 29.6914363,0.685092886 29.2020843,0.685092886 C28.7127322,0.685092886 28.3212506,0.831898505 28.1255097,1.07657454 C27.8808337,1.32125057 27.7829633,1.71273222 27.7829633,2.20208428 L27.7829633,5.72541912 C27.7829633,6.21477118 27.8808337,6.55731763 28.1255097,6.80199366 C28.3701858,7.04666969 28.7127322,7.19347531 29.2020843,7.19347531 C29.6914363,7.19347531 30.0339828,7.09560489 30.2786588,6.80199366 Z" id="形状" fill-rule="nonzero"></path>
                                    <polygon id="路径" points="36.2020843 7.73176257 35.419121 7.73176257 35.419121 0.63615768 34 1.51699139 34 0.734028092 35.1255097 0 36.2020843 0"></polygon>
                                    <polygon id="路径" points="41.2020843 7.73176257 40.419121 7.73176257 40.419121 0.63615768 39 1.51699139 39 0.734028092 40.1255097 0 41.2020843 0"></polygon>
                                    <polygon id="路径" points="47.2020843 7.73176257 46.419121 7.73176257 46.419121 0.63615768 45 1.51699139 45 0.734028092 46.1255097 0 47.2020843 0"></polygon>
                                    <path d="M50.5382873,7.34028092 C50.1468056,6.94879928 50,6.41051201 50,5.72541912 L50,2.20208428 C50,1.51699139 50.1957408,0.978704123 50.5872225,0.587222474 C50.9787041,0.195740825 51.5169914,0 52.2510195,0 C52.9850476,0 53.5233348,0.195740825 53.9148165,0.587222474 C54.3062981,0.978704123 54.4531038,1.51699139 54.4531038,2.20208428 L54.4531038,5.72541912 C54.4531038,6.41051201 54.2573629,6.94879928 53.8658813,7.34028092 C53.4743996,7.73176257 52.9361124,7.9275034 52.2020843,7.9275034 C51.4680562,7.9275034 50.8808337,7.73176257 50.5382873,7.34028092 Z M53.2786588,6.80199366 C53.5233348,6.55731763 53.6212053,6.16583598 53.6212053,5.72541912 L53.6212053,2.20208428 C53.6212053,1.71273222 53.5233348,1.37018577 53.2786588,1.07657454 C53.0339828,0.831898505 52.6914363,0.685092886 52.2020843,0.685092886 C51.7127322,0.685092886 51.3212506,0.831898505 51.1255097,1.07657454 C50.8808337,1.32125057 50.7829633,1.71273222 50.7829633,2.20208428 L50.7829633,5.72541912 C50.7829633,6.21477118 50.8808337,6.55731763 51.1255097,6.80199366 C51.3701858,7.04666969 51.7127322,7.19347531 52.2020843,7.19347531 C52.6425011,7.19347531 53.0339828,7.09560489 53.2786588,6.80199366 Z" id="形状" fill-rule="nonzero"></path>
                                    <path d="M58.5382873,7.34028092 C58.1468056,6.94879928 58,6.41051201 58,5.72541912 L58,2.20208428 C58,1.51699139 58.1957408,0.978704123 58.5872225,0.587222474 C58.9787041,0.195740825 59.5169914,0 60.2510195,0 C60.9850476,0 61.5233348,0.195740825 61.9148165,0.587222474 C62.3062981,0.978704123 62.4531038,1.51699139 62.4531038,2.20208428 L62.4531038,5.72541912 C62.4531038,6.41051201 62.2573629,6.94879928 61.8658813,7.34028092 C61.4743996,7.73176257 60.9361124,7.9275034 60.2020843,7.9275034 C59.4680562,7.9275034 58.9297689,7.73176257 58.5382873,7.34028092 Z M61.2786588,6.80199366 C61.5233348,6.55731763 61.6212053,6.16583598 61.6212053,5.72541912 L61.6212053,2.20208428 C61.6212053,1.71273222 61.5233348,1.37018577 61.2786588,1.07657454 C61.0339828,0.831898505 60.6914363,0.685092886 60.2020843,0.685092886 C59.7127322,0.685092886 59.3212506,0.831898505 59.1255097,1.07657454 C58.8808337,1.32125057 58.7829633,1.71273222 58.7829633,2.20208428 L58.7829633,5.72541912 C58.7829633,6.21477118 58.8808337,6.55731763 59.1255097,6.80199366 C59.3701858,7.04666969 59.7127322,7.19347531 60.2020843,7.19347531 C60.6914363,7.19347531 61.0339828,7.09560489 61.2786588,6.80199366 Z" id="形状" fill-rule="nonzero"></path>
                                </g>
                                <g opacity="0.2" transform="translate(32.275940, 30.829180)" fill="#AB88FF">
                                    <path d="M0.538287268,7.34028092 C0.146805618,6.94879928 0,6.41051201 0,5.72541912 L0,2.20208428 C0,1.51699139 0.195740825,0.978704123 0.587222474,0.587222474 C0.978704123,0.195740825 1.51699139,0 2.25101948,0 C2.98504758,0 3.52333484,0.195740825 3.91481649,0.587222474 C4.30629814,0.978704123 4.45310376,1.51699139 4.45310376,2.20208428 L4.45310376,5.72541912 C4.45310376,6.41051201 4.25736294,6.94879928 3.86588129,7.34028092 C3.47439964,7.73176257 2.93611237,7.9275034 2.20208428,7.9275034 C1.46805618,7.9275034 0.929768917,7.73176257 0.538287268,7.34028092 Z M3.27865881,6.80199366 C3.52333484,6.55731763 3.62120526,6.16583598 3.62120526,5.72541912 L3.62120526,2.20208428 C3.62120526,1.71273222 3.52333484,1.37018577 3.27865881,1.07657454 C3.03398278,0.831898505 2.69143634,0.685092886 2.20208428,0.685092886 C1.71273222,0.685092886 1.32125057,0.831898505 1.12550974,1.07657454 C0.880833711,1.32125057 0.782963299,1.71273222 0.782963299,2.20208428 L0.782963299,5.72541912 C0.782963299,6.21477118 0.880833711,6.55731763 1.12550974,6.80199366 C1.37018577,7.04666969 1.71273222,7.19347531 2.20208428,7.19347531 C2.69143634,7.19347531 3.03398278,7.09560489 3.27865881,6.80199366 Z" id="形状" fill-rule="nonzero"></path>
                                    <polygon id="路径" points="10.2020843 7.73176257 9.41912098 7.73176257 9.41912098 0.63615768 8 1.51699139 8 0.734028092 9.12550974 0 10.2020843 0"></polygon>
                                    <polygon id="路径" points="15.2020843 7.73176257 14.419121 7.73176257 14.419121 0.63615768 13 1.51699139 13 0.734028092 14.1255097 0 15.2020843 0"></polygon>
                                    <path d="M19.5382873,7.34028092 C19.1468056,6.94879928 19,6.41051201 19,5.72541912 L19,2.20208428 C19,1.51699139 19.1957408,0.978704123 19.5872225,0.587222474 C19.9787041,0.195740825 20.5169914,0 21.2510195,0 C21.9850476,0 22.5233348,0.195740825 22.9148165,0.587222474 C23.3062981,0.978704123 23.4531038,1.51699139 23.4531038,2.20208428 L23.4531038,5.72541912 C23.4531038,6.41051201 23.2573629,6.94879928 22.8658813,7.34028092 C22.4743996,7.73176257 21.9361124,7.9275034 21.2020843,7.9275034 C20.4680562,7.9275034 19.8808337,7.73176257 19.5382873,7.34028092 Z M22.2786588,6.80199366 C22.5233348,6.55731763 22.6212053,6.16583598 22.6212053,5.72541912 L22.6212053,2.20208428 C22.6212053,1.71273222 22.5233348,1.37018577 22.2786588,1.07657454 C22.0339828,0.831898505 21.6914363,0.685092886 21.2020843,0.685092886 C20.7127322,0.685092886 20.3212506,0.831898505 20.1255097,1.07657454 C19.8808337,1.32125057 19.7829633,1.71273222 19.7829633,2.20208428 L19.7829633,5.72541912 C19.7829633,6.21477118 19.8808337,6.55731763 20.1255097,6.80199366 C20.3701858,7.04666969 20.7127322,7.19347531 21.2020843,7.19347531 C21.6914363,7.19347531 22.0339828,7.09560489 22.2786588,6.80199366 Z" id="形状" fill-rule="nonzero"></path>
                                    <path d="M27.5382873,7.34028092 C27.1468056,6.94879928 27,6.41051201 27,5.72541912 L27,2.20208428 C27,1.51699139 27.1957408,0.978704123 27.5872225,0.587222474 C27.9787041,0.195740825 28.5169914,0 29.2510195,0 C29.9850476,0 30.5233348,0.195740825 30.9148165,0.587222474 C31.3062981,0.978704123 31.4531038,1.51699139 31.4531038,2.20208428 L31.4531038,5.72541912 C31.4531038,6.41051201 31.2573629,6.94879928 30.8658813,7.34028092 C30.4743996,7.73176257 29.9361124,7.9275034 29.2020843,7.9275034 C28.4680562,7.9275034 27.9297689,7.73176257 27.5382873,7.34028092 Z M30.2786588,6.80199366 C30.5233348,6.55731763 30.6212053,6.16583598 30.6212053,5.72541912 L30.6212053,2.20208428 C30.6212053,1.71273222 30.5233348,1.37018577 30.2786588,1.07657454 C30.0339828,0.831898505 29.6914363,0.685092886 29.2020843,0.685092886 C28.7127322,0.685092886 28.3212506,0.831898505 28.1255097,1.07657454 C27.8808337,1.32125057 27.7829633,1.71273222 27.7829633,2.20208428 L27.7829633,5.72541912 C27.7829633,6.21477118 27.8808337,6.55731763 28.1255097,6.80199366 C28.3701858,7.04666969 28.7127322,7.19347531 29.2020843,7.19347531 C29.6914363,7.19347531 30.0339828,7.09560489 30.2786588,6.80199366 Z" id="形状" fill-rule="nonzero"></path>
                                    <polygon id="路径" points="36.2020843 7.73176257 35.419121 7.73176257 35.419121 0.63615768 34 1.51699139 34 0.734028092 35.1255097 0 36.2020843 0"></polygon>
                                    <polygon id="路径" points="41.2020843 7.73176257 40.419121 7.73176257 40.419121 0.63615768 39 1.51699139 39 0.734028092 40.1255097 0 41.2020843 0"></polygon>
                                    <polygon id="路径" points="47.2020843 7.73176257 46.419121 7.73176257 46.419121 0.63615768 45 1.51699139 45 0.734028092 46.1255097 0 47.2020843 0"></polygon>
                                    <path d="M51.5382873,7.34028092 C51.1468056,6.94879928 51,6.41051201 51,5.72541912 L51,2.20208428 C51,1.51699139 51.1957408,0.978704123 51.5872225,0.587222474 C51.9787041,0.195740825 52.5169914,0 53.2510195,0 C53.9850476,0 54.5233348,0.195740825 54.9148165,0.587222474 C55.3062981,0.978704123 55.4531038,1.51699139 55.4531038,2.20208428 L55.4531038,5.72541912 C55.4531038,6.41051201 55.2573629,6.94879928 54.8658813,7.34028092 C54.4743996,7.73176257 53.9361124,7.9275034 53.2020843,7.9275034 C52.4680562,7.9275034 51.8808337,7.73176257 51.5382873,7.34028092 Z M54.2786588,6.80199366 C54.5233348,6.55731763 54.6212053,6.16583598 54.6212053,5.72541912 L54.6212053,2.20208428 C54.6212053,1.71273222 54.5233348,1.37018577 54.2786588,1.07657454 C54.0339828,0.831898505 53.6914363,0.685092886 53.2020843,0.685092886 C52.7127322,0.685092886 52.3212506,0.831898505 52.1255097,1.07657454 C51.8808337,1.32125057 51.7829633,1.71273222 51.7829633,2.20208428 L51.7829633,5.72541912 C51.7829633,6.21477118 51.8808337,6.55731763 52.1255097,6.80199366 C52.3701858,7.04666969 52.7127322,7.19347531 53.2020843,7.19347531 C53.6914363,7.19347531 54.0339828,7.09560489 54.2786588,6.80199366 Z" id="形状" fill-rule="nonzero"></path>
                                    <path d="M58.5382873,7.34028092 C58.1468056,6.94879928 58,6.41051201 58,5.72541912 L58,2.20208428 C58,1.51699139 58.1957408,0.978704123 58.5872225,0.587222474 C58.9787041,0.195740825 59.5169914,0 60.2510195,0 C60.9850476,0 61.5233348,0.195740825 61.9148165,0.587222474 C62.3062981,0.978704123 62.4531038,1.51699139 62.4531038,2.20208428 L62.4531038,5.72541912 C62.4531038,6.41051201 62.2573629,6.94879928 61.8658813,7.34028092 C61.4743996,7.73176257 60.9361124,7.9275034 60.2020843,7.9275034 C59.4680562,7.9275034 58.9297689,7.73176257 58.5382873,7.34028092 Z M61.2786588,6.80199366 C61.5233348,6.55731763 61.6212053,6.16583598 61.6212053,5.72541912 L61.6212053,2.20208428 C61.6212053,1.71273222 61.5233348,1.37018577 61.2786588,1.07657454 C61.0339828,0.831898505 60.6914363,0.685092886 60.2020843,0.685092886 C59.7127322,0.685092886 59.3212506,0.831898505 59.1255097,1.07657454 C58.8808337,1.32125057 58.7829633,1.71273222 58.7829633,2.20208428 L58.7829633,5.72541912 C58.7829633,6.21477118 58.8808337,6.55731763 59.1255097,6.80199366 C59.3701858,7.04666969 59.7127322,7.19347531 60.2020843,7.19347531 C60.6914363,7.19347531 61.0339828,7.09560489 61.2786588,6.80199366 Z" id="形状" fill-rule="nonzero"></path>
                                </g>
                                <g opacity="0.2" transform="translate(20.042139, 41.105573)" fill="#AB88FF">
                                    <path d="M0.538287268,7.34028092 C0.146805618,6.94879928 0,6.41051201 0,5.72541912 L0,2.20208428 C0,1.51699139 0.195740825,0.978704123 0.587222474,0.587222474 C0.978704123,0.195740825 1.51699139,0 2.25101948,0 C2.98504758,0 3.52333484,0.195740825 3.91481649,0.587222474 C4.30629814,0.978704123 4.45310376,1.51699139 4.45310376,2.20208428 L4.45310376,5.72541912 C4.45310376,6.41051201 4.25736294,6.94879928 3.86588129,7.34028092 C3.47439964,7.73176257 2.93611237,7.9275034 2.20208428,7.9275034 C1.46805618,7.9275034 0.929768917,7.73176257 0.538287268,7.34028092 Z M3.27865881,6.80199366 C3.52333484,6.55731763 3.62120526,6.16583598 3.62120526,5.72541912 L3.62120526,2.20208428 C3.62120526,1.71273222 3.52333484,1.37018577 3.27865881,1.07657454 C3.03398278,0.831898505 2.69143634,0.685092886 2.20208428,0.685092886 C1.71273222,0.685092886 1.32125057,0.831898505 1.12550974,1.07657454 C0.880833711,1.32125057 0.782963299,1.71273222 0.782963299,2.20208428 L0.782963299,5.72541912 C0.782963299,6.21477118 0.880833711,6.55731763 1.12550974,6.80199366 C1.37018577,7.04666969 1.71273222,7.19347531 2.20208428,7.19347531 C2.69143634,7.19347531 3.03398278,7.09560489 3.27865881,6.80199366 Z" id="形状" fill-rule="nonzero"></path>
                                    <polygon id="路径" points="10.2020843 7.73176257 9.41912098 7.73176257 9.41912098 0.63615768 8 1.51699139 8 0.734028092 9.12550974 0 10.2020843 0"></polygon>
                                    <polygon id="路径" points="15.2020843 7.73176257 14.419121 7.73176257 14.419121 0.63615768 13 1.51699139 13 0.734028092 14.1255097 0 15.2020843 0"></polygon>
                                    <path d="M19.5382873,7.34028092 C19.1468056,6.94879928 19,6.41051201 19,5.72541912 L19,2.20208428 C19,1.51699139 19.1957408,0.978704123 19.5872225,0.587222474 C19.9787041,0.195740825 20.5169914,0 21.2510195,0 C21.9850476,0 22.5233348,0.195740825 22.9148165,0.587222474 C23.3062981,0.978704123 23.4531038,1.51699139 23.4531038,2.20208428 L23.4531038,5.72541912 C23.4531038,6.41051201 23.2573629,6.94879928 22.8658813,7.34028092 C22.4743996,7.73176257 21.9361124,7.9275034 21.2020843,7.9275034 C20.4680562,7.9275034 19.9297689,7.73176257 19.5382873,7.34028092 Z M22.2786588,6.80199366 C22.5233348,6.55731763 22.6212053,6.16583598 22.6212053,5.72541912 L22.6212053,2.20208428 C22.6212053,1.71273222 22.5233348,1.37018577 22.2786588,1.07657454 C22.0339828,0.831898505 21.6914363,0.685092886 21.2020843,0.685092886 C20.7127322,0.685092886 20.3212506,0.831898505 20.1255097,1.07657454 C19.8808337,1.32125057 19.7829633,1.71273222 19.7829633,2.20208428 L19.7829633,5.72541912 C19.7829633,6.21477118 19.8808337,6.55731763 20.1255097,6.80199366 C20.3701858,7.04666969 20.7127322,7.19347531 21.2020843,7.19347531 C21.6914363,7.19347531 22.0339828,7.09560489 22.2786588,6.80199366 Z" id="形状" fill-rule="nonzero"></path>
                                    <path d="M27.5382873,7.34028092 C27.1468056,6.94879928 27,6.41051201 27,5.72541912 L27,2.20208428 C27,1.51699139 27.1957408,0.978704123 27.5872225,0.587222474 C27.9787041,0.195740825 28.5169914,0 29.2510195,0 C29.9850476,0 30.5233348,0.195740825 30.9148165,0.587222474 C31.3062981,0.978704123 31.4531038,1.51699139 31.4531038,2.20208428 L31.4531038,5.72541912 C31.4531038,6.41051201 31.2573629,6.94879928 30.8658813,7.34028092 C30.4743996,7.73176257 29.9361124,7.9275034 29.2020843,7.9275034 C28.419121,7.9275034 27.8808337,7.73176257 27.5382873,7.34028092 Z M30.2786588,6.80199366 C30.5233348,6.55731763 30.6212053,6.16583598 30.6212053,5.72541912 L30.6212053,2.20208428 C30.6212053,1.71273222 30.5233348,1.37018577 30.2786588,1.07657454 C30.0339828,0.831898505 29.6914363,0.685092886 29.2020843,0.685092886 C28.7127322,0.685092886 28.3212506,0.831898505 28.1255097,1.07657454 C27.8808337,1.32125057 27.7829633,1.71273222 27.7829633,2.20208428 L27.7829633,5.72541912 C27.7829633,6.21477118 27.8808337,6.55731763 28.1255097,6.80199366 C28.3701858,7.04666969 28.7127322,7.19347531 29.2020843,7.19347531 C29.6425011,7.19347531 30.0339828,7.09560489 30.2786588,6.80199366 Z" id="形状" fill-rule="nonzero"></path>
                                    <polygon id="路径" points="36.2020843 7.73176257 35.419121 7.73176257 35.419121 0.63615768 34 1.51699139 34 0.734028092 35.1255097 0 36.2020843 0"></polygon>
                                    <polygon id="路径" points="41.2020843 7.73176257 40.419121 7.73176257 40.419121 0.63615768 39 1.51699139 39 0.734028092 40.1255097 0 41.2020843 0"></polygon>
                                    <polygon id="路径" points="47.2020843 7.73176257 46.419121 7.73176257 46.419121 0.63615768 45 1.51699139 45 0.734028092 46.1255097 0 47.2020843 0"></polygon>
                                    <path d="M50.5382873,7.34028092 C50.1468056,6.94879928 50,6.41051201 50,5.72541912 L50,2.20208428 C50,1.51699139 50.1957408,0.978704123 50.5872225,0.587222474 C50.9787041,0.195740825 51.5169914,0 52.2510195,0 C52.9850476,0 53.5233348,0.195740825 53.9148165,0.587222474 C54.3062981,0.978704123 54.4531038,1.51699139 54.4531038,2.20208428 L54.4531038,5.72541912 C54.4531038,6.41051201 54.2573629,6.94879928 53.8658813,7.34028092 C53.4743996,7.73176257 52.9361124,7.9275034 52.2020843,7.9275034 C51.4680562,7.9275034 50.9297689,7.73176257 50.5382873,7.34028092 Z M53.2786588,6.80199366 C53.5233348,6.55731763 53.6212053,6.16583598 53.6212053,5.72541912 L53.6212053,2.20208428 C53.6212053,1.71273222 53.5233348,1.37018577 53.2786588,1.07657454 C53.0339828,0.831898505 52.6914363,0.685092886 52.2020843,0.685092886 C51.7127322,0.685092886 51.3212506,0.831898505 51.1255097,1.07657454 C50.8808337,1.32125057 50.7829633,1.71273222 50.7829633,2.20208428 L50.7829633,5.72541912 C50.7829633,6.21477118 50.8808337,6.55731763 51.1255097,6.80199366 C51.3701858,7.04666969 51.7127322,7.19347531 52.2020843,7.19347531 C52.6914363,7.19347531 53.0339828,7.09560489 53.2786588,6.80199366 Z" id="形状" fill-rule="nonzero"></path>
                                    <path d="M58.5382873,7.34028092 C58.1468056,6.94879928 58,6.41051201 58,5.72541912 L58,2.20208428 C58,1.51699139 58.1957408,0.978704123 58.5872225,0.587222474 C58.9787041,0.195740825 59.5169914,0 60.2510195,0 C60.9850476,0 61.5233348,0.195740825 61.9148165,0.587222474 C62.3062981,0.978704123 62.4531038,1.51699139 62.4531038,2.20208428 L62.4531038,5.72541912 C62.4531038,6.41051201 62.2573629,6.94879928 61.8658813,7.34028092 C61.4743996,7.73176257 60.9361124,7.9275034 60.2020843,7.9275034 C59.419121,7.9275034 58.8808337,7.73176257 58.5382873,7.34028092 Z M61.2786588,6.80199366 C61.5233348,6.55731763 61.6212053,6.16583598 61.6212053,5.72541912 L61.6212053,2.20208428 C61.6212053,1.71273222 61.5233348,1.37018577 61.2786588,1.07657454 C61.0339828,0.831898505 60.6914363,0.685092886 60.2020843,0.685092886 C59.7127322,0.685092886 59.3212506,0.831898505 59.1255097,1.07657454 C58.8808337,1.32125057 58.7829633,1.71273222 58.7829633,2.20208428 L58.7829633,5.72541912 C58.7829633,6.21477118 58.8808337,6.55731763 59.1255097,6.80199366 C59.3701858,7.04666969 59.7127322,7.19347531 60.2020843,7.19347531 C60.6425011,7.19347531 61.0339828,7.09560489 61.2786588,6.80199366 Z" id="形状" fill-rule="nonzero"></path>
                                </g>
                                <g opacity="0.2" transform="translate(40.126869, 53.339375)" fill="#AB88FF">
                                    <path d="M0.538287268,7.34028092 C0.146805618,6.94879928 0,6.41051201 0,5.72541912 L0,2.20208428 C0,1.51699139 0.195740825,0.978704123 0.587222474,0.587222474 C0.978704123,0.195740825 1.51699139,0 2.25101948,0 C2.98504758,0 3.52333484,0.195740825 3.91481649,0.587222474 C4.30629814,0.978704123 4.45310376,1.51699139 4.45310376,2.20208428 L4.45310376,5.72541912 C4.45310376,6.41051201 4.25736294,6.94879928 3.86588129,7.34028092 C3.47439964,7.73176257 2.93611237,7.9275034 2.20208428,7.9275034 C1.46805618,7.87856819 0.929768917,7.68282737 0.538287268,7.34028092 Z M3.27865881,6.80199366 C3.52333484,6.55731763 3.62120526,6.16583598 3.62120526,5.72541912 L3.62120526,2.20208428 C3.62120526,1.71273222 3.52333484,1.37018577 3.27865881,1.07657454 C3.03398278,0.831898505 2.69143634,0.685092886 2.20208428,0.685092886 C1.71273222,0.685092886 1.32125057,0.831898505 1.12550974,1.07657454 C0.880833711,1.32125057 0.782963299,1.71273222 0.782963299,2.20208428 L0.782963299,5.72541912 C0.782963299,6.21477118 0.880833711,6.55731763 1.12550974,6.80199366 C1.37018577,7.04666969 1.71273222,7.19347531 2.20208428,7.19347531 C2.69143634,7.19347531 3.03398278,7.04666969 3.27865881,6.80199366 Z" id="形状" fill-rule="nonzero"></path>
                                    <polygon id="路径" points="9.20208428 7.73176257 8.41912098 7.73176257 8.41912098 0.63615768 7 1.51699139 7 0.734028092 8.12550974 0 9.20208428 0"></polygon>
                                    <polygon id="路径" points="14.2020843 7.73176257 13.419121 7.73176257 13.419121 0.63615768 12 1.51699139 12 0.734028092 13.1255097 0 14.2020843 0 14.2020843 7.73176257"></polygon>
                                    <path d="M18.5382873,7.34028092 C18.1468056,6.94879928 18,6.41051201 18,5.72541912 L18,2.20208428 C18,1.51699139 18.1957408,0.978704123 18.5872225,0.587222474 C18.9787041,0.195740825 19.5169914,0 20.2510195,0 C20.9850476,0 21.5233348,0.195740825 21.9148165,0.587222474 C22.3062981,0.978704123 22.4531038,1.51699139 22.4531038,2.20208428 L22.4531038,5.72541912 C22.4531038,6.41051201 22.2573629,6.94879928 21.8658813,7.34028092 C21.4743996,7.73176257 20.9361124,7.9275034 20.2020843,7.9275034 C19.4680562,7.87856819 18.8808337,7.68282737 18.5382873,7.34028092 Z M21.2786588,6.80199366 C21.5233348,6.55731763 21.6212053,6.16583598 21.6212053,5.72541912 L21.6212053,2.20208428 C21.6212053,1.71273222 21.5233348,1.37018577 21.2786588,1.07657454 C21.0339828,0.831898505 20.6914363,0.685092886 20.2020843,0.685092886 C19.7127322,0.685092886 19.3212506,0.831898505 19.1255097,1.07657454 C18.8808337,1.32125057 18.7829633,1.71273222 18.7829633,2.20208428 L18.7829633,5.72541912 C18.7829633,6.21477118 18.8808337,6.55731763 19.1255097,6.80199366 C19.3701858,7.04666969 19.7127322,7.19347531 20.2020843,7.19347531 C20.6914363,7.19347531 21.0339828,7.04666969 21.2786588,6.80199366 Z" id="形状" fill-rule="nonzero"></path>
                                    <path d="M26.5382873,7.34028092 C26.1468056,6.94879928 26,6.41051201 26,5.72541912 L26,2.20208428 C26,1.51699139 26.1957408,0.978704123 26.5872225,0.587222474 C26.9787041,0.195740825 27.5169914,0 28.2510195,0 C28.9850476,0 29.5233348,0.195740825 29.9148165,0.587222474 C30.3062981,0.978704123 30.4531038,1.51699139 30.4531038,2.20208428 L30.4531038,5.72541912 C30.4531038,6.41051201 30.2573629,6.94879928 29.8658813,7.34028092 C29.4743996,7.73176257 28.9361124,7.9275034 28.2020843,7.9275034 C27.4680562,7.87856819 26.9297689,7.68282737 26.5382873,7.34028092 Z M29.2786588,6.80199366 C29.5233348,6.55731763 29.6212053,6.16583598 29.6212053,5.72541912 L29.6212053,2.20208428 C29.6212053,1.71273222 29.5233348,1.37018577 29.2786588,1.07657454 C29.0339828,0.831898505 28.6914363,0.685092886 28.2020843,0.685092886 C27.7127322,0.685092886 27.3212506,0.831898505 27.1255097,1.07657454 C26.8808337,1.32125057 26.7829633,1.71273222 26.7829633,2.20208428 L26.7829633,5.72541912 C26.7829633,6.21477118 26.8808337,6.55731763 27.1255097,6.80199366 C27.3701858,7.04666969 27.7127322,7.19347531 28.2020843,7.19347531 C28.6914363,7.19347531 29.0339828,7.04666969 29.2786588,6.80199366 Z" id="形状" fill-rule="nonzero"></path>
                                    <polygon id="路径" points="35.2020843 7.73176257 34.419121 7.73176257 34.419121 0.63615768 33 1.51699139 33 0.734028092 34.1255097 0 35.2020843 0"></polygon>
                                    <polygon id="路径" points="41.2020843 7.73176257 40.419121 7.73176257 40.419121 0.63615768 39 1.51699139 39 0.734028092 40.1255097 0 41.2020843 0"></polygon>
                                    <polygon id="路径" points="46.2020843 7.73176257 45.419121 7.73176257 45.419121 0.63615768 44 1.51699139 44 0.734028092 45.1255097 0 46.2020843 0"></polygon>
                                    <path d="M50.5382873,7.34028092 C50.1468056,6.94879928 50,6.41051201 50,5.72541912 L50,2.20208428 C50,1.51699139 50.1957408,0.978704123 50.5872225,0.587222474 C50.9787041,0.195740825 51.5169914,0 52.2510195,0 C52.9850476,0 53.5233348,0.195740825 53.9148165,0.587222474 C54.3062981,0.978704123 54.4531038,1.51699139 54.4531038,2.20208428 L54.4531038,5.72541912 C54.4531038,6.41051201 54.2573629,6.94879928 53.8658813,7.34028092 C53.4743996,7.73176257 52.9361124,7.9275034 52.2020843,7.9275034 C51.4680562,7.87856819 50.8808337,7.68282737 50.5382873,7.34028092 Z M53.2786588,6.80199366 C53.5233348,6.55731763 53.6212053,6.16583598 53.6212053,5.72541912 L53.6212053,2.20208428 C53.6212053,1.71273222 53.5233348,1.37018577 53.2786588,1.07657454 C53.0339828,0.831898505 52.6914363,0.685092886 52.2020843,0.685092886 C51.7127322,0.685092886 51.3212506,0.831898505 51.1255097,1.07657454 C50.8808337,1.32125057 50.7829633,1.71273222 50.7829633,2.20208428 L50.7829633,5.72541912 C50.7829633,6.21477118 50.8808337,6.55731763 51.1255097,6.80199366 C51.3701858,7.04666969 51.7127322,7.19347531 52.2020843,7.19347531 C52.6425011,7.19347531 53.0339828,7.04666969 53.2786588,6.80199366 Z" id="形状" fill-rule="nonzero"></path>
                                    <path d="M58.5382873,7.34028092 C58.1468056,6.94879928 58,6.41051201 58,5.72541912 L58,2.20208428 C58,1.51699139 58.1957408,0.978704123 58.5872225,0.587222474 C58.9787041,0.195740825 59.5169914,0 60.2510195,0 C60.9850476,0 61.5233348,0.195740825 61.9148165,0.587222474 C62.3062981,0.978704123 62.4531038,1.51699139 62.4531038,2.20208428 L62.4531038,5.72541912 C62.4531038,6.41051201 62.2573629,6.94879928 61.8658813,7.34028092 C61.4743996,7.73176257 60.9361124,7.9275034 60.2020843,7.9275034 C59.4680562,7.87856819 58.9297689,7.68282737 58.5382873,7.34028092 Z M61.2786588,6.80199366 C61.5233348,6.55731763 61.6212053,6.16583598 61.6212053,5.72541912 L61.6212053,2.20208428 C61.6212053,1.71273222 61.5233348,1.37018577 61.2786588,1.07657454 C61.0339828,0.831898505 60.6914363,0.685092886 60.2020843,0.685092886 C59.7127322,0.685092886 59.3212506,0.831898505 59.1255097,1.07657454 C58.8808337,1.32125057 58.7829633,1.71273222 58.7829633,2.20208428 L58.7829633,5.72541912 C58.7829633,6.21477118 58.8808337,6.55731763 59.1255097,6.80199366 C59.3701858,7.04666969 59.7127322,7.19347531 60.2020843,7.19347531 C60.6914363,7.19347531 61.0339828,7.04666969 61.2786588,6.80199366 Z" id="形状" fill-rule="nonzero"></path>
                                </g>
                                <g opacity="0.2" transform="translate(26.893068, 74.870865)" fill="#AB88FF">
                                    <path d="M0.538287268,7.34028092 C0.146805618,6.94879928 0,6.41051201 0,5.72541912 L0,2.20208428 C0,1.51699139 0.195740825,0.978704123 0.587222474,0.587222474 C0.978704123,0.195740825 1.51699139,0 2.25101948,0 C2.98504758,0 3.52333484,0.195740825 3.91481649,0.587222474 C4.30629814,0.978704123 4.45310376,1.51699139 4.45310376,2.20208428 L4.45310376,5.72541912 C4.45310376,6.41051201 4.25736294,6.94879928 3.86588129,7.34028092 C3.47439964,7.73176257 2.93611237,7.9275034 2.20208428,7.9275034 C1.46805618,7.9275034 0.929768917,7.73176257 0.538287268,7.34028092 Z M3.27865881,6.80199366 C3.52333484,6.55731763 3.62120526,6.16583598 3.62120526,5.72541912 L3.62120526,2.20208428 C3.62120526,1.71273222 3.52333484,1.37018577 3.27865881,1.07657454 C3.03398278,0.831898505 2.69143634,0.685092886 2.20208428,0.685092886 C1.71273222,0.685092886 1.32125057,0.831898505 1.12550974,1.07657454 C0.880833711,1.32125057 0.782963299,1.71273222 0.782963299,2.20208428 L0.782963299,5.72541912 C0.782963299,6.21477118 0.880833711,6.55731763 1.12550974,6.80199366 C1.37018577,7.04666969 1.71273222,7.19347531 2.20208428,7.19347531 C2.69143634,7.19347531 3.03398278,7.09560489 3.27865881,6.80199366 Z" id="形状" fill-rule="nonzero"></path>
                                    <polygon id="路径" points="10.2020843 7.73176257 9.41912098 7.73176257 9.41912098 0.63615768 8 1.51699139 8 0.734028092 9.12550974 0 10.2020843 0"></polygon>
                                    <polygon id="路径" points="15.2020843 7.73176257 14.419121 7.73176257 14.419121 0.63615768 13 1.51699139 13 0.734028092 14.1255097 0 15.2020843 0"></polygon>
                                    <path d="M19.5382873,7.34028092 C19.1468056,6.94879928 19,6.41051201 19,5.72541912 L19,2.20208428 C19,1.51699139 19.1957408,0.978704123 19.5872225,0.587222474 C19.9787041,0.195740825 20.5169914,0 21.2510195,0 C21.9850476,0 22.5233348,0.195740825 22.9148165,0.587222474 C23.3062981,0.978704123 23.4531038,1.51699139 23.4531038,2.20208428 L23.4531038,5.72541912 C23.4531038,6.41051201 23.2573629,6.94879928 22.8658813,7.34028092 C22.4743996,7.73176257 21.9361124,7.9275034 21.2020843,7.9275034 C20.4680562,7.9275034 19.9297689,7.73176257 19.5382873,7.34028092 Z M22.2786588,6.80199366 C22.5233348,6.55731763 22.6212053,6.16583598 22.6212053,5.72541912 L22.6212053,2.20208428 C22.6212053,1.71273222 22.5233348,1.37018577 22.2786588,1.07657454 C22.0339828,0.831898505 21.6914363,0.685092886 21.2020843,0.685092886 C20.7127322,0.685092886 20.3212506,0.831898505 20.1255097,1.07657454 C19.8808337,1.32125057 19.7829633,1.71273222 19.7829633,2.20208428 L19.7829633,5.72541912 C19.7829633,6.21477118 19.8808337,6.55731763 20.1255097,6.80199366 C20.3701858,7.04666969 20.7127322,7.19347531 21.2020843,7.19347531 C21.6914363,7.19347531 22.0339828,7.09560489 22.2786588,6.80199366 Z" id="形状" fill-rule="nonzero"></path>
                                    <path d="M27.5382873,7.34028092 C27.1468056,6.94879928 27,6.41051201 27,5.72541912 L27,2.20208428 C27,1.51699139 27.1957408,0.978704123 27.5872225,0.587222474 C27.9787041,0.195740825 28.5169914,0 29.2510195,0 C29.9850476,0 30.5233348,0.195740825 30.9148165,0.587222474 C31.3062981,0.978704123 31.4531038,1.51699139 31.4531038,2.20208428 L31.4531038,5.72541912 C31.4531038,6.41051201 31.2573629,6.94879928 30.8658813,7.34028092 C30.4743996,7.73176257 29.9361124,7.9275034 29.2020843,7.9275034 C28.4680562,7.9275034 27.9297689,7.73176257 27.5382873,7.34028092 Z M30.2786588,6.80199366 C30.5233348,6.55731763 30.6212053,6.16583598 30.6212053,5.72541912 L30.6212053,2.20208428 C30.6212053,1.71273222 30.5233348,1.37018577 30.2786588,1.07657454 C30.0339828,0.831898505 29.6914363,0.685092886 29.2020843,0.685092886 C28.7127322,0.685092886 28.3212506,0.831898505 28.1255097,1.07657454 C27.8808337,1.32125057 27.7829633,1.71273222 27.7829633,2.20208428 L27.7829633,5.72541912 C27.7829633,6.21477118 27.8808337,6.55731763 28.1255097,6.80199366 C28.3701858,7.04666969 28.7127322,7.19347531 29.2020843,7.19347531 C29.6914363,7.19347531 30.082918,7.09560489 30.2786588,6.80199366 Z" id="形状" fill-rule="nonzero"></path>
                                    <polygon id="路径" points="36.2020843 7.73176257 35.419121 7.73176257 35.419121 0.63615768 34 1.51699139 34 0.734028092 35.1255097 0 36.2020843 0"></polygon>
                                    <polygon id="路径" points="41.2020843 7.73176257 40.419121 7.73176257 40.419121 0.63615768 39 1.51699139 39 0.734028092 40.1255097 0 41.2020843 0"></polygon>
                                    <polygon id="路径" points="47.2020843 7.73176257 46.419121 7.73176257 46.419121 0.63615768 45 1.51699139 45 0.734028092 46.1255097 0 47.2020843 0"></polygon>
                                    <path d="M51.5382873,7.34028092 C51.1468056,6.94879928 51,6.41051201 51,5.72541912 L51,2.20208428 C51,1.51699139 51.1957408,0.978704123 51.5872225,0.587222474 C51.9787041,0.195740825 52.5169914,0 53.2510195,0 C53.9850476,0 54.5233348,0.195740825 54.9148165,0.587222474 C55.3062981,0.978704123 55.4531038,1.51699139 55.4531038,2.20208428 L55.4531038,5.72541912 C55.4531038,6.41051201 55.2573629,6.94879928 54.8658813,7.34028092 C54.4743996,7.73176257 53.9361124,7.9275034 53.2020843,7.9275034 C52.4680562,7.9275034 51.8808337,7.73176257 51.5382873,7.34028092 Z M54.2786588,6.80199366 C54.5233348,6.55731763 54.6212053,6.16583598 54.6212053,5.72541912 L54.6212053,2.20208428 C54.6212053,1.71273222 54.5233348,1.37018577 54.2786588,1.07657454 C54.0339828,0.831898505 53.6914363,0.685092886 53.2020843,0.685092886 C52.7127322,0.685092886 52.3212506,0.831898505 52.1255097,1.07657454 C51.8808337,1.32125057 51.7829633,1.71273222 51.7829633,2.20208428 L51.7829633,5.72541912 C51.7829633,6.21477118 51.8808337,6.55731763 52.1255097,6.80199366 C52.3701858,7.04666969 52.7127322,7.19347531 53.2020843,7.19347531 C53.6914363,7.19347531 54.0339828,7.09560489 54.2786588,6.80199366 Z" id="形状" fill-rule="nonzero"></path>
                                    <path d="M58.5382873,7.34028092 C58.1468056,6.94879928 58,6.41051201 58,5.72541912 L58,2.20208428 C58,1.51699139 58.1957408,0.978704123 58.5872225,0.587222474 C58.9787041,0.195740825 59.5169914,0 60.2510195,0 C60.9850476,0 61.5233348,0.195740825 61.9148165,0.587222474 C62.3062981,0.978704123 62.4531038,1.51699139 62.4531038,2.20208428 L62.4531038,5.72541912 C62.4531038,6.41051201 62.2573629,6.94879928 61.8658813,7.34028092 C61.4743996,7.73176257 60.9361124,7.9275034 60.2020843,7.9275034 C59.4680562,7.9275034 58.9297689,7.73176257 58.5382873,7.34028092 Z M61.2786588,6.80199366 C61.5233348,6.55731763 61.6212053,6.16583598 61.6212053,5.72541912 L61.6212053,2.20208428 C61.6212053,1.71273222 61.5233348,1.37018577 61.2786588,1.07657454 C61.0339828,0.831898505 60.6914363,0.685092886 60.2020843,0.685092886 C59.7127322,0.685092886 59.3212506,0.831898505 59.1255097,1.07657454 C58.8808337,1.32125057 58.7829633,1.71273222 58.7829633,2.20208428 L58.7829633,5.72541912 C58.7829633,6.21477118 58.8808337,6.55731763 59.1255097,6.80199366 C59.3701858,7.04666969 59.7127322,7.19347531 60.2020843,7.19347531 C60.6914363,7.19347531 61.0339828,7.09560489 61.2786588,6.80199366 Z" id="形状" fill-rule="nonzero"></path>
                                </g>
                                <g opacity="0.2" transform="translate(14.191210, 63.615768)" fill="#AB88FF">
                                    <path d="M0.538287268,7.34028092 C0.146805618,6.94879928 0,6.41051201 0,5.72541912 L0,2.20208428 C0,1.51699139 0.195740825,0.978704123 0.587222474,0.587222474 C0.978704123,0.195740825 1.51699139,0 2.25101948,0 C2.98504758,0 3.52333484,0.195740825 3.91481649,0.587222474 C4.30629814,0.978704123 4.45310376,1.51699139 4.45310376,2.20208428 L4.45310376,5.72541912 C4.45310376,6.41051201 4.25736294,6.94879928 3.86588129,7.34028092 C3.47439964,7.73176257 2.93611237,7.9275034 2.20208428,7.9275034 C1.46805618,7.9275034 0.880833711,7.73176257 0.538287268,7.34028092 Z M3.27865881,6.80199366 C3.52333484,6.55731763 3.62120526,6.16583598 3.62120526,5.72541912 L3.62120526,2.20208428 C3.62120526,1.71273222 3.52333484,1.37018577 3.27865881,1.07657454 C3.03398278,0.831898505 2.69143634,0.685092886 2.20208428,0.685092886 C1.71273222,0.685092886 1.32125057,0.831898505 1.12550974,1.07657454 C0.880833711,1.32125057 0.782963299,1.71273222 0.782963299,2.20208428 L0.782963299,5.72541912 C0.782963299,6.21477118 0.880833711,6.55731763 1.12550974,6.80199366 C1.37018577,7.04666969 1.71273222,7.19347531 2.20208428,7.19347531 C2.64250113,7.19347531 3.03398278,7.04666969 3.27865881,6.80199366 Z" id="形状" fill-rule="nonzero"></path>
                                    <polygon id="路径" points="9.20208428 7.73176257 8.41912098 7.73176257 8.41912098 0.63615768 7 1.51699139 7 0.734028092 8.12550974 0 9.20208428 0"></polygon>
                                    <polygon id="路径" points="14.2020843 7.73176257 13.419121 7.73176257 13.419121 0.63615768 12 1.51699139 12 0.734028092 13.1255097 0 14.2020843 0"></polygon>
                                    <path d="M18.5382873,7.34028092 C18.1468056,6.94879928 18,6.41051201 18,5.72541912 L18,2.20208428 C18,1.51699139 18.1957408,0.978704123 18.5872225,0.587222474 C18.9787041,0.195740825 19.5169914,0 20.2510195,0 C20.9850476,0 21.5233348,0.195740825 21.9148165,0.587222474 C22.3062981,0.978704123 22.4531038,1.51699139 22.4531038,2.20208428 L22.4531038,5.72541912 C22.4531038,6.41051201 22.2573629,6.94879928 21.8658813,7.34028092 C21.4743996,7.73176257 20.9361124,7.9275034 20.2020843,7.9275034 C19.419121,7.9275034 18.8808337,7.73176257 18.5382873,7.34028092 Z M21.2786588,6.80199366 C21.5233348,6.55731763 21.6212053,6.16583598 21.6212053,5.72541912 L21.6212053,2.20208428 C21.6212053,1.71273222 21.5233348,1.37018577 21.2786588,1.07657454 C21.0339828,0.831898505 20.6914363,0.685092886 20.2020843,0.685092886 C19.7127322,0.685092886 19.3212506,0.831898505 19.1255097,1.07657454 C18.8808337,1.32125057 18.7829633,1.71273222 18.7829633,2.20208428 L18.7829633,5.72541912 C18.7829633,6.21477118 18.8808337,6.55731763 19.1255097,6.80199366 C19.3701858,7.04666969 19.7127322,7.19347531 20.2020843,7.19347531 C20.6425011,7.19347531 21.0339828,7.04666969 21.2786588,6.80199366 Z" id="形状" fill-rule="nonzero"></path>
                                    <path d="M26.5382873,7.34028092 C26.1468056,6.94879928 26,6.41051201 26,5.72541912 L26,2.20208428 C26,1.51699139 26.1957408,0.978704123 26.5872225,0.587222474 C26.9787041,0.195740825 27.5169914,0 28.2510195,0 C28.9850476,0 29.5233348,0.195740825 29.9148165,0.587222474 C30.3062981,0.978704123 30.4531038,1.51699139 30.4531038,2.20208428 L30.4531038,5.72541912 C30.4531038,6.41051201 30.2573629,6.94879928 29.8658813,7.34028092 C29.4743996,7.73176257 28.9361124,7.9275034 28.2020843,7.9275034 C27.4680562,7.9275034 26.9297689,7.73176257 26.5382873,7.34028092 Z M29.2786588,6.80199366 C29.5233348,6.55731763 29.6212053,6.16583598 29.6212053,5.72541912 L29.6212053,2.20208428 C29.6212053,1.71273222 29.5233348,1.37018577 29.2786588,1.07657454 C29.0339828,0.831898505 28.6914363,0.685092886 28.2020843,0.685092886 C27.7127322,0.685092886 27.3212506,0.831898505 27.1255097,1.07657454 C26.8808337,1.32125057 26.7829633,1.71273222 26.7829633,2.20208428 L26.7829633,5.72541912 C26.7829633,6.21477118 26.8808337,6.55731763 27.1255097,6.80199366 C27.3701858,7.04666969 27.7127322,7.19347531 28.2020843,7.19347531 C28.6914363,7.19347531 29.0339828,7.04666969 29.2786588,6.80199366 Z" id="形状" fill-rule="nonzero"></path>
                                    <polygon id="路径" points="35.2020843 7.73176257 34.419121 7.73176257 34.419121 0.63615768 33 1.51699139 33 0.734028092 34.1255097 0 35.2020843 0"></polygon>
                                    <polygon id="路径" points="41.2020843 7.73176257 40.419121 7.73176257 40.419121 0.63615768 39 1.51699139 39 0.734028092 40.1255097 0 41.2020843 0 41.2020843 7.73176257"></polygon>
                                    <polygon id="路径" points="46.2020843 7.73176257 45.419121 7.73176257 45.419121 0.63615768 44 1.51699139 44 0.734028092 45.1255097 0 46.2020843 0"></polygon>
                                    <path d="M50.5382873,7.34028092 C50.1468056,6.94879928 50,6.41051201 50,5.72541912 L50,2.20208428 C50,1.51699139 50.1957408,0.978704123 50.5872225,0.587222474 C50.9787041,0.195740825 51.5169914,0 52.2510195,0 C52.9850476,0 53.5233348,0.195740825 53.9148165,0.587222474 C54.3062981,0.978704123 54.4531038,1.51699139 54.4531038,2.20208428 L54.4531038,5.72541912 C54.4531038,6.41051201 54.2573629,6.94879928 53.8658813,7.34028092 C53.4743996,7.73176257 52.9361124,7.9275034 52.2020843,7.9275034 C51.419121,7.9275034 50.8808337,7.73176257 50.5382873,7.34028092 Z M53.2786588,6.80199366 C53.5233348,6.55731763 53.6212053,6.16583598 53.6212053,5.72541912 L53.6212053,2.20208428 C53.6212053,1.71273222 53.5233348,1.37018577 53.2786588,1.07657454 C53.0339828,0.831898505 52.6914363,0.685092886 52.2020843,0.685092886 C51.7127322,0.685092886 51.3212506,0.831898505 51.1255097,1.07657454 C50.8808337,1.32125057 50.7829633,1.71273222 50.7829633,2.20208428 L50.7829633,5.72541912 C50.7829633,6.21477118 50.8808337,6.55731763 51.1255097,6.80199366 C51.3701858,7.04666969 51.7127322,7.19347531 52.2020843,7.19347531 C52.6425011,7.19347531 53.0339828,7.04666969 53.2786588,6.80199366 Z" id="形状" fill-rule="nonzero"></path>
                                    <path d="M58.5382873,7.34028092 C58.1468056,6.94879928 58,6.41051201 58,5.72541912 L58,2.20208428 C58,1.51699139 58.1957408,0.978704123 58.5872225,0.587222474 C58.9787041,0.195740825 59.5169914,0 60.2510195,0 C60.9850476,0 61.5233348,0.195740825 61.9148165,0.587222474 C62.3062981,0.978704123 62.4531038,1.51699139 62.4531038,2.20208428 L62.4531038,5.72541912 C62.4531038,6.41051201 62.2573629,6.94879928 61.8658813,7.34028092 C61.4743996,7.73176257 60.9361124,7.9275034 60.2020843,7.9275034 C59.4680562,7.9275034 58.9297689,7.73176257 58.5382873,7.34028092 Z M61.2786588,6.80199366 C61.5233348,6.55731763 61.6212053,6.16583598 61.6212053,5.72541912 L61.6212053,2.20208428 C61.6212053,1.71273222 61.5233348,1.37018577 61.2786588,1.07657454 C61.0339828,0.831898505 60.6914363,0.685092886 60.2020843,0.685092886 C59.7127322,0.685092886 59.3212506,0.831898505 59.1255097,1.07657454 C58.8808337,1.32125057 58.7829633,1.71273222 58.7829633,2.20208428 L58.7829633,5.72541912 C58.7829633,6.21477118 58.8808337,6.55731763 59.1255097,6.80199366 C59.3701858,7.04666969 59.7127322,7.19347531 60.2020843,7.19347531 C60.6914363,7.19347531 61.0339828,7.04666969 61.2786588,6.80199366 Z" id="形状" fill-rule="nonzero"></path>
                                </g>
                                <g opacity="0.5" transform="translate(22.978251, 0.000000)" id="路径" stroke="#7843DD" stroke-linecap="round" stroke-linejoin="round" stroke-width="0.5">
                                    <path d="M1,2.78930675 C1.58722247,1.17444495 3.10421386,0 4.91481649,0 C5.94245582,0 6.87222474,0.391481649 7.60625283,0.978704123"></path>
                                    <path d="M3.42546443,8.11055732 C1.46805618,7.76801087 0,6.05527866 0,4"></path>
                                    <path d="M8.85953783,2 C9.05527866,2.48935206 9.15314907,3.02763933 9.15314907,3.6148618 C9.15314907,5.1807884 8.27231536,6.55097417 7,7.28500227"></path>
                                    <path d="M1,4.37652923 C1,2.85953783 1.92976892,1.58722247 3.25101948,1"></path>
                                    <path d="M6.92115995,7.07657454 C6.23606706,7.76166742 5.35523335,8.15314907 4.32759402,8.15314907 C2.85953783,8.15314907 1.58722247,7.27231536 1,6"></path>
                                    <path d="M5,0 C7.00634345,0 8.67014046,1.6148618 8.67014046,3.67014046"></path>
                                    <path d="M3.84249298,6.20208428 C3.1574001,5.66379701 2.86378886,4.7829633 3.05952969,4"></path>
                                    <path d="M6.54463072,4 C6.64250113,4.53828727 6.49569551,5.12550974 6.15314907,5.5659266 C5.66379701,6.25101948 4.7829633,6.54463072 4,6.3978251"></path>
                                    <path d="M3,2.84913768 C3.68509289,1.91936876 5.05527866,1.72362794 5.98504758,2.40872083"></path>
                                </g>
                                <g opacity="0.3" transform="translate(95.891708, 66.551880)" id="路径" stroke="#7843DD" stroke-linecap="round" stroke-linejoin="round" stroke-width="0.5">
                                    <path d="M1,2.54463072 C1.53828727,1.07657454 2.90847304,0 4.57227005,0 C5.50203897,0 6.38287268,0.342546443 7.01903036,0.929768917"></path>
                                    <path d="M3.08291799,7.71907567 C1.32125057,7.37652923 0,5.85953783 0,4"></path>
                                    <path d="M7.66379701,2 C7.85953783,2.44041686 7.95740825,2.92976892 7.95740825,3.41912098 C7.95740825,4.83824196 7.17444495,6.11055732 6,6.746715"></path>
                                    <path d="M1,4.03398278 C1,2.66379701 1.8318985,1.48935206 3.00634345,1"></path>
                                    <path d="M6.33393747,5.97870412 C5.746715,6.5659266 4.91481649,6.95740825 3.98504758,6.95740825 C2.66379701,6.95740825 1.48935206,6.17444495 1,5"></path>
                                    <path d="M4,0 C5.81060263,0 7.32759402,1.46805618 7.32759402,3.32759402"></path>
                                    <path d="M2.77531717,5.00634345 C2.13915949,4.51699139 1.89448346,3.73402809 2.04128908,3"></path>
                                    <path d="M6.29995469,3 C6.3488899,3.48935206 6.25101948,4.02763933 5.95740825,4.41912098 C5.51699139,5.05527866 4.73402809,5.29995469 4,5.15314907"></path>
                                    <path d="M3,2.76809081 C3.63615768,1.9361923 4.85953783,1.74045148 5.69143634,2.37660916"></path>
                                </g>
                                <circle id="椭圆形" fill="#7843DD" opacity="0.3" cx="57.8595378" cy="2.85953783" r="1.85953783"></circle>
                                <circle id="椭圆形" fill="#7843DD" opacity="0.2" cx="1.85953783" cy="56.8595378" r="1.85953783"></circle>
                                <circle id="椭圆形" fill="#7843DD" opacity="0.53" cx="15.0339828" cy="17.0339828" r="3.03398278"></circle>
                                <circle id="椭圆形" stroke="#7843DD" stroke-width="2" opacity="0.5" cx="93.5169914" cy="47.5169914" r="1.51699139"></circle>
                            </g>
                            <g transform="translate(30.318532, 28.382420)">
                                <path d="M6,20.3570458 L6,0.831898505 C6,0.391481649 6.39148165,0 6.8318985,0 L38.9333937,0" id="路径" stroke="#7843DD" stroke-width="2" stroke-linecap="round" stroke-linejoin="round"></path>
                                <path d="M42.7014046,0 L48.0842773,0 C48.5736294,0 48.9161758,0.342546443 48.9161758,0.831898505 L48.9161758,27.2569098 C48.9161758,27.6973267 48.5246942,28.0888083 48.0842773,28.0888083 L48.0842773,28.0888083 L6.8318985,28.0888083 C6.34254644,28.0888083 6,27.7462619 6,27.2569098 L6,24.3207975" id="路径" stroke="#7843DD" stroke-width="2" stroke-linecap="round" stroke-linejoin="round"></path>
                                <path d="M45.4627893,43.2677843 L0.833881279,43.2677843 C0.540270042,43.2677843 0.295594011,43.1209787 0.148788393,42.9252379 C0.00198277405,42.7294971 -0.0469524321,42.4358858 0.0509179802,42.1912098 L5.48272586,28.5382873 C5.62953148,28.1957408 5.92314272,28 6.26568916,28 L47.4691328,28 C47.8116792,28 48.1542256,28.1957408 48.252096,28.5382873 L53.6839039,42.1912098 C53.7817743,42.4358858 53.7817743,42.7294971 53.5860335,42.9252379 C53.3902927,43.1699139 53.0966815,43.2677843 52.8030702,43.2677843 L52.8030702,43.2677843 L49.3776058,43.2677843" id="路径" stroke="#7843DD" stroke-width="2" stroke-linecap="round" stroke-linejoin="round"></path>
                                <path d="M33.2550974,39.8808337 L22.4404169,39.8808337 C22.1957408,39.8808337 22,39.7340281 22,39.4404169 C22,39.1468056 22.1468056,39 22.4404169,39 L33.2550974,39 C33.4997734,39 33.6955143,39.1468056 33.6955143,39.4404169 C33.6955143,39.7340281 33.4997734,39.8808337 33.2550974,39.8808337 L33.2550974,39.8808337 Z" id="路径" fill="#7843DD"></path>
                                <path d="M46.4780245,3 L11.7340281,3 C11.3425464,3 11,3.29361124 11,3.68509289 L11,25.55913 C11,25.9506117 11.3425464,26.2442229 11.7340281,26.2442229 L46.4780245,26.2442229 C46.8695061,26.2442229 47.2120526,25.9506117 47.2120526,25.55913 L47.2120526,3.68509289 C47.2120526,3.29361124 46.8695061,3 46.4780245,3 Z M35.0761214,18.6103308 C34.9293158,18.8550068 34.6357046,19.0996828 34.2442229,19.148618 C33.2655188,19.3932941 31.7485274,19.1975532 30.0847304,18.6103308 C29.4975079,21.2528319 28.5188038,22.8676937 27.5400997,22.8676937 C26.6103308,22.8676937 25.5826914,21.2528319 24.995469,18.6103308 C23.2827367,19.1975532 21.7657454,19.4422293 20.7870412,19.1975532 C20.3466244,19.0507476 20.1019483,18.903942 19.9551427,18.659266 C19.4657907,17.8273675 20.3955596,16.0167648 22.4508382,14.1082918 C20.3466244,12.1998188 19.3679203,10.3402809 19.9062075,9.50838242 C20.0530131,9.26370639 20.3466244,9.01903036 20.738106,8.97009515 C21.0317173,8.92115995 21.3253285,8.87222474 21.6678749,8.87222474 C22.5976439,8.87222474 23.7231536,9.11690077 24.9465338,9.50838242 C25.5337562,6.81694608 26.5613956,5.15314907 27.4911645,5.15314907 C28.4698686,5.15314907 29.4975079,6.81694608 30.0357952,9.50838242 C31.2591754,9.06796556 32.3846851,8.82328953 33.314454,8.82328953 C33.6570005,8.82328953 33.9506117,8.87222474 34.2442229,8.97009515 C34.6846398,9.11690077 34.9293158,9.26370639 35.0761214,9.50838242 C35.5654735,10.3402809 34.6357046,12.1508836 32.5804259,14.0593566 C34.6357046,15.9678296 35.5654735,17.7784323 35.0761214,18.6103308 Z" id="形状" fill="#7843DD" fill-rule="nonzero" opacity="0.3"></path>
                                <path d="M45.1418215,2 L8.73402809,2 C8.34254644,2 8,2.29361124 8,2.68509289 L8,25.3910285 C8,25.7825102 8.34254644,26.0761214 8.73402809,26.0761214 L45.1418215,26.0761214 C45.5333031,26.0761214 45.8758496,25.7825102 45.8758496,25.3910285 L45.8758496,2.68509289 C45.8758496,2.29361124 45.5333031,2 45.1418215,2 Z M35.1101042,19.4209334 C34.9632986,19.6656094 34.6696874,19.9102855 34.2782057,19.9592207 C33.2995016,20.2038967 31.7825102,20.0081559 30.1187132,19.4209334 C29.5314907,22.0634345 28.5527866,23.6782963 27.5740825,23.6782963 C26.6443135,23.6782963 25.6166742,22.0634345 25.0294517,19.4209334 C23.3167195,20.0081559 21.7997281,20.2528319 20.821024,20.0081559 C20.3806072,19.8613502 20.1359311,19.7145446 19.9891255,19.4698686 C19.4997734,18.6379701 20.4295424,16.8273675 22.484821,14.9188944 C20.3806072,13.0104214 19.401903,11.1508836 19.9401903,10.318985 C20.0869959,10.074309 20.3806072,9.82963299 20.7720888,9.78069778 C21.0657,9.73176257 21.3593113,9.68282737 21.7018577,9.68282737 C22.6316266,9.68282737 23.7571364,9.9275034 24.9805165,10.318985 C25.567739,7.62754871 26.5953783,5.9637517 27.5251473,5.9637517 C28.5038514,5.9637517 29.5314907,7.62754871 30.069778,10.318985 C31.2931581,9.87856819 32.4186679,9.63389216 33.3484368,9.63389216 C33.6909832,9.63389216 33.9845945,9.68282737 34.2782057,9.78069778 C34.7186226,9.9275034 34.9632986,10.074309 35.1101042,10.318985 C35.5994563,11.1508836 34.6696874,12.9614862 32.6144087,14.8699592 C34.6696874,16.7784323 35.5994563,18.5890349 35.1101042,19.4209334 Z" id="形状" fill="#7843DD" fill-rule="nonzero" opacity="0.15"></path>
                                <g transform="translate(19.084730, 6.361577)" id="路径" stroke="#7843DD" stroke-width="2">
                                    <path d="M7.83824196,0 C6.46805618,0 5,3.42546443 5,8.36792025 C5,13.3103761 6.51699139,16.7358405 7.83824196,16.7358405 C9.20842773,16.7358405 10.6764839,13.3103761 10.6764839,8.36792025 C10.7254191,3.42546443 9.20842773,0 7.83824196,0 L7.83824196,0 Z"></path>
                                    <path d="M2,12.8849116 C3.76166742,12.7870412 6.25736294,11.9062075 8.70412324,10.4381513 C12.9614862,7.89352062 15.1146353,4.81060263 14.4295424,3.63615768 C14.2827367,3.39148165 14.0380607,3.24467603 13.6465791,3.09787041 C13.3529678,3 13.1082918,3 12.7657454,3 L12.7657454,3 C11.49343,3 9.73176257,3.48935206 7.92115995,4.32125057" stroke-linecap="round" stroke-linejoin="round"></path>
                                    <path d="M5.85076614,6 C1.5934032,8.54463072 -0.559745868,11.6275487 0.125347018,12.8019937" stroke-linecap="round" stroke-linejoin="round"></path>
                                    <path d="M14.8912551,12.1998188 C15.576348,11.0253738 13.4231989,7.94245582 9.16583598,5.3978251 C6.9637517,4.07657454 4.71273222,3.24467603 3,3" stroke-linecap="round" stroke-linejoin="round"></path>
                                    <path d="M0.908310317,3 C0.516828667,3.09787041 0.272152637,3.29361124 0.125347018,3.53828727 C-0.559745868,4.71273222 1.5934032,7.7956502 5.85076614,10.3402809 C8.34646165,11.8572723 10.9400276,12.7870412 12.701695,12.8359764" stroke-linecap="round" stroke-linejoin="round"></path>
                                </g>
                            </g>
                        </g>
                    </g>
                </g>
            </g>
        </g>
    </g>
</svg>