<?xml version="1.0" encoding="UTF-8"?>
<svg width="108px" height="108px" viewBox="0 0 108 108" version="1.1" xmlns="http://www.w3.org/2000/svg" xmlns:xlink="http://www.w3.org/1999/xlink">
    <!-- Generator: Sketch 56.2 (81672) - https://sketch.com -->
    <title>个性标识</title>
    <desc>Created with Sketch.</desc>
    <g id="6.0.0个人中心" stroke="none" stroke-width="1" fill="none" fill-rule="evenodd">
        <g id="6.0.0个人中心_成为会员" transform="translate(-713.000000, -855.000000)">
            <g id="分组-10" transform="translate(713.000000, 855.000000)">
                <g id="分组-23">
                    <g>
                        <g id="分组" transform="translate(1.000000, 12.000000)">
                            <g opacity="0.3" transform="translate(14.191210, 18.616674)" fill="#FFAC79">
                                <g transform="translate(12.255097, 0.000000)">
                                    <path d="M0.538287268,7.34028092 C0.146805618,6.94879928 0,6.41051201 0,5.72541912 L0,2.20208428 C0,1.51699139 0.195740825,0.978704123 0.587222474,0.587222474 C0.978704123,0.195740825 1.51699139,0 2.25101948,0 C2.98504758,0 3.52333484,0.195740825 3.91481649,0.587222474 C4.30629814,0.978704123 4.45310376,1.51699139 4.45310376,2.20208428 L4.45310376,5.72541912 C4.45310376,6.41051201 4.25736294,6.94879928 3.86588129,7.34028092 C3.47439964,7.73176257 2.93611237,7.9275034 2.20208428,7.9275034 C1.46805618,7.9275034 0.929768917,7.73176257 0.538287268,7.34028092 Z M3.27865881,6.85092886 C3.52333484,6.60625283 3.62120526,6.21477118 3.62120526,5.77435433 L3.62120526,2.25101948 C3.62120526,1.76166742 3.52333484,1.41912098 3.27865881,1.12550974 C3.03398278,0.831898505 2.69143634,0.734028092 2.20208428,0.734028092 C1.71273222,0.734028092 1.32125057,0.880833711 1.12550974,1.12550974 C0.929768917,1.37018577 0.782963299,1.76166742 0.782963299,2.25101948 L0.782963299,5.77435433 C0.782963299,6.26370639 0.880833711,6.60625283 1.12550974,6.85092886 C1.37018577,7.09560489 1.71273222,7.24241051 2.20208428,7.24241051 C2.69143634,7.19347531 3.03398278,7.09560489 3.27865881,6.85092886 Z" id="形状" fill-rule="nonzero"></path>
                                    <polygon id="路径" points="9.20208428 7.73176257 8.41912098 7.73176257 8.41912098 0.63615768 7 1.51699139 7 0.734028092 8.12550974 0 9.20208428 0"></polygon>
                                    <polygon id="路径" points="14.2020843 7.73176257 13.419121 7.73176257 13.419121 0.63615768 12 1.51699139 12 0.734028092 13.1255097 0 14.2020843 0"></polygon>
                                    <path d="M18.5382873,7.34028092 C18.1468056,6.94879928 18,6.41051201 18,5.72541912 L18,2.20208428 C18,1.51699139 18.1957408,0.978704123 18.5872225,0.587222474 C18.9787041,0.195740825 19.5169914,0 20.2510195,0 C20.9850476,0 21.5233348,0.195740825 21.9148165,0.587222474 C22.3062981,0.978704123 22.4531038,1.51699139 22.4531038,2.20208428 L22.4531038,5.72541912 C22.4531038,6.41051201 22.2573629,6.94879928 21.8658813,7.34028092 C21.4743996,7.73176257 20.9361124,7.9275034 20.2020843,7.9275034 C19.4680562,7.9275034 18.8808337,7.73176257 18.5382873,7.34028092 Z M21.2786588,6.85092886 C21.5233348,6.60625283 21.6212053,6.21477118 21.6212053,5.77435433 L21.6212053,2.25101948 C21.6212053,1.76166742 21.5233348,1.41912098 21.2786588,1.12550974 C21.0339828,0.880833711 20.6914363,0.734028092 20.2020843,0.734028092 C19.7127322,0.734028092 19.3212506,0.880833711 19.1255097,1.12550974 C18.8808337,1.37018577 18.7829633,1.76166742 18.7829633,2.25101948 L18.7829633,5.77435433 C18.7829633,6.26370639 18.8808337,6.60625283 19.1255097,6.85092886 C19.3701858,7.09560489 19.7127322,7.24241051 20.2020843,7.24241051 C20.6914363,7.19347531 21.0339828,7.09560489 21.2786588,6.85092886 Z" id="形状" fill-rule="nonzero"></path>
                                    <path d="M26.5382873,7.34028092 C26.1468056,6.94879928 26,6.41051201 26,5.72541912 L26,2.20208428 C26,1.51699139 26.1957408,0.978704123 26.5872225,0.587222474 C26.9787041,0.195740825 27.5169914,0 28.2510195,0 C28.9850476,0 29.5233348,0.195740825 29.9148165,0.587222474 C30.3062981,0.978704123 30.4531038,1.51699139 30.4531038,2.20208428 L30.4531038,5.72541912 C30.4531038,6.41051201 30.2573629,6.94879928 29.8658813,7.34028092 C29.4743996,7.73176257 28.9361124,7.9275034 28.2020843,7.9275034 C27.4680562,7.9275034 26.9297689,7.73176257 26.5382873,7.34028092 Z M29.2786588,6.85092886 C29.5233348,6.60625283 29.6212053,6.21477118 29.6212053,5.77435433 L29.6212053,2.25101948 C29.6212053,1.76166742 29.5233348,1.41912098 29.2786588,1.12550974 C29.0339828,0.831898505 28.6914363,0.734028092 28.2020843,0.734028092 C27.7127322,0.734028092 27.3212506,0.880833711 27.1255097,1.12550974 C26.9297689,1.37018577 26.7829633,1.76166742 26.7829633,2.25101948 L26.7829633,5.77435433 C26.7829633,6.26370639 26.8808337,6.60625283 27.1255097,6.85092886 C27.3701858,7.09560489 27.7127322,7.24241051 28.2020843,7.24241051 C28.6914363,7.24241051 29.0339828,7.09560489 29.2786588,6.85092886 Z" id="形状" fill-rule="nonzero"></path>
                                    <polygon id="路径" points="35.2020843 7.73176257 34.419121 7.73176257 34.419121 0.63615768 33 1.51699139 33 0.734028092 34.1255097 0 35.2020843 0"></polygon>
                                    <polygon id="路径" points="41.2020843 7.73176257 40.419121 7.73176257 40.419121 0.63615768 39 1.51699139 39 0.734028092 40.1255097 0 41.2020843 0"></polygon>
                                    <polygon id="路径" points="46.2020843 7.73176257 45.419121 7.73176257 45.419121 0.63615768 44 1.51699139 44 0.734028092 45.1255097 0 46.2020843 0"></polygon>
                                    <path d="M50.5382873,7.34028092 C50.1468056,6.94879928 50,6.41051201 50,5.72541912 L50,2.20208428 C50,1.51699139 50.1957408,0.978704123 50.5872225,0.587222474 C50.9787041,0.195740825 51.5169914,0 52.2510195,0 C52.9850476,0 53.5233348,0.195740825 53.9148165,0.587222474 C54.3062981,0.978704123 54.4531038,1.51699139 54.4531038,2.20208428 L54.4531038,5.72541912 C54.4531038,6.41051201 54.2573629,6.94879928 53.8658813,7.34028092 C53.4743996,7.73176257 52.9361124,7.9275034 52.2020843,7.9275034 C51.4680562,7.9275034 50.8808337,7.73176257 50.5382873,7.34028092 Z M53.2786588,6.85092886 C53.5233348,6.60625283 53.6212053,6.21477118 53.6212053,5.77435433 L53.6212053,2.25101948 C53.6212053,1.76166742 53.5233348,1.41912098 53.2786588,1.12550974 C53.0339828,0.831898505 52.6914363,0.734028092 52.2020843,0.734028092 C51.7127322,0.734028092 51.3212506,0.880833711 51.1255097,1.12550974 C50.9297689,1.37018577 50.7829633,1.76166742 50.7829633,2.25101948 L50.7829633,5.77435433 C50.7829633,6.26370639 50.8808337,6.60625283 51.1255097,6.85092886 C51.3701858,7.09560489 51.7127322,7.24241051 52.2020843,7.24241051 C52.6914363,7.19347531 53.0339828,7.09560489 53.2786588,6.85092886 Z" id="形状" fill-rule="nonzero"></path>
                                    <path d="M57.5382873,7.34028092 C57.1468056,6.94879928 57,6.41051201 57,5.72541912 L57,2.20208428 C57,1.51699139 57.1957408,0.978704123 57.5872225,0.587222474 C57.9787041,0.195740825 58.5169914,0 59.2510195,0 C59.9850476,0 60.5233348,0.195740825 60.9148165,0.587222474 C61.3062981,0.978704123 61.4531038,1.51699139 61.4531038,2.20208428 L61.4531038,5.72541912 C61.4531038,6.41051201 61.2573629,6.94879928 60.8658813,7.34028092 C60.4743996,7.73176257 59.9361124,7.9275034 59.2020843,7.9275034 C58.4680562,7.9275034 57.9297689,7.73176257 57.5382873,7.34028092 Z M60.2786588,6.85092886 C60.5233348,6.60625283 60.6212053,6.21477118 60.6212053,5.77435433 L60.6212053,2.25101948 C60.6212053,1.76166742 60.5233348,1.41912098 60.2786588,1.12550974 C60.0339828,0.880833711 59.6914363,0.734028092 59.2020843,0.734028092 C58.7127322,0.734028092 58.3212506,0.880833711 58.1255097,1.12550974 C57.8808337,1.37018577 57.7829633,1.76166742 57.7829633,2.25101948 L57.7829633,5.77435433 C57.7829633,6.26370639 57.8808337,6.60625283 58.1255097,6.85092886 C58.3701858,7.09560489 58.7127322,7.24241051 59.2020843,7.24241051 C59.6914363,7.19347531 60.0339828,7.09560489 60.2786588,6.85092886 Z" id="形状" fill-rule="nonzero"></path>
                                </g>
                                <g transform="translate(19.084730, 12.723154)">
                                    <path d="M0.538287268,7.34028092 C0.146805618,6.94879928 0,6.41051201 0,5.72541912 L0,2.20208428 C0,1.51699139 0.195740825,0.978704123 0.587222474,0.587222474 C0.978704123,0.195740825 1.51699139,0 2.25101948,0 C2.98504758,0 3.52333484,0.195740825 3.91481649,0.587222474 C4.30629814,0.978704123 4.45310376,1.51699139 4.45310376,2.20208428 L4.45310376,5.72541912 C4.45310376,6.41051201 4.25736294,6.94879928 3.86588129,7.34028092 C3.47439964,7.73176257 2.93611237,7.9275034 2.20208428,7.9275034 C1.46805618,7.9275034 0.929768917,7.73176257 0.538287268,7.34028092 Z M3.27865881,6.80199366 C3.52333484,6.55731763 3.62120526,6.16583598 3.62120526,5.72541912 L3.62120526,2.20208428 C3.62120526,1.71273222 3.52333484,1.37018577 3.27865881,1.07657454 C3.03398278,0.831898505 2.69143634,0.685092886 2.20208428,0.685092886 C1.71273222,0.685092886 1.32125057,0.831898505 1.12550974,1.07657454 C0.880833711,1.32125057 0.782963299,1.71273222 0.782963299,2.20208428 L0.782963299,5.72541912 C0.782963299,6.21477118 0.880833711,6.55731763 1.12550974,6.80199366 C1.37018577,7.04666969 1.71273222,7.19347531 2.20208428,7.19347531 C2.69143634,7.19347531 3.03398278,7.09560489 3.27865881,6.80199366 Z" id="形状" fill-rule="nonzero"></path>
                                    <polygon id="路径" points="10.2020843 7.73176257 9.41912098 7.73176257 9.41912098 0.63615768 8 1.51699139 8 0.734028092 9.12550974 0 10.2020843 0"></polygon>
                                    <polygon id="路径" points="15.2020843 7.73176257 14.419121 7.73176257 14.419121 0.63615768 13 1.51699139 13 0.734028092 14.1255097 0 15.2020843 0"></polygon>
                                    <path d="M19.5382873,7.34028092 C19.1468056,6.94879928 19,6.41051201 19,5.72541912 L19,2.20208428 C19,1.51699139 19.1957408,0.978704123 19.5872225,0.587222474 C19.9787041,0.195740825 20.5169914,0 21.2510195,0 C21.9850476,0 22.5233348,0.195740825 22.9148165,0.587222474 C23.3062981,0.978704123 23.4531038,1.51699139 23.4531038,2.20208428 L23.4531038,5.72541912 C23.4531038,6.41051201 23.2573629,6.94879928 22.8658813,7.34028092 C22.4743996,7.73176257 21.9361124,7.9275034 21.2020843,7.9275034 C20.4680562,7.9275034 19.8808337,7.73176257 19.5382873,7.34028092 Z M22.2786588,6.80199366 C22.5233348,6.55731763 22.6212053,6.16583598 22.6212053,5.72541912 L22.6212053,2.20208428 C22.6212053,1.71273222 22.5233348,1.37018577 22.2786588,1.07657454 C22.0339828,0.831898505 21.6914363,0.685092886 21.2020843,0.685092886 C20.7127322,0.685092886 20.3212506,0.831898505 20.1255097,1.07657454 C19.8808337,1.32125057 19.7829633,1.71273222 19.7829633,2.20208428 L19.7829633,5.72541912 C19.7829633,6.21477118 19.8808337,6.55731763 20.1255097,6.80199366 C20.3701858,7.04666969 20.7127322,7.19347531 21.2020843,7.19347531 C21.6425011,7.19347531 22.0339828,7.09560489 22.2786588,6.80199366 Z" id="形状" fill-rule="nonzero"></path>
                                    <path d="M26.5382873,7.34028092 C26.1468056,6.94879928 26,6.41051201 26,5.72541912 L26,2.20208428 C26,1.51699139 26.1957408,0.978704123 26.5872225,0.587222474 C26.9787041,0.195740825 27.5169914,0 28.2510195,0 C28.9850476,0 29.5233348,0.195740825 29.9148165,0.587222474 C30.3062981,0.978704123 30.4531038,1.51699139 30.4531038,2.20208428 L30.4531038,5.72541912 C30.4531038,6.41051201 30.2573629,6.94879928 29.8658813,7.34028092 C29.4743996,7.73176257 28.9361124,7.9275034 28.2020843,7.9275034 C27.4680562,7.9275034 26.9297689,7.73176257 26.5382873,7.34028092 Z M29.2786588,6.80199366 C29.5233348,6.55731763 29.6212053,6.16583598 29.6212053,5.72541912 L29.6212053,2.20208428 C29.6212053,1.71273222 29.5233348,1.37018577 29.2786588,1.07657454 C29.0339828,0.831898505 28.6914363,0.685092886 28.2020843,0.685092886 C27.7127322,0.685092886 27.3212506,0.831898505 27.1255097,1.07657454 C26.8808337,1.32125057 26.7829633,1.71273222 26.7829633,2.20208428 L26.7829633,5.72541912 C26.7829633,6.21477118 26.8808337,6.55731763 27.1255097,6.80199366 C27.3701858,7.04666969 27.7127322,7.19347531 28.2020843,7.19347531 C28.6914363,7.19347531 29.0339828,7.09560489 29.2786588,6.80199366 Z" id="形状" fill-rule="nonzero"></path>
                                    <polygon id="路径" points="36.2020843 7.73176257 35.419121 7.73176257 35.419121 0.63615768 34 1.51699139 34 0.734028092 35.1255097 0 36.2020843 0"></polygon>
                                    <polygon id="路径" points="41.2020843 7.73176257 40.419121 7.73176257 40.419121 0.63615768 39 1.51699139 39 0.734028092 40.1255097 0 41.2020843 0"></polygon>
                                    <polygon id="路径" points="47.2020843 7.73176257 46.419121 7.73176257 46.419121 0.63615768 45 1.51699139 45 0.734028092 46.1255097 0 47.2020843 0"></polygon>
                                    <path d="M50.5382873,7.34028092 C50.1468056,6.94879928 50,6.41051201 50,5.72541912 L50,2.20208428 C50,1.51699139 50.1957408,0.978704123 50.5872225,0.587222474 C50.9787041,0.195740825 51.5169914,0 52.2510195,0 C52.9850476,0 53.5233348,0.195740825 53.9148165,0.587222474 C54.3062981,0.978704123 54.4531038,1.51699139 54.4531038,2.20208428 L54.4531038,5.72541912 C54.4531038,6.41051201 54.2573629,6.94879928 53.8658813,7.34028092 C53.4743996,7.73176257 52.9361124,7.9275034 52.2020843,7.9275034 C51.4680562,7.9275034 50.8808337,7.73176257 50.5382873,7.34028092 Z M53.2786588,6.80199366 C53.5233348,6.55731763 53.6212053,6.16583598 53.6212053,5.72541912 L53.6212053,2.20208428 C53.6212053,1.71273222 53.5233348,1.37018577 53.2786588,1.07657454 C53.0339828,0.831898505 52.6914363,0.685092886 52.2020843,0.685092886 C51.7127322,0.685092886 51.3212506,0.831898505 51.1255097,1.07657454 C50.8808337,1.32125057 50.7829633,1.71273222 50.7829633,2.20208428 L50.7829633,5.72541912 C50.7829633,6.21477118 50.8808337,6.55731763 51.1255097,6.80199366 C51.3701858,7.04666969 51.7127322,7.19347531 52.2020843,7.19347531 C52.6425011,7.19347531 53.0339828,7.09560489 53.2786588,6.80199366 Z" id="形状" fill-rule="nonzero"></path>
                                    <path d="M58.5382873,7.34028092 C58.1468056,6.94879928 58,6.41051201 58,5.72541912 L58,2.20208428 C58,1.51699139 58.1957408,0.978704123 58.5872225,0.587222474 C58.9787041,0.195740825 59.5169914,0 60.2510195,0 C60.9850476,0 61.5233348,0.195740825 61.9148165,0.587222474 C62.3062981,0.978704123 62.4531038,1.51699139 62.4531038,2.20208428 L62.4531038,5.72541912 C62.4531038,6.41051201 62.2573629,6.94879928 61.8658813,7.34028092 C61.4743996,7.73176257 60.9361124,7.9275034 60.2020843,7.9275034 C59.4680562,7.9275034 58.9297689,7.73176257 58.5382873,7.34028092 Z M61.2786588,6.80199366 C61.5233348,6.55731763 61.6212053,6.16583598 61.6212053,5.72541912 L61.6212053,2.20208428 C61.6212053,1.71273222 61.5233348,1.37018577 61.2786588,1.07657454 C61.0339828,0.831898505 60.6914363,0.685092886 60.2020843,0.685092886 C59.7127322,0.685092886 59.3212506,0.831898505 59.1255097,1.07657454 C58.8808337,1.32125057 58.7829633,1.71273222 58.7829633,2.20208428 L58.7829633,5.72541912 C58.7829633,6.21477118 58.8808337,6.55731763 59.1255097,6.80199366 C59.3701858,7.04666969 59.7127322,7.19347531 60.2020843,7.19347531 C60.6914363,7.19347531 61.0339828,7.09560489 61.2786588,6.80199366 Z" id="形状" fill-rule="nonzero"></path>
                                </g>
                                <g transform="translate(6.361577, 22.999547)">
                                    <path d="M0.538287268,7.34028092 C0.146805618,6.94879928 0,6.41051201 0,5.72541912 L0,2.20208428 C0,1.51699139 0.195740825,0.978704123 0.587222474,0.587222474 C0.978704123,0.195740825 1.51699139,0 2.25101948,0 C2.98504758,0 3.52333484,0.195740825 3.91481649,0.587222474 C4.30629814,0.978704123 4.45310376,1.51699139 4.45310376,2.20208428 L4.45310376,5.72541912 C4.45310376,6.41051201 4.25736294,6.94879928 3.86588129,7.34028092 C3.47439964,7.73176257 2.93611237,7.9275034 2.20208428,7.9275034 C1.46805618,7.9275034 0.929768917,7.73176257 0.538287268,7.34028092 Z M3.27865881,6.80199366 C3.52333484,6.55731763 3.62120526,6.16583598 3.62120526,5.72541912 L3.62120526,2.20208428 C3.62120526,1.71273222 3.52333484,1.37018577 3.27865881,1.07657454 C3.03398278,0.831898505 2.69143634,0.685092886 2.20208428,0.685092886 C1.71273222,0.685092886 1.32125057,0.831898505 1.12550974,1.07657454 C0.880833711,1.32125057 0.782963299,1.71273222 0.782963299,2.20208428 L0.782963299,5.72541912 C0.782963299,6.21477118 0.880833711,6.55731763 1.12550974,6.80199366 C1.37018577,7.04666969 1.71273222,7.19347531 2.20208428,7.19347531 C2.69143634,7.19347531 3.03398278,7.09560489 3.27865881,6.80199366 Z" id="形状" fill-rule="nonzero"></path>
                                    <polygon id="路径" points="10.2020843 7.73176257 9.41912098 7.73176257 9.41912098 0.63615768 8 1.51699139 8 0.734028092 9.12550974 0 10.2020843 0"></polygon>
                                    <polygon id="路径" points="15.2020843 7.73176257 14.419121 7.73176257 14.419121 0.63615768 13 1.51699139 13 0.734028092 14.1255097 0 15.2020843 0"></polygon>
                                    <path d="M19.5382873,7.34028092 C19.1468056,6.94879928 19,6.41051201 19,5.72541912 L19,2.20208428 C19,1.51699139 19.1957408,0.978704123 19.5872225,0.587222474 C19.9787041,0.195740825 20.5169914,0 21.2510195,0 C21.9850476,0 22.5233348,0.195740825 22.9148165,0.587222474 C23.3062981,0.978704123 23.4531038,1.51699139 23.4531038,2.20208428 L23.4531038,5.72541912 C23.4531038,6.41051201 23.2573629,6.94879928 22.8658813,7.34028092 C22.4743996,7.73176257 21.9361124,7.9275034 21.2020843,7.9275034 C20.4680562,7.9275034 19.9297689,7.73176257 19.5382873,7.34028092 Z M22.2786588,6.80199366 C22.5233348,6.55731763 22.6212053,6.16583598 22.6212053,5.72541912 L22.6212053,2.20208428 C22.6212053,1.71273222 22.5233348,1.37018577 22.2786588,1.07657454 C22.0339828,0.831898505 21.6914363,0.685092886 21.2020843,0.685092886 C20.7127322,0.685092886 20.3212506,0.831898505 20.1255097,1.07657454 C19.8808337,1.32125057 19.7829633,1.71273222 19.7829633,2.20208428 L19.7829633,5.72541912 C19.7829633,6.21477118 19.8808337,6.55731763 20.1255097,6.80199366 C20.3701858,7.04666969 20.7127322,7.19347531 21.2020843,7.19347531 C21.6914363,7.19347531 22.0339828,7.09560489 22.2786588,6.80199366 Z" id="形状" fill-rule="nonzero"></path>
                                    <path d="M27.5382873,7.34028092 C27.1468056,6.94879928 27,6.41051201 27,5.72541912 L27,2.20208428 C27,1.51699139 27.1957408,0.978704123 27.5872225,0.587222474 C27.9787041,0.195740825 28.5169914,0 29.2510195,0 C29.9850476,0 30.5233348,0.195740825 30.9148165,0.587222474 C31.3062981,0.978704123 31.4531038,1.51699139 31.4531038,2.20208428 L31.4531038,5.72541912 C31.4531038,6.41051201 31.2573629,6.94879928 30.8658813,7.34028092 C30.4743996,7.73176257 29.9361124,7.9275034 29.2020843,7.9275034 C28.4680562,7.9275034 27.8808337,7.73176257 27.5382873,7.34028092 Z M30.2786588,6.80199366 C30.5233348,6.55731763 30.6212053,6.16583598 30.6212053,5.72541912 L30.6212053,2.20208428 C30.6212053,1.71273222 30.5233348,1.37018577 30.2786588,1.07657454 C30.0339828,0.831898505 29.6914363,0.685092886 29.2020843,0.685092886 C28.7127322,0.685092886 28.3212506,0.831898505 28.1255097,1.07657454 C27.8808337,1.32125057 27.7829633,1.71273222 27.7829633,2.20208428 L27.7829633,5.72541912 C27.7829633,6.21477118 27.8808337,6.55731763 28.1255097,6.80199366 C28.3701858,7.04666969 28.7127322,7.19347531 29.2020843,7.19347531 C29.6425011,7.19347531 30.0339828,7.09560489 30.2786588,6.80199366 Z" id="形状" fill-rule="nonzero"></path>
                                    <polygon id="路径" points="36.2020843 7.73176257 35.419121 7.73176257 35.419121 0.63615768 34 1.51699139 34 0.734028092 35.1255097 0 36.2020843 0"></polygon>
                                    <polygon id="路径" points="41.2020843 7.73176257 40.419121 7.73176257 40.419121 0.63615768 39 1.51699139 39 0.734028092 40.1255097 0 41.2020843 0"></polygon>
                                    <polygon id="路径" points="47.2020843 7.73176257 46.419121 7.73176257 46.419121 0.63615768 45 1.51699139 45 0.734028092 46.1255097 0 47.2020843 0"></polygon>
                                    <path d="M51.5382873,7.34028092 C51.1468056,6.94879928 51,6.41051201 51,5.72541912 L51,2.20208428 C51,1.51699139 51.1957408,0.978704123 51.5872225,0.587222474 C51.9787041,0.195740825 52.5169914,0 53.2510195,0 C53.9850476,0 54.5233348,0.195740825 54.9148165,0.587222474 C55.3062981,0.978704123 55.4531038,1.51699139 55.4531038,2.20208428 L55.4531038,5.72541912 C55.4531038,6.41051201 55.2573629,6.94879928 54.8658813,7.34028092 C54.4743996,7.73176257 53.9361124,7.9275034 53.2020843,7.9275034 C52.4680562,7.9275034 51.9297689,7.73176257 51.5382873,7.34028092 Z M54.2786588,6.80199366 C54.5233348,6.55731763 54.6212053,6.16583598 54.6212053,5.72541912 L54.6212053,2.20208428 C54.6212053,1.71273222 54.5233348,1.37018577 54.2786588,1.07657454 C54.0339828,0.831898505 53.6914363,0.685092886 53.2020843,0.685092886 C52.7127322,0.685092886 52.3212506,0.831898505 52.1255097,1.07657454 C51.8808337,1.32125057 51.7829633,1.71273222 51.7829633,2.20208428 L51.7829633,5.72541912 C51.7829633,6.21477118 51.8808337,6.55731763 52.1255097,6.80199366 C52.3701858,7.04666969 52.7127322,7.19347531 53.2020843,7.19347531 C53.6914363,7.19347531 54.0339828,7.09560489 54.2786588,6.80199366 Z" id="形状" fill-rule="nonzero"></path>
                                    <path d="M58.5382873,7.34028092 C58.1468056,6.94879928 58,6.41051201 58,5.72541912 L58,2.20208428 C58,1.51699139 58.1957408,0.978704123 58.5872225,0.587222474 C58.9787041,0.195740825 59.5169914,0 60.2510195,0 C60.9850476,0 61.5233348,0.195740825 61.9148165,0.587222474 C62.3062981,0.978704123 62.4531038,1.51699139 62.4531038,2.20208428 L62.4531038,5.72541912 C62.4531038,6.41051201 62.2573629,6.94879928 61.8658813,7.34028092 C61.4743996,7.73176257 60.9361124,7.9275034 60.2020843,7.9275034 C59.419121,7.9275034 58.8808337,7.73176257 58.5382873,7.34028092 Z M61.2786588,6.80199366 C61.5233348,6.55731763 61.6212053,6.16583598 61.6212053,5.72541912 L61.6212053,2.20208428 C61.6212053,1.71273222 61.5233348,1.37018577 61.2786588,1.07657454 C61.0339828,0.831898505 60.6914363,0.685092886 60.2020843,0.685092886 C59.7127322,0.685092886 59.3212506,0.831898505 59.1255097,1.07657454 C58.8808337,1.32125057 58.7829633,1.71273222 58.7829633,2.20208428 L58.7829633,5.72541912 C58.7829633,6.21477118 58.8808337,6.55731763 59.1255097,6.80199366 C59.3701858,7.04666969 59.7127322,7.19347531 60.2020843,7.19347531 C60.6425011,7.19347531 61.0339828,7.09560489 61.2786588,6.80199366 Z" id="形状" fill-rule="nonzero"></path>
                                </g>
                                <g transform="translate(25.935659, 35.233348)">
                                    <path d="M0.538287268,7.34028092 C0.146805618,6.94879928 0,6.41051201 0,5.72541912 L0,2.20208428 C0,1.51699139 0.195740825,0.978704123 0.587222474,0.587222474 C0.978704123,0.195740825 1.51699139,0 2.25101948,0 C2.98504758,0 3.52333484,0.195740825 3.91481649,0.587222474 C4.30629814,0.978704123 4.45310376,1.51699139 4.45310376,2.20208428 L4.45310376,5.72541912 C4.45310376,6.41051201 4.25736294,6.94879928 3.86588129,7.34028092 C3.47439964,7.73176257 2.93611237,7.9275034 2.20208428,7.9275034 C1.46805618,7.9275034 0.929768917,7.73176257 0.538287268,7.34028092 Z M3.27865881,6.80199366 C3.52333484,6.55731763 3.62120526,6.16583598 3.62120526,5.72541912 L3.62120526,2.20208428 C3.62120526,1.71273222 3.52333484,1.37018577 3.27865881,1.07657454 C3.03398278,0.831898505 2.69143634,0.685092886 2.20208428,0.685092886 C1.71273222,0.685092886 1.32125057,0.831898505 1.12550974,1.07657454 C0.880833711,1.32125057 0.782963299,1.71273222 0.782963299,2.20208428 L0.782963299,5.72541912 C0.782963299,6.21477118 0.880833711,6.55731763 1.12550974,6.80199366 C1.37018577,7.04666969 1.71273222,7.19347531 2.20208428,7.19347531 C2.69143634,7.19347531 3.03398278,7.04666969 3.27865881,6.80199366 Z" id="形状" fill-rule="nonzero"></path>
                                    <polygon id="路径" points="10.2020843 7.73176257 9.41912098 7.73176257 9.41912098 0.63615768 8 1.51699139 8 0.734028092 9.12550974 0 10.2020843 0"></polygon>
                                    <polygon id="路径" points="15.2020843 7.73176257 14.419121 7.73176257 14.419121 0.63615768 13 1.51699139 13 0.734028092 14.1255097 0 15.2020843 0"></polygon>
                                    <path d="M19.5382873,7.34028092 C19.1468056,6.94879928 19,6.41051201 19,5.72541912 L19,2.20208428 C19,1.51699139 19.1957408,0.978704123 19.5872225,0.587222474 C19.9787041,0.195740825 20.5169914,0 21.2510195,0 C21.9850476,0 22.5233348,0.195740825 22.9148165,0.587222474 C23.3062981,0.978704123 23.4531038,1.51699139 23.4531038,2.20208428 L23.4531038,5.72541912 C23.4531038,6.41051201 23.2573629,6.94879928 22.8658813,7.34028092 C22.4743996,7.73176257 21.9361124,7.9275034 21.2020843,7.9275034 C20.4680562,7.9275034 19.8808337,7.73176257 19.5382873,7.34028092 Z M22.2786588,6.80199366 C22.5233348,6.55731763 22.6212053,6.16583598 22.6212053,5.72541912 L22.6212053,2.20208428 C22.6212053,1.71273222 22.5233348,1.37018577 22.2786588,1.07657454 C22.0339828,0.831898505 21.6914363,0.685092886 21.2020843,0.685092886 C20.7127322,0.685092886 20.3212506,0.831898505 20.1255097,1.07657454 C19.8808337,1.32125057 19.7829633,1.71273222 19.7829633,2.20208428 L19.7829633,5.72541912 C19.7829633,6.21477118 19.8808337,6.55731763 20.1255097,6.80199366 C20.3701858,7.04666969 20.7127322,7.19347531 21.2020843,7.19347531 C21.6425011,7.19347531 22.0339828,7.04666969 22.2786588,6.80199366 Z" id="形状" fill-rule="nonzero"></path>
                                    <path d="M27.5382873,7.34028092 C27.1468056,6.94879928 27,6.41051201 27,5.72541912 L27,2.20208428 C27,1.51699139 27.1957408,0.978704123 27.5872225,0.587222474 C27.9787041,0.195740825 28.5169914,0 29.2510195,0 C29.9850476,0 30.5233348,0.195740825 30.9148165,0.587222474 C31.3062981,0.978704123 31.4531038,1.51699139 31.4531038,2.20208428 L31.4531038,5.72541912 C31.4531038,6.41051201 31.2573629,6.94879928 30.8658813,7.34028092 C30.4743996,7.73176257 29.9361124,7.9275034 29.2020843,7.9275034 C28.4680562,7.9275034 27.9297689,7.73176257 27.5382873,7.34028092 Z M30.2786588,6.80199366 C30.5233348,6.55731763 30.6212053,6.16583598 30.6212053,5.72541912 L30.6212053,2.20208428 C30.6212053,1.71273222 30.5233348,1.37018577 30.2786588,1.07657454 C30.0339828,0.831898505 29.6914363,0.685092886 29.2020843,0.685092886 C28.7127322,0.685092886 28.3212506,0.831898505 28.1255097,1.07657454 C27.8808337,1.32125057 27.7829633,1.71273222 27.7829633,2.20208428 L27.7829633,5.72541912 C27.7829633,6.21477118 27.8808337,6.55731763 28.1255097,6.80199366 C28.3701858,7.04666969 28.7127322,7.19347531 29.2020843,7.19347531 C29.6914363,7.19347531 30.0339828,7.04666969 30.2786588,6.80199366 Z" id="形状" fill-rule="nonzero"></path>
                                    <polygon id="路径" points="36.2020843 7.73176257 35.419121 7.73176257 35.419121 0.63615768 34 1.51699139 34 0.734028092 35.1255097 0 36.2020843 0"></polygon>
                                    <polygon id="路径" points="41.2020843 7.73176257 40.419121 7.73176257 40.419121 0.63615768 39 1.51699139 39 0.734028092 40.1255097 0 41.2020843 0"></polygon>
                                    <polygon id="路径" points="47.2020843 7.73176257 46.419121 7.73176257 46.419121 0.63615768 45 1.51699139 45 0.734028092 46.1255097 0 47.2020843 0"></polygon>
                                    <path d="M51.5382873,7.34028092 C51.1468056,6.94879928 51,6.41051201 51,5.72541912 L51,2.20208428 C51,1.51699139 51.1957408,0.978704123 51.5872225,0.587222474 C51.9787041,0.195740825 52.5169914,0 53.2510195,0 C53.9850476,0 54.5233348,0.195740825 54.9148165,0.587222474 C55.3062981,0.978704123 55.4531038,1.51699139 55.4531038,2.20208428 L55.4531038,5.72541912 C55.4531038,6.41051201 55.2573629,6.94879928 54.8658813,7.34028092 C54.4743996,7.73176257 53.9361124,7.9275034 53.2020843,7.9275034 C52.4680562,7.9275034 51.8808337,7.73176257 51.5382873,7.34028092 Z M54.2786588,6.80199366 C54.5233348,6.55731763 54.6212053,6.16583598 54.6212053,5.72541912 L54.6212053,2.20208428 C54.6212053,1.71273222 54.5233348,1.37018577 54.2786588,1.07657454 C54.0339828,0.831898505 53.6914363,0.685092886 53.2020843,0.685092886 C52.7127322,0.685092886 52.3212506,0.831898505 52.1255097,1.07657454 C51.8808337,1.32125057 51.7829633,1.71273222 51.7829633,2.20208428 L51.7829633,5.72541912 C51.7829633,6.21477118 51.8808337,6.55731763 52.1255097,6.80199366 C52.3701858,7.04666969 52.7127322,7.19347531 53.2020843,7.19347531 C53.6914363,7.19347531 54.0339828,7.04666969 54.2786588,6.80199366 Z" id="形状" fill-rule="nonzero"></path>
                                    <path d="M58.5382873,7.34028092 C58.1468056,6.94879928 58,6.41051201 58,5.72541912 L58,2.20208428 C58,1.51699139 58.1957408,0.978704123 58.5872225,0.587222474 C58.9787041,0.195740825 59.5169914,0 60.2510195,0 C60.9850476,0 61.5233348,0.195740825 61.9148165,0.587222474 C62.3062981,0.978704123 62.4531038,1.51699139 62.4531038,2.20208428 L62.4531038,5.72541912 C62.4531038,6.41051201 62.2573629,6.94879928 61.8658813,7.34028092 C61.4743996,7.73176257 60.9361124,7.9275034 60.2020843,7.9275034 C59.4680562,7.9275034 58.9297689,7.73176257 58.5382873,7.34028092 Z M61.2786588,6.80199366 C61.5233348,6.55731763 61.6212053,6.16583598 61.6212053,5.72541912 L61.6212053,2.20208428 C61.6212053,1.71273222 61.5233348,1.37018577 61.2786588,1.07657454 C61.0339828,0.831898505 60.6914363,0.685092886 60.2020843,0.685092886 C59.7127322,0.685092886 59.3212506,0.831898505 59.1255097,1.07657454 C58.8808337,1.32125057 58.7829633,1.71273222 58.7829633,2.20208428 L58.7829633,5.72541912 C58.7829633,6.21477118 58.8808337,6.55731763 59.1255097,6.80199366 C59.3701858,7.04666969 59.7127322,7.19347531 60.2020843,7.19347531 C60.6914363,7.19347531 61.0339828,7.04666969 61.2786588,6.80199366 Z" id="形状" fill-rule="nonzero"></path>
                                </g>
                                <g transform="translate(13.701858, 56.764839)">
                                    <path d="M0.538287268,7.34028092 C0.146805618,6.94879928 0,6.41051201 0,5.72541912 L0,2.20208428 C0,1.51699139 0.195740825,0.978704123 0.587222474,0.587222474 C0.978704123,0.195740825 1.51699139,0 2.25101948,0 C2.98504758,0 3.52333484,0.195740825 3.91481649,0.587222474 C4.30629814,0.978704123 4.45310376,1.51699139 4.45310376,2.20208428 L4.45310376,5.72541912 C4.45310376,6.41051201 4.25736294,6.94879928 3.86588129,7.34028092 C3.47439964,7.73176257 2.93611237,7.9275034 2.20208428,7.9275034 C1.46805618,7.9275034 0.929768917,7.73176257 0.538287268,7.34028092 Z M3.27865881,6.85092886 C3.52333484,6.60625283 3.62120526,6.21477118 3.62120526,5.77435433 L3.62120526,2.25101948 C3.62120526,1.76166742 3.52333484,1.41912098 3.27865881,1.12550974 C3.03398278,0.831898505 2.69143634,0.734028092 2.20208428,0.734028092 C1.71273222,0.734028092 1.32125057,0.880833711 1.12550974,1.12550974 C0.929768917,1.37018577 0.782963299,1.76166742 0.782963299,2.25101948 L0.782963299,5.77435433 C0.782963299,6.26370639 0.880833711,6.60625283 1.12550974,6.85092886 C1.37018577,7.09560489 1.71273222,7.24241051 2.20208428,7.24241051 C2.69143634,7.19347531 3.03398278,7.09560489 3.27865881,6.85092886 Z" id="形状" fill-rule="nonzero"></path>
                                    <polygon id="路径" points="10.2020843 7.73176257 9.41912098 7.73176257 9.41912098 0.63615768 8 1.51699139 8 0.734028092 9.12550974 0 10.2020843 0"></polygon>
                                    <polygon id="路径" points="15.2020843 7.73176257 14.419121 7.73176257 14.419121 0.63615768 13 1.51699139 13 0.734028092 14.1255097 0 15.2020843 0"></polygon>
                                    <path d="M19.5382873,7.34028092 C19.1468056,6.94879928 19,6.41051201 19,5.72541912 L19,2.20208428 C19,1.51699139 19.1957408,0.978704123 19.5872225,0.587222474 C19.9787041,0.195740825 20.5169914,0 21.2510195,0 C21.9850476,0 22.5233348,0.195740825 22.9148165,0.587222474 C23.3062981,0.978704123 23.4531038,1.51699139 23.4531038,2.20208428 L23.4531038,5.72541912 C23.4531038,6.41051201 23.2573629,6.94879928 22.8658813,7.34028092 C22.4743996,7.73176257 21.9361124,7.9275034 21.2020843,7.9275034 C20.4680562,7.9275034 19.9297689,7.73176257 19.5382873,7.34028092 Z M22.2786588,6.85092886 C22.5233348,6.60625283 22.6212053,6.21477118 22.6212053,5.77435433 L22.6212053,2.25101948 C22.6212053,1.76166742 22.5233348,1.41912098 22.2786588,1.12550974 C22.0339828,0.831898505 21.6914363,0.734028092 21.2020843,0.734028092 C20.7127322,0.734028092 20.3212506,0.880833711 20.1255097,1.12550974 C19.8808337,1.37018577 19.7829633,1.76166742 19.7829633,2.25101948 L19.7829633,5.77435433 C19.7829633,6.26370639 19.8808337,6.60625283 20.1255097,6.85092886 C20.3701858,7.09560489 20.7127322,7.24241051 21.2020843,7.24241051 C21.6914363,7.19347531 22.0339828,7.09560489 22.2786588,6.85092886 Z" id="形状" fill-rule="nonzero"></path>
                                    <path d="M26.5382873,7.34028092 C26.1468056,6.94879928 26,6.41051201 26,5.72541912 L26,2.20208428 C26,1.51699139 26.1957408,0.978704123 26.5872225,0.587222474 C26.9787041,0.195740825 27.5169914,0 28.2510195,0 C28.9850476,0 29.5233348,0.195740825 29.9148165,0.587222474 C30.3062981,0.978704123 30.4531038,1.51699139 30.4531038,2.20208428 L30.4531038,5.72541912 C30.4531038,6.41051201 30.2573629,6.94879928 29.8658813,7.34028092 C29.4743996,7.73176257 28.9361124,7.9275034 28.2020843,7.9275034 C27.4680562,7.9275034 26.9297689,7.73176257 26.5382873,7.34028092 Z M29.2786588,6.85092886 C29.5233348,6.60625283 29.6212053,6.21477118 29.6212053,5.77435433 L29.6212053,2.25101948 C29.6212053,1.76166742 29.5233348,1.41912098 29.2786588,1.12550974 C29.0339828,0.831898505 28.6914363,0.734028092 28.2020843,0.734028092 C27.7127322,0.734028092 27.3212506,0.880833711 27.1255097,1.12550974 C26.9297689,1.37018577 26.7829633,1.76166742 26.7829633,2.25101948 L26.7829633,5.77435433 C26.7829633,6.26370639 26.8808337,6.60625283 27.1255097,6.85092886 C27.3701858,7.09560489 27.7127322,7.24241051 28.2020843,7.24241051 C28.6914363,7.19347531 29.082918,7.09560489 29.2786588,6.85092886 Z" id="形状" fill-rule="nonzero"></path>
                                    <polygon id="路径" points="36.2020843 7.73176257 35.419121 7.73176257 35.419121 0.63615768 34 1.51699139 34 0.734028092 35.1255097 0 36.2020843 0"></polygon>
                                    <polygon id="路径" points="41.2020843 7.73176257 40.419121 7.73176257 40.419121 0.63615768 39 1.51699139 39 0.734028092 40.1255097 0 41.2020843 0"></polygon>
                                    <polygon id="路径" points="47.2020843 7.73176257 46.419121 7.73176257 46.419121 0.63615768 45 1.51699139 45 0.734028092 46.1255097 0 47.2020843 0"></polygon>
                                    <path d="M50.5382873,7.34028092 C50.1468056,6.94879928 50,6.41051201 50,5.72541912 L50,2.20208428 C50,1.51699139 50.1957408,0.978704123 50.5872225,0.587222474 C50.9787041,0.195740825 51.5169914,0 52.2510195,0 C52.9850476,0 53.5233348,0.195740825 53.9148165,0.587222474 C54.3062981,0.978704123 54.4531038,1.51699139 54.4531038,2.20208428 L54.4531038,5.72541912 C54.4531038,6.41051201 54.2573629,6.94879928 53.8658813,7.34028092 C53.4743996,7.73176257 52.9361124,7.9275034 52.2020843,7.9275034 C51.4680562,7.9275034 50.9297689,7.73176257 50.5382873,7.34028092 Z M53.2786588,6.85092886 C53.5233348,6.60625283 53.6212053,6.21477118 53.6212053,5.77435433 L53.6212053,2.25101948 C53.6212053,1.76166742 53.5233348,1.41912098 53.2786588,1.12550974 C53.0339828,0.831898505 52.6914363,0.734028092 52.2020843,0.734028092 C51.7127322,0.734028092 51.3212506,0.880833711 51.1255097,1.12550974 C50.9297689,1.37018577 50.7829633,1.76166742 50.7829633,2.25101948 L50.7829633,5.77435433 C50.7829633,6.26370639 50.8808337,6.60625283 51.1255097,6.85092886 C51.3701858,7.09560489 51.7127322,7.24241051 52.2020843,7.24241051 C52.6914363,7.19347531 53.0339828,7.09560489 53.2786588,6.85092886 Z" id="形状" fill-rule="nonzero"></path>
                                    <path d="M58.5382873,7.34028092 C58.1468056,6.94879928 58,6.41051201 58,5.72541912 L58,2.20208428 C58,1.51699139 58.1957408,0.978704123 58.5872225,0.587222474 C58.9787041,0.195740825 59.5169914,0 60.2510195,0 C60.9850476,0 61.5233348,0.195740825 61.9148165,0.587222474 C62.3062981,0.978704123 62.4531038,1.51699139 62.4531038,2.20208428 L62.4531038,5.72541912 C62.4531038,6.41051201 62.2573629,6.94879928 61.8658813,7.34028092 C61.4743996,7.73176257 60.9361124,7.9275034 60.2020843,7.9275034 C59.4680562,7.9275034 58.9297689,7.73176257 58.5382873,7.34028092 Z M61.2786588,6.85092886 C61.5233348,6.60625283 61.6212053,6.21477118 61.6212053,5.77435433 L61.6212053,2.25101948 C61.6212053,1.76166742 61.5233348,1.41912098 61.2786588,1.12550974 C61.0339828,0.880833711 60.6914363,0.734028092 60.2020843,0.734028092 C59.7127322,0.734028092 59.3212506,0.880833711 59.1255097,1.12550974 C58.8808337,1.37018577 58.7829633,1.76166742 58.7829633,2.25101948 L58.7829633,5.77435433 C58.7829633,6.26370639 58.8808337,6.60625283 59.1255097,6.85092886 C59.3701858,7.09560489 59.7127322,7.24241051 60.2020843,7.24241051 C60.6914363,7.19347531 61.082918,7.09560489 61.2786588,6.85092886 Z" id="形状" fill-rule="nonzero"></path>
                                </g>
                                <g transform="translate(0.000000, 44.999094)">
                                    <path d="M0.538287268,7.34028092 C0.146805618,6.94879928 0,6.41051201 0,5.72541912 L0,2.20208428 C0,1.51699139 0.195740825,0.978704123 0.587222474,0.587222474 C0.978704123,0.195740825 1.51699139,0 2.25101948,0 C2.98504758,0 3.52333484,0.195740825 3.91481649,0.587222474 C4.30629814,0.978704123 4.45310376,1.51699139 4.45310376,2.20208428 L4.45310376,5.72541912 C4.45310376,6.41051201 4.25736294,6.94879928 3.86588129,7.34028092 C3.47439964,7.73176257 2.93611237,7.9275034 2.20208428,7.9275034 C1.46805618,7.9275034 0.880833711,7.73176257 0.538287268,7.34028092 Z M3.27865881,6.80199366 C3.52333484,6.55731763 3.62120526,6.16583598 3.62120526,5.72541912 L3.62120526,2.20208428 C3.62120526,1.71273222 3.52333484,1.37018577 3.27865881,1.07657454 C3.03398278,0.782963299 2.69143634,0.685092886 2.20208428,0.685092886 C1.71273222,0.685092886 1.32125057,0.831898505 1.12550974,1.07657454 C0.929768917,1.32125057 0.782963299,1.71273222 0.782963299,2.20208428 L0.782963299,5.72541912 C0.782963299,6.21477118 0.880833711,6.55731763 1.12550974,6.80199366 C1.37018577,7.04666969 1.71273222,7.19347531 2.20208428,7.19347531 C2.69143634,7.19347531 3.03398278,7.09560489 3.27865881,6.80199366 Z" id="形状" fill-rule="nonzero"></path>
                                    <polygon id="路径" points="10.2020843 8.73176257 9.41912098 8.73176257 9.41912098 1.63615768 8 2.51699139 8 1.73402809 9.12550974 1 10.2020843 1"></polygon>
                                    <polygon id="路径" points="15.2020843 8.73176257 14.419121 8.73176257 14.419121 1.63615768 13 2.51699139 13 1.73402809 14.1255097 1 15.2020843 1"></polygon>
                                    <path d="M19.5382873,7.34028092 C19.1468056,6.94879928 19,6.41051201 19,5.72541912 L19,2.20208428 C19,1.51699139 19.1957408,0.978704123 19.5872225,0.587222474 C19.9787041,0.195740825 20.5169914,0 21.2510195,0 C21.9850476,0 22.5233348,0.195740825 22.9148165,0.587222474 C23.3062981,0.978704123 23.4531038,1.51699139 23.4531038,2.20208428 L23.4531038,5.72541912 C23.4531038,6.41051201 23.2573629,6.94879928 22.8658813,7.34028092 C22.4743996,7.73176257 21.9361124,7.9275034 21.2020843,7.9275034 C20.419121,7.9275034 19.8808337,7.73176257 19.5382873,7.34028092 Z M22.2786588,6.80199366 C22.5233348,6.55731763 22.6212053,6.16583598 22.6212053,5.72541912 L22.6212053,2.20208428 C22.6212053,1.71273222 22.5233348,1.37018577 22.2786588,1.07657454 C22.0339828,0.782963299 21.6914363,0.685092886 21.2020843,0.685092886 C20.7127322,0.685092886 20.3212506,0.831898505 20.1255097,1.07657454 C19.9297689,1.32125057 19.7829633,1.71273222 19.7829633,2.20208428 L19.7829633,5.72541912 C19.7829633,6.21477118 19.8808337,6.55731763 20.1255097,6.80199366 C20.3701858,7.04666969 20.7127322,7.19347531 21.2020843,7.19347531 C21.6425011,7.19347531 22.0339828,7.09560489 22.2786588,6.80199366 Z" id="形状" fill-rule="nonzero"></path>
                                    <path d="M27.5382873,7.34028092 C27.1468056,6.94879928 27,6.41051201 27,5.72541912 L27,2.20208428 C27,1.51699139 27.1957408,0.978704123 27.5872225,0.587222474 C27.9787041,0.195740825 28.5169914,0 29.2510195,0 C29.9850476,0 30.5233348,0.195740825 30.9148165,0.587222474 C31.3062981,0.978704123 31.4531038,1.51699139 31.4531038,2.20208428 L31.4531038,5.72541912 C31.4531038,6.41051201 31.2573629,6.94879928 30.8658813,7.34028092 C30.4743996,7.73176257 29.9361124,7.9275034 29.2020843,7.9275034 C28.4680562,7.9275034 27.9297689,7.73176257 27.5382873,7.34028092 Z M30.2786588,6.80199366 C30.5233348,6.55731763 30.6212053,6.16583598 30.6212053,5.72541912 L30.6212053,2.20208428 C30.6212053,1.71273222 30.5233348,1.37018577 30.2786588,1.07657454 C30.0339828,0.782963299 29.6914363,0.685092886 29.2020843,0.685092886 C28.7127322,0.685092886 28.3212506,0.831898505 28.1255097,1.07657454 C27.9297689,1.32125057 27.7829633,1.71273222 27.7829633,2.20208428 L27.7829633,5.72541912 C27.7829633,6.21477118 27.8808337,6.55731763 28.1255097,6.80199366 C28.3701858,7.04666969 28.7127322,7.19347531 29.2020843,7.19347531 C29.6914363,7.19347531 30.0339828,7.09560489 30.2786588,6.80199366 Z" id="形状" fill-rule="nonzero"></path>
                                    <polygon id="路径" points="36.2020843 8.73176257 35.419121 8.73176257 35.419121 1.63615768 34 2.51699139 34 1.73402809 35.1255097 1 36.2020843 1"></polygon>
                                    <polygon id="路径" points="41.2020843 8.73176257 40.419121 8.73176257 40.419121 1.63615768 39 2.51699139 39 1.73402809 40.1255097 1 41.2020843 1"></polygon>
                                    <polygon id="路径" points="47.2020843 8.73176257 46.419121 8.73176257 46.419121 1.63615768 45 2.51699139 45 1.73402809 46.1255097 1 47.2020843 1"></polygon>
                                    <path d="M51.5382873,7.34028092 C51.1468056,6.94879928 51,6.41051201 51,5.72541912 L51,2.20208428 C51,1.51699139 51.1957408,0.978704123 51.5872225,0.587222474 C51.9787041,0.195740825 52.5169914,0 53.2510195,0 C53.9850476,0 54.5233348,0.195740825 54.9148165,0.587222474 C55.3062981,0.978704123 55.4531038,1.51699139 55.4531038,2.20208428 L55.4531038,5.72541912 C55.4531038,6.41051201 55.2573629,6.94879928 54.8658813,7.34028092 C54.4743996,7.73176257 53.9361124,7.9275034 53.2020843,7.9275034 C52.419121,7.9275034 51.8808337,7.73176257 51.5382873,7.34028092 Z M54.2786588,6.80199366 C54.5233348,6.55731763 54.6212053,6.16583598 54.6212053,5.72541912 L54.6212053,2.20208428 C54.6212053,1.71273222 54.5233348,1.37018577 54.2786588,1.07657454 C54.0339828,0.782963299 53.6914363,0.685092886 53.2020843,0.685092886 C52.7127322,0.685092886 52.3212506,0.831898505 52.1255097,1.07657454 C51.9297689,1.32125057 51.7829633,1.71273222 51.7829633,2.20208428 L51.7829633,5.72541912 C51.7829633,6.21477118 51.8808337,6.55731763 52.1255097,6.80199366 C52.3701858,7.04666969 52.7127322,7.19347531 53.2020843,7.19347531 C53.6425011,7.19347531 54.0339828,7.09560489 54.2786588,6.80199366 Z" id="形状" fill-rule="nonzero"></path>
                                    <path d="M58.5382873,7.34028092 C58.1468056,6.94879928 58,6.41051201 58,5.72541912 L58,2.20208428 C58,1.51699139 58.1957408,0.978704123 58.5872225,0.587222474 C58.9787041,0.195740825 59.5169914,0 60.2510195,0 C60.9850476,0 61.5233348,0.195740825 61.9148165,0.587222474 C62.3062981,0.978704123 62.4531038,1.51699139 62.4531038,2.20208428 L62.4531038,5.72541912 C62.4531038,6.41051201 62.2573629,6.94879928 61.8658813,7.34028092 C61.4743996,7.73176257 60.9361124,7.9275034 60.2020843,7.9275034 C59.4680562,7.9275034 58.9297689,7.73176257 58.5382873,7.34028092 Z M61.2786588,6.80199366 C61.5233348,6.55731763 61.6212053,6.16583598 61.6212053,5.72541912 L61.6212053,2.20208428 C61.6212053,1.71273222 61.5233348,1.37018577 61.2786588,1.07657454 C61.0339828,0.782963299 60.6914363,0.685092886 60.2020843,0.685092886 C59.7127322,0.685092886 59.3212506,0.831898505 59.1255097,1.07657454 C58.9297689,1.32125057 58.7829633,1.71273222 58.7829633,2.20208428 L58.7829633,5.72541912 C58.7829633,6.21477118 58.8808337,6.55731763 59.1255097,6.80199366 C59.3701858,7.04666969 59.7127322,7.19347531 60.2020843,7.19347531 C60.6914363,7.19347531 61.0339828,7.09560489 61.2786588,6.80199366 Z" id="形状" fill-rule="nonzero"></path>
                                </g>
                            </g>
                            <g transform="translate(32.786588, 21.552787)" id="路径">
                                <polygon fill="#ED8E5F" opacity="0.5" points="17 11.0679656 17 23.2038967 27.5210693 29.2718623 38.0421386 23.2038967 38.0421386 11.0679656 27.5210693 5"></polygon>
                                <polygon fill="#ED9A62" opacity="0.2" points="15 9.3615768 15 22.0847304 26.0104214 28.397372 37.0208428 22.0847304 37.0208428 9.3615768 26.0104214 3"></polygon>
                                <path d="M40.9207068,23.5509742 L40.9207068,20.0276393 C40.9207068,19.4404169 40.4313548,19 39.8930675,19 C39.305845,19 38.8654282,19.4893521 38.8654282,20.0276393 L38.8654282,23.0126869 L26.484821,30.157227 L14.0552787,22.9637517 L14.0552787,20.0276393 C14.0552787,19.4404169 13.5659266,19 13.0276393,19 C12.4404169,19 12,19.4893521 12,20.0276393 L12,23.5999094 C12,23.991391 12.1957408,24.3339375 12.5382873,24.5296783 L25.8975986,32.2614409 C26.0444042,32.3593113 26.240145,32.4082465 26.4358858,32.4082465 C26.6316266,32.4082465 26.7784323,32.3593113 26.9741731,32.2614409 L40.4313548,24.4807431 C40.724966,24.2850023 40.9207068,23.9424558 40.9207068,23.5509742 L40.9207068,23.5509742 Z" fill="#E86225"></path>
                                <path d="M23.6334914,37.8314977 L10.5677913,30.1486703 C10.0784392,29.8550591 9.44228156,30.0018647 9.14867033,30.540152 C8.85505909,31.029504 9.00186471,31.6656617 9.54015198,31.959273 L22.1165,39.3484891 L22.1165,50.3589105 L16.5378865,50.3589105 L16.5378865,42.3824719 C16.5378865,41.9909902 16.3421456,41.6484438 15.9995992,41.452703 L12.7209404,39.5931651 C12.7209404,39.5931651 12.7209404,39.5931651 12.6720052,39.5931651 C12.1826531,39.2995539 11.5464954,39.4952947 11.2528842,39.9846468 C10.959273,40.4739988 11.1550138,41.1101565 11.6443658,41.4037677 C11.6443658,41.4037677 11.6443658,41.4037677 11.6443658,41.4037677 L11.6443658,41.4037677 L14.3847374,42.9696943 L14.3847374,51.3865498 C14.3847374,51.9737723 14.8740894,52.4141891 15.4123767,52.4141891 L23.0952041,52.4141891 C23.6824266,52.4141891 24.1228434,51.9248371 24.1228434,51.3865498 L24.1228434,38.7123314 C24.1717786,38.3208498 23.9760378,37.9783033 23.6334914,37.8314977 L23.6334914,37.8314977 Z" fill="#E86225"></path>
                                <path d="M41.6039873,30.1379523 L28.5382873,37.8697148 C28.1957408,38.0654557 28,38.4080021 28,38.7505485 L28,51.4247669 C28,52.0119894 28.4893521,52.4524063 29.0276393,52.4524063 L36.7104667,52.4524063 C37.2976892,52.4524063 37.738106,51.9630542 37.738106,51.4247669 L37.738106,43.0079115 L40.6742184,41.3441145 L40.6742184,41.3441145 C40.8699592,41.2462441 41.0167648,41.1483736 41.1146353,40.9526328 C41.4082465,40.4632808 41.2125057,39.8271231 40.7231536,39.5335118 C40.3806072,39.337771 39.9401903,39.3867062 39.6465791,39.582447 L39.6465791,39.582447 L36.2211146,41.5398553 C35.8785682,41.7355961 35.6828274,42.0781426 35.6828274,42.4696242 L35.6828274,50.4460628 L30.1042139,50.4460628 L30.1042139,39.337771 L42.6805618,31.9485549 C43.1699139,31.6549436 43.3656547,31.018786 43.0720435,30.5294339 C42.7784323,30.0400818 42.1422746,29.844341 41.6039873,30.1379523 L41.6039873,30.1379523 Z" fill="#E86225"></path>
                                <path d="M50.34638,7 C49.7591575,7 49.3187407,7.48935206 49.3187407,8.02763933 L49.3187407,33.0824649 L46.5294339,34.6973267 L46.5294339,34.6973267 C46.3826283,34.7951971 46.2358227,34.8930675 46.1379523,35.0888083 C45.844341,35.5781604 46.0400818,36.2143181 46.5294339,36.5079293 C46.8719803,36.7036701 47.263462,36.6547349 47.5570732,36.5079293 L47.5570732,36.5079293 L50.8846673,34.5994563 C51.2272137,34.4037155 51.4229545,34.061169 51.4229545,33.6696874 L51.4229545,7.97870412 C51.4229545,7.48935206 50.9336025,7 50.34638,7 L50.34638,7 Z" fill="#E86225"></path>
                                <path d="M13.1744449,13.4571817 C13.7616674,13.4571817 14.2020843,12.9678296 14.2020843,12.4295424 L14.2020843,9.49343 L26.5826914,2.3488899 L38.9632986,9.49343 L38.9632986,12.4295424 C38.9632986,13.0167648 39.4526507,13.4571817 39.9909379,13.4571817 C40.5781604,13.4571817 41.0185773,12.9678296 41.0185773,12.4295424 L41.0185773,8.85727232 C41.0185773,8.46579067 40.8228364,8.12324422 40.48029,7.9275034 L27.0231083,0.146805618 C26.6805618,-0.0489352062 26.2890802,-0.0489352062 25.995469,0.146805618 L12.5382873,7.9275034 C12.1957408,8.12324422 12,8.46579067 12,8.85727232 L12,12.4295424 C12.1468056,13.0167648 12.5872225,13.4571817 13.1744449,13.4571817 L13.1744449,13.4571817 Z" fill="#E86225"></path>
                                <path d="M5.04032623,34.7951971 C5.04032623,34.7951971 5.04032623,34.7951971 5.04032623,34.7951971 L5.04032623,34.7951971 L2.05527866,33.0824649 L2.05527866,8.02763933 C2.05527866,7.44041686 1.5659266,7 1.02763933,7 C0.440416855,7 0,7.48935206 0,8.02763933 L0,33.6696874 C0,34.061169 0.195740825,34.4037155 0.538287268,34.5994563 L4.01268691,36.6057997 L4.01268691,36.6057997 C4.01268691,36.6057997 4.01268691,36.6057997 4.06162211,36.6547349 C4.55097417,36.9483462 5.18713185,36.7526053 5.48074309,36.2632533 C5.72541912,35.7739012 5.5786135,35.0888083 5.04032623,34.7951971 L5.04032623,34.7951971 Z" fill="#E86225"></path>
                            </g>
                            <g opacity="0.5" transform="translate(23.978251, 0.000000)" id="路径" stroke="#FCB279" stroke-linecap="round" stroke-linejoin="round" stroke-width="0.5">
                                <path d="M0,2.78930675 C0.587222474,1.17444495 2.10421386,0 3.91481649,0 C4.94245582,0 5.87222474,0.391481649 6.60625283,0.978704123"></path>
                                <path d="M3.42546443,8.11055732 C1.46805618,7.76801087 0,6.05527866 0,4"></path>
                                <path d="M7.85953783,3 C8.05527866,3.48935206 8.15314907,4.02763933 8.15314907,4.6148618 C8.15314907,6.1807884 7.27231536,7.55097417 6,8.28500227"></path>
                                <path d="M1,4.37652923 C1,2.85953783 1.92976892,1.58722247 3.25101948,1"></path>
                                <path d="M6.92115995,7.07657454 C6.23606706,7.76166742 5.35523335,8.15314907 4.32759402,8.15314907 C2.85953783,8.15314907 1.58722247,7.27231536 1,6"></path>
                                <path d="M4,1 C6.00634345,1 7.67014046,2.6148618 7.67014046,4.67014046"></path>
                                <path d="M2.84249298,6.20208428 C2.1574001,5.66379701 1.86378886,4.7829633 2.05952969,4"></path>
                                <path d="M6.54463072,4 C6.64250113,4.53828727 6.49569551,5.12550974 6.15314907,5.5659266 C5.66379701,6.25101948 4.7829633,6.54463072 4,6.3978251"></path>
                                <path d="M3,2.84913768 C3.68509289,1.91936876 5.05527866,1.72362794 5.98504758,2.40872083"></path>
                            </g>
                            <g opacity="0.3" transform="translate(97.402356, 67.062528)" id="路径" stroke="#FCB279" stroke-linecap="round" stroke-linejoin="round" stroke-width="0.5">
                                <path d="M0,2.54463072 C0.538287268,1.07657454 1.90847304,0 3.57227005,0 C4.50203897,0 5.38287268,0.342546443 6.01903036,0.929768917"></path>
                                <path d="M3.08291799,7.71907567 C1.32125057,7.37652923 0,5.85953783 0,4"></path>
                                <path d="M6.66379701,2 C6.85953783,2.44041686 6.95740825,2.92976892 6.95740825,3.41912098 C6.95740825,4.83824196 6.17444495,6.11055732 5,6.746715"></path>
                                <path d="M0,3.03398278 C0,1.66379701 0.831898505,0.489352062 2.00634345,0"></path>
                                <path d="M5.33393747,5.97870412 C4.746715,6.5659266 3.91481649,6.95740825 2.98504758,6.95740825 C1.66379701,6.95740825 0.489352062,6.17444495 0,5"></path>
                                <path d="M3,0 C4.81060263,0 6.32759402,1.46805618 6.32759402,3.32759402"></path>
                                <path d="M1.77531717,5.00634345 C1.13915949,4.51699139 0.894483462,3.73402809 1.04128908,3"></path>
                                <path d="M5.29995469,3 C5.3488899,3.48935206 5.25101948,4.02763933 4.95740825,4.41912098 C4.51699139,5.05527866 3.73402809,5.29995469 3,5.15314907"></path>
                                <path d="M2,2.76809081 C2.63615768,1.9361923 3.85953783,1.74045148 4.69143634,2.37660916"></path>
                            </g>
                            <circle id="椭圆形" fill="#FCB279" opacity="0.3" cx="57.8595378" cy="2.85953783" r="1.85953783"></circle>
                            <circle id="椭圆形" fill="#FCB279" opacity="0.2" cx="1.85953783" cy="56.8595378" r="1.85953783"></circle>
                            <circle id="椭圆形" fill="#FCB279" opacity="0.53" cx="16.0339828" cy="18.0339828" r="3.03398278"></circle>
                            <circle id="椭圆形" stroke="#E86225" stroke-width="2" opacity="0.5" cx="94.5169914" cy="47.5169914" r="1.51699139"></circle>
                        </g>
                    </g>
                </g>
            </g>
        </g>
    </g>
</svg>