<?xml version="1.0" encoding="UTF-8"?>
<svg width="108px" height="108px" viewBox="0 0 108 108" version="1.1" xmlns="http://www.w3.org/2000/svg" xmlns:xlink="http://www.w3.org/1999/xlink">
    <!-- Generator: Sketch 56.2 (81672) - https://sketch.com -->
    <title>全面数据</title>
    <desc>Created with Sketch.</desc>
    <g id="6.0.0个人中心" stroke="none" stroke-width="1" fill="none" fill-rule="evenodd">
        <g id="6.0.0个人中心_成为会员" transform="translate(-301.000000, -855.000000)">
            <g id="分组-13" transform="translate(301.000000, 855.000000)">
                <g id="分组-21">
                    <g transform="translate(12.000000, 14.000000)">
                        <g id="分组">
                            <g>
                                <g opacity="0.3" transform="translate(21.659266, 18.212506)" id="路径" stroke="#3EDDB7" stroke-linecap="round" stroke-linejoin="round" stroke-width="2">
                                    <g transform="translate(0.340734, 0.787494)">
                                        <path d="M1.67123288,20.4046403 C5.84212127,8.50534104 17.1689456,0 30.458541,0 C38.0233876,0 44.9748683,2.7397012 50.2907064,7.31950022"></path>
                                        <path d="M24.9435482,60.9318482 C10.7543495,58.3148202 0,45.8839372 0,30.9178082"></path>
                                        <path d="M58.6582294,19.2191781 C60.1303077,22.8175916 60.98902,26.7431336 60.98902,30.914022 C60.98902,42.4453017 54.5691232,52.5045031 45.1232877,57.6976681"></path>
                                        <path d="M4.17808219,30.5066259 C4.17808219,19.4251479 10.9251075,9.93842134 20.5345073,5.84931507"></path>
                                        <path d="M49.1120594,49.5910149 C44.286914,54.4161603 37.5807797,57.4420989 30.1794974,57.4420989 C19.3842568,57.4420989 10.0610945,51.0222021 5.84931507,41.7808219"></path>
                                        <path d="M30.9178082,4.17808219 C45.6794818,4.17808219 57.6605632,16.1591636 57.6605632,30.9208372"></path>
                                        <path d="M17.7131633,47.8626103 C10.6799006,42.6694453 7.85841723,33.9187579 9.78029718,25.9041096"></path>
                                        <path d="M51.1747863,27.5753425 C51.9517165,32.9320717 50.7249846,38.5750383 47.2492443,43.2366195 C42.1787525,50.0654269 33.7143026,52.9686924 25.9041096,51.2921588"></path>
                                        <path d="M13.369863,17.7272393 C20.3213437,8.36318598 33.5291569,6.40041497 42.8932103,13.3518956"></path>
                                    </g>
                                </g>
                                <g opacity="0.5" transform="translate(20.552787, 0.000000)" id="路径" stroke="#3EDDB7" stroke-linecap="round" stroke-linejoin="round" stroke-width="0.5">
                                    <g>
                                        <path d="M0,2.44676031 C0.489352062,1.02763933 1.85953783,0 3.47439964,0 C4.40416855,0 5.23606706,0.342546443 5.87222474,0.880833711"></path>
                                        <path d="M2.98504758,7.62120526 C1.27231536,7.32759402 0,5.81060263 0,4"></path>
                                        <path d="M6.6148618,3 C6.81060263,3.44041686 6.90847304,3.92976892 6.90847304,4.41912098 C6.90847304,5.78930675 6.12550974,7.01268691 5,7.64884459"></path>
                                        <path d="M0,3.93611237 C0,2.6148618 0.831898505,1.48935206 1.95740825,1"></path>
                                        <path d="M5.18713185,5.92976892 C4.59990938,6.51699139 3.81694608,6.85953783 2.93611237,6.85953783 C1.6148618,6.85953783 0.538287268,6.07657454 0,5"></path>
                                        <path d="M3,1 C4.76166742,1 6.22972361,2.41912098 6.22972361,4.22972361"></path>
                                        <path d="M2.75088704,5.95740825 C2.11472936,5.51699139 1.87005333,4.73402809 2.06579415,4"></path>
                                        <path d="M5.25101948,4 C5.29995469,4.48935206 5.20208428,4.97870412 4.90847304,5.37018577 C4.46805618,5.95740825 3.68509289,6.25101948 3,6.10421386"></path>
                                        <path d="M2,2.76809081 C2.63615768,1.9361923 3.81060263,1.74045148 4.64250113,2.37660916"></path>
                                    </g>
                                </g>
                                <g opacity="0.3" transform="translate(5.872225, 39.148165)" id="路径" stroke="#3EDDB7" stroke-linecap="round" stroke-linejoin="round" stroke-width="0.5">
                                    <g>
                                        <path d="M0,1.6148618 C0.342546443,0.685092886 1.22338015,0 2.25101948,0 C2.83824196,0 3.37652923,0.195740825 3.81694608,0.587222474"></path>
                                        <path d="M1.95740825,5.3488899 C0.831898505,5.15314907 0,4.17444495 0,3"></path>
                                        <path d="M5.02763933,2 C5.12550974,2.29361124 5.22338015,2.58722247 5.22338015,2.92976892 C5.22338015,3.85953783 4.73402809,4.64250113 4,5.03398278"></path>
                                        <path d="M0,2.95740825 C0,2.07657454 0.538287268,1.34254644 1.27231536,1"></path>
                                        <path d="M3.37652923,4.58722247 C2.98504758,4.97870412 2.44676031,5.22338015 1.90847304,5.22338015 C1.07657454,5.22338015 0.342546443,4.73402809 0,4"></path>
                                        <path d="M2,1 C3.17444495,1 4.10421386,1.92976892 4.10421386,3.10421386"></path>
                                        <path d="M1.48925535,4.27231536 C1.0977737,3.97870412 0.902032874,3.44041686 1.04883849,3"></path>
                                        <path d="M3.46805618,3 C3.51699139,3.29361124 3.41912098,3.63615768 3.22338015,3.92976892 C2.92976892,4.32125057 2.44041686,4.51699139 2,4.41912098"></path>
                                        <path d="M1,2.48607342 C1.39148165,1.94778615 2.17444495,1.84991574 2.71273222,2.24139739"></path>
                                    </g>
                                </g>
                                <circle id="椭圆形" fill="#3EDDB7" opacity="0.3" cx="50.6148618" cy="3.6148618" r="1.6148618"></circle>
                                <circle id="椭圆形" fill="#3EDDB7" opacity="0.3" cx="1.6148618" cy="51.6148618" r="1.6148618"></circle>
                                <circle id="椭圆形" fill="#3EDDB7" opacity="0.68" cx="15.6914363" cy="14.6914363" r="2.69143634"></circle>
                            </g>
                            <g transform="translate(26.999547, 28.956955)">
                                <g transform="translate(0.000453, 0.043045)" id="路径" stroke="#2CC49C" stroke-linecap="round" stroke-linejoin="round" stroke-width="2">
                                    <path d="M36.2068966,3.5316446 C36.2068966,5.48443631 37.8099464,7.06328919 39.792666,7.06328919 C41.7753855,7.06328919 43.3784354,5.48443631 43.3784354,3.5316446 C43.3784354,1.57885288 41.7753855,0 39.792666,0 C37.8099464,0 36.2068966,1.57885288 36.2068966,3.5316446 L36.2068966,3.5316446 Z"></path>
                                    <g transform="translate(0.000000, 1.661950)">
                                        <path d="M0,21.8118574 C0,25.7589896 10.1667109,30.0800607 24.7207162,30.1216094 C39.2747215,30.1216094 49.4414324,25.7174409 49.4414324,21.8949549 C49.4414324,17.9478227 39.2747215,13.6267517 24.7207162,13.585203 C10.1667109,13.5436542 0,17.8647252 0,21.8118574 L0,21.8118574 Z"></path>
                                        <path d="M39.4528381,36.5402525 C39.1575395,31.4713038 36.4998516,24.1171733 32.2391138,17.0538841 C24.6879053,4.67235365 15.702389,-1.6015091 12.2853616,0.35128262 C11.5682077,0.808318979 11.104167,1.5146479 10.7244973,2.67801318 C10.4713842,3.50898838 10.3870131,4.29841482 10.3448276,5.25403629 L10.3448276,5.25403629 C10.3448276,8.95187593 11.7791354,14.0208246 14.3102667,19.3806147"></path>
                                        <path d="M17.2413793,25.4716981 C24.7925878,37.8532286 33.7781042,44.1270913 37.1951315,42.1742996"></path>
                                        <path d="M32.5344124,1.69811321 C28.2314891,3.81709996 22.4520726,9.3846338 17.4319954,17.7359345 C13.5509273,24.1344436 10.9776104,30.7406964 10.3448276,35.7265476"></path>
                                        <path d="M10.3448276,40.4596438 C10.5979407,41.6230091 11.188538,42.329338 11.8635064,42.7863744 C15.2805337,44.7807149 24.3926066,38.5068521 31.9016296,26.1668704 C35.5717701,20.2253977 38.0607159,14.1592788 38.9044264,9.33962264"></path>
                                    </g>
                                </g>
                                <ellipse id="椭圆形" fill="#2CC49C" opacity="0.3" cx="25.5004531" cy="24.0430449" rx="21.5" ry="7"></ellipse>
                                <ellipse id="椭圆形" fill="#2CC49C" opacity="0.3" transform="translate(25.721212, 24.054607) rotate(-56.824808) translate(-25.721212, -24.054607) " cx="25.7212124" cy="24.0546066" rx="20.2019062" ry="6.80465017"></ellipse>
                                <ellipse id="椭圆形" fill="#2CC49C" opacity="0.3" transform="translate(24.500187, 23.338996) rotate(-31.663434) translate(-24.500187, -23.338996) " cx="24.5001869" cy="23.3389963" rx="6.80668117" ry="20.1934777"></ellipse>
                            </g>
                        </g>
                    </g>
                </g>
            </g>
        </g>
    </g>
</svg>