<?xml version="1.0" encoding="UTF-8"?>
<svg width="108px" height="108px" viewBox="0 0 108 108" version="1.1" xmlns="http://www.w3.org/2000/svg" xmlns:xlink="http://www.w3.org/1999/xlink">
    <!-- Generator: Sketch 56.2 (81672) - https://sketch.com -->
    <title>联赛预测</title>
    <desc>Created with Sketch.</desc>
    <g id="6.0.0个人中心" stroke="none" stroke-width="1" fill="none" fill-rule="evenodd">
        <g id="6.0.0个人中心_成为会员" transform="translate(-97.000000, -855.000000)">
            <g id="分组-15" transform="translate(97.000000, 855.000000)">
                <g id="分组">
                    <g transform="translate(2.000000, 13.000000)">
                        <g opacity="0.6">
                            <g opacity="0.2" transform="translate(24.935659, 18.106026)" fill="#BF1F3A">
                                <path d="M0.538287268,7.34028092 C0.146805618,6.94879928 0,6.41051201 0,5.72541912 L0,2.20208428 C0,1.51699139 0.195740825,0.978704123 0.587222474,0.587222474 C0.978704123,0.195740825 1.51699139,0 2.25101948,0 C2.98504758,0 3.52333484,0.195740825 3.91481649,0.587222474 C4.30629814,0.978704123 4.45310376,1.51699139 4.45310376,2.20208428 L4.45310376,5.72541912 C4.45310376,6.41051201 4.25736294,6.94879928 3.86588129,7.34028092 C3.47439964,7.73176257 2.93611237,7.9275034 2.20208428,7.9275034 C1.46805618,7.9275034 0.929768917,7.73176257 0.538287268,7.34028092 Z M3.27865881,6.85092886 C3.52333484,6.60625283 3.62120526,6.21477118 3.62120526,5.77435433 L3.62120526,2.25101948 C3.62120526,1.76166742 3.52333484,1.41912098 3.27865881,1.12550974 C3.03398278,0.880833711 2.69143634,0.734028092 2.20208428,0.734028092 C1.71273222,0.734028092 1.32125057,0.880833711 1.12550974,1.12550974 C0.880833711,1.37018577 0.782963299,1.76166742 0.782963299,2.25101948 L0.782963299,5.77435433 C0.782963299,6.26370639 0.880833711,6.60625283 1.12550974,6.85092886 C1.37018577,7.09560489 1.71273222,7.24241051 2.20208428,7.24241051 C2.69143634,7.24241051 3.03398278,7.09560489 3.27865881,6.85092886 Z" id="形状" fill-rule="nonzero"></path>
                                <polygon id="路径" points="10.2020843 7.73176257 9.41912098 7.73176257 9.41912098 0.63615768 8 1.51699139 8 0.734028092 9.12550974 0 10.2020843 0"></polygon>
                                <polygon id="路径" points="15.2020843 7.73176257 14.419121 7.73176257 14.419121 0.63615768 13 1.51699139 13 0.734028092 14.1255097 0 15.2020843 0"></polygon>
                                <path d="M19.5382873,7.34028092 C19.1468056,6.94879928 19,6.41051201 19,5.72541912 L19,2.20208428 C19,1.51699139 19.1957408,0.978704123 19.5872225,0.587222474 C19.9787041,0.195740825 20.5169914,0 21.2510195,0 C21.9850476,0 22.5233348,0.195740825 22.9148165,0.587222474 C23.3062981,0.978704123 23.4531038,1.51699139 23.4531038,2.20208428 L23.4531038,5.72541912 C23.4531038,6.41051201 23.2573629,6.94879928 22.8658813,7.34028092 C22.4743996,7.73176257 21.9361124,7.9275034 21.2020843,7.9275034 C20.4680562,7.9275034 19.8808337,7.73176257 19.5382873,7.34028092 Z M22.2786588,6.85092886 C22.5233348,6.60625283 22.6212053,6.21477118 22.6212053,5.77435433 L22.6212053,2.25101948 C22.6212053,1.76166742 22.5233348,1.41912098 22.2786588,1.12550974 C22.0339828,0.880833711 21.6914363,0.734028092 21.2020843,0.734028092 C20.7127322,0.734028092 20.3212506,0.880833711 20.1255097,1.12550974 C19.8808337,1.37018577 19.7829633,1.76166742 19.7829633,2.25101948 L19.7829633,5.77435433 C19.7829633,6.26370639 19.8808337,6.60625283 20.1255097,6.85092886 C20.3701858,7.09560489 20.7127322,7.24241051 21.2020843,7.24241051 C21.6425011,7.24241051 22.0339828,7.09560489 22.2786588,6.85092886 Z" id="形状" fill-rule="nonzero"></path>
                                <path d="M27.5382873,7.34028092 C27.1468056,6.94879928 27,6.41051201 27,5.72541912 L27,2.20208428 C27,1.51699139 27.1957408,0.978704123 27.5872225,0.587222474 C27.9787041,0.195740825 28.5169914,0 29.2510195,0 C29.9850476,0 30.5233348,0.195740825 30.9148165,0.587222474 C31.3062981,0.978704123 31.4531038,1.51699139 31.4531038,2.20208428 L31.4531038,5.72541912 C31.4531038,6.41051201 31.2573629,6.94879928 30.8658813,7.34028092 C30.4743996,7.73176257 29.9361124,7.9275034 29.2020843,7.9275034 C28.4680562,7.9275034 27.9297689,7.73176257 27.5382873,7.34028092 Z M30.2786588,6.85092886 C30.5233348,6.60625283 30.6212053,6.21477118 30.6212053,5.77435433 L30.6212053,2.25101948 C30.6212053,1.76166742 30.5233348,1.41912098 30.2786588,1.12550974 C30.0339828,0.880833711 29.6914363,0.734028092 29.2020843,0.734028092 C28.7127322,0.734028092 28.3212506,0.880833711 28.1255097,1.12550974 C27.8808337,1.37018577 27.7829633,1.76166742 27.7829633,2.25101948 L27.7829633,5.77435433 C27.7829633,6.26370639 27.8808337,6.60625283 28.1255097,6.85092886 C28.3701858,7.09560489 28.7127322,7.24241051 29.2020843,7.24241051 C29.6914363,7.24241051 30.0339828,7.09560489 30.2786588,6.85092886 Z" id="形状" fill-rule="nonzero"></path>
                                <polygon id="路径" points="36.2020843 7.73176257 35.419121 7.73176257 35.419121 0.63615768 34 1.51699139 34 0.734028092 35.1255097 0 36.2020843 0"></polygon>
                                <polygon id="路径" points="41.2020843 7.73176257 40.419121 7.73176257 40.419121 0.63615768 39 1.51699139 39 0.734028092 40.1255097 0 41.2020843 0"></polygon>
                                <polygon id="路径" points="47.2020843 7.73176257 46.419121 7.73176257 46.419121 0.63615768 45 1.51699139 45 0.734028092 46.1255097 0 47.2020843 0"></polygon>
                                <path d="M50.5382873,7.34028092 C50.1468056,6.94879928 50,6.41051201 50,5.72541912 L50,2.20208428 C50,1.51699139 50.1957408,0.978704123 50.5872225,0.587222474 C50.9787041,0.195740825 51.5169914,0 52.2510195,0 C52.9850476,0 53.5233348,0.195740825 53.9148165,0.587222474 C54.3062981,0.978704123 54.4531038,1.51699139 54.4531038,2.20208428 L54.4531038,5.72541912 C54.4531038,6.41051201 54.2573629,6.94879928 53.8658813,7.34028092 C53.4743996,7.73176257 52.9361124,7.9275034 52.2020843,7.9275034 C51.4680562,7.9275034 50.8808337,7.73176257 50.5382873,7.34028092 Z M53.2786588,6.85092886 C53.5233348,6.60625283 53.6212053,6.21477118 53.6212053,5.77435433 L53.6212053,2.25101948 C53.6212053,1.76166742 53.5233348,1.41912098 53.2786588,1.12550974 C53.0339828,0.880833711 52.6914363,0.734028092 52.2020843,0.734028092 C51.7127322,0.734028092 51.3212506,0.880833711 51.1255097,1.12550974 C50.8808337,1.37018577 50.7829633,1.76166742 50.7829633,2.25101948 L50.7829633,5.77435433 C50.7829633,6.26370639 50.8808337,6.60625283 51.1255097,6.85092886 C51.3701858,7.09560489 51.7127322,7.24241051 52.2020843,7.24241051 C52.6425011,7.24241051 53.0339828,7.09560489 53.2786588,6.85092886 Z" id="形状" fill-rule="nonzero"></path>
                                <path d="M58.5382873,7.34028092 C58.1468056,6.94879928 58,6.41051201 58,5.72541912 L58,2.20208428 C58,1.51699139 58.1957408,0.978704123 58.5872225,0.587222474 C58.9787041,0.195740825 59.5169914,0 60.2510195,0 C60.9850476,0 61.5233348,0.195740825 61.9148165,0.587222474 C62.3062981,0.978704123 62.4531038,1.51699139 62.4531038,2.20208428 L62.4531038,5.72541912 C62.4531038,6.41051201 62.2573629,6.94879928 61.8658813,7.34028092 C61.4743996,7.73176257 60.9361124,7.9275034 60.2020843,7.9275034 C59.4680562,7.9275034 58.9297689,7.73176257 58.5382873,7.34028092 Z M61.2786588,6.85092886 C61.5233348,6.60625283 61.6212053,6.21477118 61.6212053,5.77435433 L61.6212053,2.25101948 C61.6212053,1.76166742 61.5233348,1.41912098 61.2786588,1.12550974 C61.0339828,0.880833711 60.6914363,0.734028092 60.2020843,0.734028092 C59.7127322,0.734028092 59.3212506,0.880833711 59.1255097,1.12550974 C58.8808337,1.37018577 58.7829633,1.76166742 58.7829633,2.25101948 L58.7829633,5.77435433 C58.7829633,6.26370639 58.8808337,6.60625283 59.1255097,6.85092886 C59.3701858,7.09560489 59.7127322,7.24241051 60.2020843,7.24241051 C60.6914363,7.24241051 61.0339828,7.09560489 61.2786588,6.85092886 Z" id="形状" fill-rule="nonzero"></path>
                            </g>
                            <g opacity="0.2" transform="translate(33.275940, 30.829180)" fill="#CC314B">
                                <path d="M0.538287268,7.34028092 C0.146805618,6.94879928 0,6.41051201 0,5.72541912 L0,2.20208428 C0,1.51699139 0.195740825,0.978704123 0.587222474,0.587222474 C0.978704123,0.195740825 1.51699139,0 2.25101948,0 C2.98504758,0 3.52333484,0.195740825 3.91481649,0.587222474 C4.30629814,0.978704123 4.45310376,1.51699139 4.45310376,2.20208428 L4.45310376,5.72541912 C4.45310376,6.41051201 4.25736294,6.94879928 3.86588129,7.34028092 C3.47439964,7.73176257 2.93611237,7.9275034 2.20208428,7.9275034 C1.46805618,7.9275034 0.929768917,7.73176257 0.538287268,7.34028092 Z M3.27865881,6.85092886 C3.52333484,6.60625283 3.62120526,6.21477118 3.62120526,5.77435433 L3.62120526,2.25101948 C3.62120526,1.76166742 3.52333484,1.41912098 3.27865881,1.12550974 C3.03398278,0.831898505 2.69143634,0.734028092 2.20208428,0.734028092 C1.71273222,0.734028092 1.32125057,0.880833711 1.12550974,1.12550974 C0.929768917,1.37018577 0.782963299,1.76166742 0.782963299,2.25101948 L0.782963299,5.77435433 C0.782963299,6.26370639 0.880833711,6.60625283 1.12550974,6.85092886 C1.37018577,7.09560489 1.71273222,7.24241051 2.20208428,7.24241051 C2.69143634,7.19347531 3.03398278,7.09560489 3.27865881,6.85092886 Z" id="形状" fill-rule="nonzero"></path>
                                <polygon id="路径" points="9.20208428 7.73176257 8.41912098 7.73176257 8.41912098 0.63615768 7 1.51699139 7 0.734028092 8.12550974 0 9.20208428 0"></polygon>
                                <polygon id="路径" points="14.2020843 7.73176257 13.419121 7.73176257 13.419121 0.63615768 12 1.51699139 12 0.734028092 13.1255097 0 14.2020843 0"></polygon>
                                <path d="M18.5382873,7.34028092 C18.1468056,6.94879928 18,6.41051201 18,5.72541912 L18,2.20208428 C18,1.51699139 18.1957408,0.978704123 18.5872225,0.587222474 C18.9787041,0.195740825 19.5169914,0 20.2510195,0 C20.9850476,0 21.5233348,0.195740825 21.9148165,0.587222474 C22.3062981,0.978704123 22.4531038,1.51699139 22.4531038,2.20208428 L22.4531038,5.72541912 C22.4531038,6.41051201 22.2573629,6.94879928 21.8658813,7.34028092 C21.4743996,7.73176257 20.9361124,7.9275034 20.2020843,7.9275034 C19.4680562,7.9275034 18.8808337,7.73176257 18.5382873,7.34028092 Z M21.2786588,6.85092886 C21.5233348,6.60625283 21.6212053,6.21477118 21.6212053,5.77435433 L21.6212053,2.25101948 C21.6212053,1.76166742 21.5233348,1.41912098 21.2786588,1.12550974 C21.0339828,0.831898505 20.6914363,0.734028092 20.2020843,0.734028092 C19.7127322,0.734028092 19.3212506,0.880833711 19.1255097,1.12550974 C18.8808337,1.37018577 18.7829633,1.76166742 18.7829633,2.25101948 L18.7829633,5.77435433 C18.7829633,6.26370639 18.8808337,6.60625283 19.1255097,6.85092886 C19.3701858,7.09560489 19.7127322,7.24241051 20.2020843,7.24241051 C20.6914363,7.24241051 21.0339828,7.09560489 21.2786588,6.85092886 Z" id="形状" fill-rule="nonzero"></path>
                                <path d="M26.5382873,7.34028092 C26.1468056,6.94879928 26,6.41051201 26,5.72541912 L26,2.20208428 C26,1.51699139 26.1957408,0.978704123 26.5872225,0.587222474 C26.9787041,0.195740825 27.5169914,0 28.2510195,0 C28.9850476,0 29.5233348,0.195740825 29.9148165,0.587222474 C30.3062981,0.978704123 30.4531038,1.51699139 30.4531038,2.20208428 L30.4531038,5.72541912 C30.4531038,6.41051201 30.2573629,6.94879928 29.8658813,7.34028092 C29.4743996,7.73176257 28.9361124,7.9275034 28.2020843,7.9275034 C27.4680562,7.9275034 26.9297689,7.73176257 26.5382873,7.34028092 Z M29.2786588,6.85092886 C29.5233348,6.60625283 29.6212053,6.21477118 29.6212053,5.77435433 L29.6212053,2.25101948 C29.6212053,1.76166742 29.5233348,1.41912098 29.2786588,1.12550974 C29.0339828,0.831898505 28.6914363,0.734028092 28.2020843,0.734028092 C27.7127322,0.734028092 27.3212506,0.880833711 27.1255097,1.12550974 C26.9297689,1.37018577 26.7829633,1.76166742 26.7829633,2.25101948 L26.7829633,5.77435433 C26.7829633,6.26370639 26.8808337,6.60625283 27.1255097,6.85092886 C27.3701858,7.09560489 27.7127322,7.24241051 28.2020843,7.24241051 C28.6914363,7.19347531 29.0339828,7.09560489 29.2786588,6.85092886 Z" id="形状" fill-rule="nonzero"></path>
                                <polygon id="路径" points="35.2020843 7.73176257 34.419121 7.73176257 34.419121 0.63615768 33 1.51699139 33 0.734028092 34.1255097 0 35.2020843 0"></polygon>
                                <polygon id="路径" points="41.2020843 7.73176257 40.419121 7.73176257 40.419121 0.63615768 39 1.51699139 39 0.734028092 40.1255097 0 41.2020843 0"></polygon>
                                <polygon id="路径" points="46.2020843 7.73176257 45.419121 7.73176257 45.419121 0.63615768 44 1.51699139 44 0.734028092 45.1255097 0 46.2020843 0"></polygon>
                                <path d="M50.5382873,7.34028092 C50.1468056,6.94879928 50,6.41051201 50,5.72541912 L50,2.20208428 C50,1.51699139 50.1957408,0.978704123 50.5872225,0.587222474 C50.9787041,0.195740825 51.5169914,0 52.2510195,0 C52.9850476,0 53.5233348,0.195740825 53.9148165,0.587222474 C54.3062981,0.978704123 54.4531038,1.51699139 54.4531038,2.20208428 L54.4531038,5.72541912 C54.4531038,6.41051201 54.2573629,6.94879928 53.8658813,7.34028092 C53.4743996,7.73176257 52.9361124,7.9275034 52.2020843,7.9275034 C51.4680562,7.9275034 50.8808337,7.73176257 50.5382873,7.34028092 Z M53.2786588,6.85092886 C53.5233348,6.60625283 53.6212053,6.21477118 53.6212053,5.77435433 L53.6212053,2.25101948 C53.6212053,1.76166742 53.5233348,1.41912098 53.2786588,1.12550974 C53.0339828,0.831898505 52.6914363,0.734028092 52.2020843,0.734028092 C51.7127322,0.734028092 51.3212506,0.880833711 51.1255097,1.12550974 C50.9297689,1.37018577 50.7829633,1.76166742 50.7829633,2.25101948 L50.7829633,5.77435433 C50.7829633,6.26370639 50.8808337,6.60625283 51.1255097,6.85092886 C51.3701858,7.09560489 51.7127322,7.24241051 52.2020843,7.24241051 C52.6914363,7.24241051 53.0339828,7.09560489 53.2786588,6.85092886 Z" id="形状" fill-rule="nonzero"></path>
                                <path d="M57.5382873,7.34028092 C57.1468056,6.94879928 57,6.41051201 57,5.72541912 L57,2.20208428 C57,1.51699139 57.1957408,0.978704123 57.5872225,0.587222474 C57.9787041,0.195740825 58.5169914,0 59.2510195,0 C59.9850476,0 60.5233348,0.195740825 60.9148165,0.587222474 C61.3062981,0.978704123 61.4531038,1.51699139 61.4531038,2.20208428 L61.4531038,5.72541912 C61.4531038,6.41051201 61.2573629,6.94879928 60.8658813,7.34028092 C60.4743996,7.73176257 59.9361124,7.9275034 59.2020843,7.9275034 C58.4680562,7.9275034 57.9297689,7.73176257 57.5382873,7.34028092 Z M60.2786588,6.85092886 C60.5233348,6.60625283 60.6212053,6.21477118 60.6212053,5.77435433 L60.6212053,2.25101948 C60.6212053,1.76166742 60.5233348,1.41912098 60.2786588,1.12550974 C60.0339828,0.831898505 59.6914363,0.734028092 59.2020843,0.734028092 C58.7127322,0.734028092 58.3212506,0.880833711 58.1255097,1.12550974 C57.9297689,1.37018577 57.7829633,1.76166742 57.7829633,2.25101948 L57.7829633,5.77435433 C57.7829633,6.26370639 57.8808337,6.60625283 58.1255097,6.85092886 C58.3701858,7.09560489 58.7127322,7.24241051 59.2020843,7.24241051 C59.6914363,7.19347531 60.0339828,7.09560489 60.2786588,6.85092886 Z" id="形状" fill-rule="nonzero"></path>
                            </g>
                            <g opacity="0.2" transform="translate(20.042139, 41.105573)" fill="#BF1F3A">
                                <path d="M0.538287268,7.34028092 C0.146805618,6.94879928 0,6.41051201 0,5.72541912 L0,2.20208428 C0,1.51699139 0.195740825,0.978704123 0.587222474,0.587222474 C0.978704123,0.195740825 1.51699139,0 2.25101948,0 C2.98504758,0 3.52333484,0.195740825 3.91481649,0.587222474 C4.30629814,0.978704123 4.45310376,1.51699139 4.45310376,2.20208428 L4.45310376,5.72541912 C4.45310376,6.41051201 4.25736294,6.94879928 3.86588129,7.34028092 C3.47439964,7.73176257 2.93611237,7.9275034 2.20208428,7.9275034 C1.46805618,7.9275034 0.929768917,7.73176257 0.538287268,7.34028092 Z M3.27865881,6.85092886 C3.52333484,6.60625283 3.62120526,6.21477118 3.62120526,5.77435433 L3.62120526,2.25101948 C3.62120526,1.76166742 3.52333484,1.41912098 3.27865881,1.12550974 C3.03398278,0.880833711 2.69143634,0.734028092 2.20208428,0.734028092 C1.71273222,0.734028092 1.32125057,0.880833711 1.12550974,1.12550974 C0.880833711,1.37018577 0.782963299,1.76166742 0.782963299,2.25101948 L0.782963299,5.77435433 C0.782963299,6.26370639 0.880833711,6.60625283 1.12550974,6.85092886 C1.37018577,7.09560489 1.71273222,7.24241051 2.20208428,7.24241051 C2.69143634,7.19347531 3.03398278,7.09560489 3.27865881,6.85092886 Z" id="形状" fill-rule="nonzero"></path>
                                <polygon id="路径" points="10.2020843 7.73176257 9.41912098 7.73176257 9.41912098 0.63615768 8 1.51699139 8 0.734028092 9.12550974 0 10.2020843 0"></polygon>
                                <polygon id="路径" points="15.2020843 7.73176257 14.419121 7.73176257 14.419121 0.63615768 13 1.51699139 13 0.734028092 14.1255097 0 15.2020843 0"></polygon>
                                <path d="M19.5382873,7.34028092 C19.1468056,6.94879928 19,6.41051201 19,5.72541912 L19,2.20208428 C19,1.51699139 19.1957408,0.978704123 19.5872225,0.587222474 C19.9787041,0.195740825 20.5169914,0 21.2510195,0 C21.9850476,0 22.5233348,0.195740825 22.9148165,0.587222474 C23.3062981,0.978704123 23.4531038,1.51699139 23.4531038,2.20208428 L23.4531038,5.72541912 C23.4531038,6.41051201 23.2573629,6.94879928 22.8658813,7.34028092 C22.4743996,7.73176257 21.9361124,7.9275034 21.2020843,7.9275034 C20.4680562,7.9275034 19.9297689,7.73176257 19.5382873,7.34028092 Z M22.2786588,6.85092886 C22.5233348,6.60625283 22.6212053,6.21477118 22.6212053,5.77435433 L22.6212053,2.25101948 C22.6212053,1.76166742 22.5233348,1.41912098 22.2786588,1.12550974 C22.0339828,0.880833711 21.6914363,0.734028092 21.2020843,0.734028092 C20.7127322,0.734028092 20.3212506,0.880833711 20.1255097,1.12550974 C19.8808337,1.37018577 19.7829633,1.76166742 19.7829633,2.25101948 L19.7829633,5.77435433 C19.7829633,6.26370639 19.8808337,6.60625283 20.1255097,6.85092886 C20.3701858,7.09560489 20.7127322,7.24241051 21.2020843,7.24241051 C21.6914363,7.19347531 22.0339828,7.09560489 22.2786588,6.85092886 Z" id="形状" fill-rule="nonzero"></path>
                                <path d="M27.5382873,7.34028092 C27.1468056,6.94879928 27,6.41051201 27,5.72541912 L27,2.20208428 C27,1.51699139 27.1957408,0.978704123 27.5872225,0.587222474 C27.9787041,0.195740825 28.5169914,0 29.2510195,0 C29.9850476,0 30.5233348,0.195740825 30.9148165,0.587222474 C31.3062981,0.978704123 31.4531038,1.51699139 31.4531038,2.20208428 L31.4531038,5.72541912 C31.4531038,6.41051201 31.2573629,6.94879928 30.8658813,7.34028092 C30.4743996,7.73176257 29.9361124,7.9275034 29.2020843,7.9275034 C28.419121,7.9275034 27.8808337,7.73176257 27.5382873,7.34028092 Z M30.2786588,6.85092886 C30.5233348,6.60625283 30.6212053,6.21477118 30.6212053,5.77435433 L30.6212053,2.25101948 C30.6212053,1.76166742 30.5233348,1.41912098 30.2786588,1.12550974 C30.0339828,0.880833711 29.6914363,0.734028092 29.2020843,0.734028092 C28.7127322,0.734028092 28.3212506,0.880833711 28.1255097,1.12550974 C27.8808337,1.37018577 27.7829633,1.76166742 27.7829633,2.25101948 L27.7829633,5.77435433 C27.7829633,6.26370639 27.8808337,6.60625283 28.1255097,6.85092886 C28.3701858,7.09560489 28.7127322,7.24241051 29.2020843,7.24241051 C29.6425011,7.19347531 30.0339828,7.09560489 30.2786588,6.85092886 Z" id="形状" fill-rule="nonzero"></path>
                                <polygon id="路径" points="36.2020843 7.73176257 35.419121 7.73176257 35.419121 0.63615768 34 1.51699139 34 0.734028092 35.1255097 0 36.2020843 0"></polygon>
                                <polygon id="路径" points="41.2020843 7.73176257 40.419121 7.73176257 40.419121 0.63615768 39 1.51699139 39 0.734028092 40.1255097 0 41.2020843 0"></polygon>
                                <polygon id="路径" points="47.2020843 7.73176257 46.419121 7.73176257 46.419121 0.63615768 45 1.51699139 45 0.734028092 46.1255097 0 47.2020843 0"></polygon>
                                <path d="M50.5382873,7.34028092 C50.1468056,6.94879928 50,6.41051201 50,5.72541912 L50,2.20208428 C50,1.51699139 50.1957408,0.978704123 50.5872225,0.587222474 C50.9787041,0.195740825 51.5169914,0 52.2510195,0 C52.9850476,0 53.5233348,0.195740825 53.9148165,0.587222474 C54.3062981,0.978704123 54.4531038,1.51699139 54.4531038,2.20208428 L54.4531038,5.72541912 C54.4531038,6.41051201 54.2573629,6.94879928 53.8658813,7.34028092 C53.4743996,7.73176257 52.9361124,7.9275034 52.2020843,7.9275034 C51.4680562,7.9275034 50.9297689,7.73176257 50.5382873,7.34028092 Z M53.2786588,6.85092886 C53.5233348,6.60625283 53.6212053,6.21477118 53.6212053,5.77435433 L53.6212053,2.25101948 C53.6212053,1.76166742 53.5233348,1.41912098 53.2786588,1.12550974 C53.0339828,0.880833711 52.6914363,0.734028092 52.2020843,0.734028092 C51.7127322,0.734028092 51.3212506,0.880833711 51.1255097,1.12550974 C50.8808337,1.37018577 50.7829633,1.76166742 50.7829633,2.25101948 L50.7829633,5.77435433 C50.7829633,6.26370639 50.8808337,6.60625283 51.1255097,6.85092886 C51.3701858,7.09560489 51.7127322,7.24241051 52.2020843,7.24241051 C52.6914363,7.19347531 53.0339828,7.09560489 53.2786588,6.85092886 Z" id="形状" fill-rule="nonzero"></path>
                                <path d="M58.5382873,7.34028092 C58.1468056,6.94879928 58,6.41051201 58,5.72541912 L58,2.20208428 C58,1.51699139 58.1957408,0.978704123 58.5872225,0.587222474 C58.9787041,0.195740825 59.5169914,0 60.2510195,0 C60.9850476,0 61.5233348,0.195740825 61.9148165,0.587222474 C62.3062981,0.978704123 62.4531038,1.51699139 62.4531038,2.20208428 L62.4531038,5.72541912 C62.4531038,6.41051201 62.2573629,6.94879928 61.8658813,7.34028092 C61.4743996,7.73176257 60.9361124,7.9275034 60.2020843,7.9275034 C59.419121,7.9275034 58.8808337,7.73176257 58.5382873,7.34028092 Z M61.2786588,6.85092886 C61.5233348,6.60625283 61.6212053,6.21477118 61.6212053,5.77435433 L61.6212053,2.25101948 C61.6212053,1.76166742 61.5233348,1.41912098 61.2786588,1.12550974 C61.0339828,0.880833711 60.6914363,0.734028092 60.2020843,0.734028092 C59.7127322,0.734028092 59.3212506,0.880833711 59.1255097,1.12550974 C58.8808337,1.37018577 58.7829633,1.76166742 58.7829633,2.25101948 L58.7829633,5.77435433 C58.7829633,6.26370639 58.8808337,6.60625283 59.1255097,6.85092886 C59.3701858,7.09560489 59.7127322,7.24241051 60.2020843,7.24241051 C60.6425011,7.19347531 61.0339828,7.09560489 61.2786588,6.85092886 Z" id="形状" fill-rule="nonzero"></path>
                            </g>
                            <g opacity="0.2" transform="translate(40.126869, 52.339375)" fill="#BF1F3A">
                                <path d="M0.538287268,7.34028092 C0.146805618,6.94879928 0,6.41051201 0,5.72541912 L0,2.20208428 C0,1.51699139 0.195740825,0.978704123 0.587222474,0.587222474 C0.978704123,0.195740825 1.51699139,0 2.25101948,0 C2.98504758,0 3.52333484,0.195740825 3.91481649,0.587222474 C4.30629814,0.978704123 4.45310376,1.51699139 4.45310376,2.20208428 L4.45310376,5.72541912 C4.45310376,6.41051201 4.25736294,6.94879928 3.86588129,7.34028092 C3.47439964,7.73176257 2.93611237,7.9275034 2.20208428,7.9275034 C1.46805618,7.9275034 0.929768917,7.73176257 0.538287268,7.34028092 Z M3.27865881,6.80199366 C3.52333484,6.55731763 3.62120526,6.16583598 3.62120526,5.72541912 L3.62120526,2.20208428 C3.62120526,1.71273222 3.52333484,1.37018577 3.27865881,1.07657454 C3.03398278,0.782963299 2.69143634,0.685092886 2.20208428,0.685092886 C1.71273222,0.685092886 1.32125057,0.831898505 1.12550974,1.07657454 C0.929768917,1.32125057 0.782963299,1.71273222 0.782963299,2.20208428 L0.782963299,5.72541912 C0.782963299,6.21477118 0.880833711,6.55731763 1.12550974,6.80199366 C1.37018577,7.04666969 1.71273222,7.19347531 2.20208428,7.19347531 C2.69143634,7.19347531 3.03398278,7.09560489 3.27865881,6.80199366 Z" id="形状" fill-rule="nonzero"></path>
                                <polygon id="路径" points="9.20208428 7.73176257 8.41912098 7.73176257 8.41912098 0.63615768 7 1.51699139 7 0.734028092 8.12550974 0 9.20208428 0"></polygon>
                                <polygon id="路径" points="14.2020843 7.73176257 13.419121 7.73176257 13.419121 0.63615768 12 1.51699139 12 0.734028092 13.1255097 0 14.2020843 0 14.2020843 7.73176257"></polygon>
                                <path d="M18.5382873,7.34028092 C18.1468056,6.94879928 18,6.41051201 18,5.72541912 L18,2.20208428 C18,1.51699139 18.1957408,0.978704123 18.5872225,0.587222474 C18.9787041,0.195740825 19.5169914,0 20.2510195,0 C20.9850476,0 21.5233348,0.195740825 21.9148165,0.587222474 C22.3062981,0.978704123 22.4531038,1.51699139 22.4531038,2.20208428 L22.4531038,5.72541912 C22.4531038,6.41051201 22.2573629,6.94879928 21.8658813,7.34028092 C21.4743996,7.73176257 20.9361124,7.9275034 20.2020843,7.9275034 C19.4680562,7.9275034 18.8808337,7.73176257 18.5382873,7.34028092 Z M21.2786588,6.80199366 C21.5233348,6.55731763 21.6212053,6.16583598 21.6212053,5.72541912 L21.6212053,2.20208428 C21.6212053,1.71273222 21.5233348,1.37018577 21.2786588,1.07657454 C21.0339828,0.782963299 20.6914363,0.685092886 20.2020843,0.685092886 C19.7127322,0.685092886 19.3212506,0.831898505 19.1255097,1.07657454 C18.9297689,1.32125057 18.7829633,1.71273222 18.7829633,2.20208428 L18.7829633,5.72541912 C18.7829633,6.21477118 18.8808337,6.55731763 19.1255097,6.80199366 C19.3701858,7.04666969 19.7127322,7.19347531 20.2020843,7.19347531 C20.6914363,7.19347531 21.0339828,7.09560489 21.2786588,6.80199366 Z" id="形状" fill-rule="nonzero"></path>
                                <path d="M26.5382873,7.34028092 C26.1468056,6.94879928 26,6.41051201 26,5.72541912 L26,2.20208428 C26,1.51699139 26.1957408,0.978704123 26.5872225,0.587222474 C26.9787041,0.195740825 27.5169914,0 28.2510195,0 C28.9850476,0 29.5233348,0.195740825 29.9148165,0.587222474 C30.3062981,0.978704123 30.4531038,1.51699139 30.4531038,2.20208428 L30.4531038,5.72541912 C30.4531038,6.41051201 30.2573629,6.94879928 29.8658813,7.34028092 C29.4743996,7.73176257 28.9361124,7.9275034 28.2020843,7.9275034 C27.4680562,7.9275034 26.9297689,7.73176257 26.5382873,7.34028092 Z M29.2786588,6.80199366 C29.5233348,6.55731763 29.6212053,6.16583598 29.6212053,5.72541912 L29.6212053,2.20208428 C29.6212053,1.71273222 29.5233348,1.37018577 29.2786588,1.07657454 C29.0339828,0.782963299 28.6914363,0.685092886 28.2020843,0.685092886 C27.7127322,0.685092886 27.3212506,0.831898505 27.1255097,1.07657454 C26.9297689,1.32125057 26.7829633,1.71273222 26.7829633,2.20208428 L26.7829633,5.72541912 C26.7829633,6.21477118 26.8808337,6.55731763 27.1255097,6.80199366 C27.3701858,7.04666969 27.7127322,7.19347531 28.2020843,7.19347531 C28.6914363,7.19347531 29.0339828,7.09560489 29.2786588,6.80199366 Z" id="形状" fill-rule="nonzero"></path>
                                <polygon id="路径" points="35.2020843 7.73176257 34.419121 7.73176257 34.419121 0.63615768 33 1.51699139 33 0.734028092 34.1255097 0 35.2020843 0"></polygon>
                                <polygon id="路径" points="41.2020843 7.73176257 40.419121 7.73176257 40.419121 0.63615768 39 1.51699139 39 0.734028092 40.1255097 0 41.2020843 0"></polygon>
                                <polygon id="路径" points="46.2020843 7.73176257 45.419121 7.73176257 45.419121 0.63615768 44 1.51699139 44 0.734028092 45.1255097 0 46.2020843 0"></polygon>
                                <path d="M50.5382873,7.34028092 C50.1468056,6.94879928 50,6.41051201 50,5.72541912 L50,2.20208428 C50,1.51699139 50.1957408,0.978704123 50.5872225,0.587222474 C50.9787041,0.195740825 51.5169914,0 52.2510195,0 C52.9850476,0 53.5233348,0.195740825 53.9148165,0.587222474 C54.3062981,0.978704123 54.4531038,1.51699139 54.4531038,2.20208428 L54.4531038,5.72541912 C54.4531038,6.41051201 54.2573629,6.94879928 53.8658813,7.34028092 C53.4743996,7.73176257 52.9361124,7.9275034 52.2020843,7.9275034 C51.4680562,7.9275034 50.8808337,7.73176257 50.5382873,7.34028092 Z M53.2786588,6.80199366 C53.5233348,6.55731763 53.6212053,6.16583598 53.6212053,5.72541912 L53.6212053,2.20208428 C53.6212053,1.71273222 53.5233348,1.37018577 53.2786588,1.07657454 C53.0339828,0.831898505 52.6914363,0.685092886 52.2020843,0.685092886 C51.7127322,0.685092886 51.3212506,0.831898505 51.1255097,1.07657454 C50.8808337,1.32125057 50.7829633,1.71273222 50.7829633,2.20208428 L50.7829633,5.72541912 C50.7829633,6.21477118 50.8808337,6.55731763 51.1255097,6.80199366 C51.3701858,7.04666969 51.7127322,7.19347531 52.2020843,7.19347531 C52.6425011,7.19347531 53.0339828,7.09560489 53.2786588,6.80199366 Z" id="形状" fill-rule="nonzero"></path>
                                <path d="M58.5382873,7.34028092 C58.1468056,6.94879928 58,6.41051201 58,5.72541912 L58,2.20208428 C58,1.51699139 58.1957408,0.978704123 58.5872225,0.587222474 C58.9787041,0.195740825 59.5169914,0 60.2510195,0 C60.9850476,0 61.5233348,0.195740825 61.9148165,0.587222474 C62.3062981,0.978704123 62.4531038,1.51699139 62.4531038,2.20208428 L62.4531038,5.72541912 C62.4531038,6.41051201 62.2573629,6.94879928 61.8658813,7.34028092 C61.4743996,7.73176257 60.9361124,7.9275034 60.2020843,7.9275034 C59.4680562,7.9275034 58.9297689,7.73176257 58.5382873,7.34028092 Z M61.2786588,6.80199366 C61.5233348,6.55731763 61.6212053,6.16583598 61.6212053,5.72541912 L61.6212053,2.20208428 C61.6212053,1.71273222 61.5233348,1.37018577 61.2786588,1.07657454 C61.0339828,0.782963299 60.6914363,0.685092886 60.2020843,0.685092886 C59.7127322,0.685092886 59.3212506,0.831898505 59.1255097,1.07657454 C58.9297689,1.32125057 58.7829633,1.71273222 58.7829633,2.20208428 L58.7829633,5.72541912 C58.7829633,6.21477118 58.8808337,6.55731763 59.1255097,6.80199366 C59.3701858,7.04666969 59.7127322,7.19347531 60.2020843,7.19347531 C60.6914363,7.19347531 61.0339828,7.09560489 61.2786588,6.80199366 Z" id="形状" fill-rule="nonzero"></path>
                            </g>
                            <g opacity="0.2" transform="translate(26.893068, 74.870865)" fill="#BF1F3A">
                                <path d="M0.538287268,7.34028092 C0.146805618,6.94879928 0,6.41051201 0,5.72541912 L0,2.20208428 C0,1.51699139 0.195740825,0.978704123 0.587222474,0.587222474 C0.978704123,0.195740825 1.51699139,0 2.25101948,0 C2.98504758,0 3.52333484,0.195740825 3.91481649,0.587222474 C4.30629814,0.978704123 4.45310376,1.51699139 4.45310376,2.20208428 L4.45310376,5.72541912 C4.45310376,6.41051201 4.25736294,6.94879928 3.86588129,7.34028092 C3.47439964,7.73176257 2.93611237,7.9275034 2.20208428,7.9275034 C1.46805618,7.9275034 0.929768917,7.73176257 0.538287268,7.34028092 Z M3.27865881,6.85092886 C3.52333484,6.60625283 3.62120526,6.21477118 3.62120526,5.77435433 L3.62120526,2.25101948 C3.62120526,1.76166742 3.52333484,1.41912098 3.27865881,1.12550974 C3.03398278,0.880833711 2.69143634,0.734028092 2.20208428,0.734028092 C1.71273222,0.734028092 1.32125057,0.880833711 1.12550974,1.12550974 C0.880833711,1.37018577 0.782963299,1.76166742 0.782963299,2.25101948 L0.782963299,5.77435433 C0.782963299,6.26370639 0.880833711,6.60625283 1.12550974,6.85092886 C1.37018577,7.09560489 1.71273222,7.24241051 2.20208428,7.24241051 C2.69143634,7.24241051 3.03398278,7.09560489 3.27865881,6.85092886 Z" id="形状" fill-rule="nonzero"></path>
                                <polygon id="路径" points="10.2020843 7.73176257 9.41912098 7.73176257 9.41912098 0.63615768 8 1.51699139 8 0.734028092 9.12550974 0 10.2020843 0"></polygon>
                                <polygon id="路径" points="15.2020843 7.73176257 14.419121 7.73176257 14.419121 0.63615768 13 1.51699139 13 0.734028092 14.1255097 0 15.2020843 0"></polygon>
                                <path d="M19.5382873,7.34028092 C19.1468056,6.94879928 19,6.41051201 19,5.72541912 L19,2.20208428 C19,1.51699139 19.1957408,0.978704123 19.5872225,0.587222474 C19.9787041,0.195740825 20.5169914,0 21.2510195,0 C21.9850476,0 22.5233348,0.195740825 22.9148165,0.587222474 C23.3062981,0.978704123 23.4531038,1.51699139 23.4531038,2.20208428 L23.4531038,5.72541912 C23.4531038,6.41051201 23.2573629,6.94879928 22.8658813,7.34028092 C22.4743996,7.73176257 21.9361124,7.9275034 21.2020843,7.9275034 C20.4680562,7.9275034 19.9297689,7.73176257 19.5382873,7.34028092 Z M22.2786588,6.85092886 C22.5233348,6.60625283 22.6212053,6.21477118 22.6212053,5.77435433 L22.6212053,2.25101948 C22.6212053,1.76166742 22.5233348,1.41912098 22.2786588,1.12550974 C22.0339828,0.880833711 21.6914363,0.734028092 21.2020843,0.734028092 C20.7127322,0.734028092 20.3212506,0.880833711 20.1255097,1.12550974 C19.8808337,1.37018577 19.7829633,1.76166742 19.7829633,2.25101948 L19.7829633,5.77435433 C19.7829633,6.26370639 19.8808337,6.60625283 20.1255097,6.85092886 C20.3701858,7.09560489 20.7127322,7.24241051 21.2020843,7.24241051 C21.6914363,7.24241051 22.0339828,7.09560489 22.2786588,6.85092886 Z" id="形状" fill-rule="nonzero"></path>
                                <path d="M27.5382873,7.34028092 C27.1468056,6.94879928 27,6.41051201 27,5.72541912 L27,2.20208428 C27,1.51699139 27.1957408,0.978704123 27.5872225,0.587222474 C27.9787041,0.195740825 28.5169914,0 29.2510195,0 C29.9850476,0 30.5233348,0.195740825 30.9148165,0.587222474 C31.3062981,0.978704123 31.4531038,1.51699139 31.4531038,2.20208428 L31.4531038,5.72541912 C31.4531038,6.41051201 31.2573629,6.94879928 30.8658813,7.34028092 C30.4743996,7.73176257 29.9361124,7.9275034 29.2020843,7.9275034 C28.4680562,7.9275034 27.9297689,7.73176257 27.5382873,7.34028092 Z M30.2786588,6.85092886 C30.5233348,6.60625283 30.6212053,6.21477118 30.6212053,5.77435433 L30.6212053,2.25101948 C30.6212053,1.76166742 30.5233348,1.41912098 30.2786588,1.12550974 C30.0339828,0.880833711 29.6914363,0.734028092 29.2020843,0.734028092 C28.7127322,0.734028092 28.3212506,0.880833711 28.1255097,1.12550974 C27.8808337,1.37018577 27.7829633,1.76166742 27.7829633,2.25101948 L27.7829633,5.77435433 C27.7829633,6.26370639 27.8808337,6.60625283 28.1255097,6.85092886 C28.3701858,7.09560489 28.7127322,7.24241051 29.2020843,7.24241051 C29.6914363,7.24241051 30.082918,7.09560489 30.2786588,6.85092886 Z" id="形状" fill-rule="nonzero"></path>
                                <polygon id="路径" points="36.2020843 7.73176257 35.419121 7.73176257 35.419121 0.63615768 34 1.51699139 34 0.734028092 35.1255097 0 36.2020843 0"></polygon>
                                <polygon id="路径" points="41.2020843 7.73176257 40.419121 7.73176257 40.419121 0.63615768 39 1.51699139 39 0.734028092 40.1255097 0 41.2020843 0"></polygon>
                                <polygon id="路径" points="47.2020843 7.73176257 46.419121 7.73176257 46.419121 0.63615768 45 1.51699139 45 0.734028092 46.1255097 0 47.2020843 0"></polygon>
                                <path d="M51.5382873,7.34028092 C51.1468056,6.94879928 51,6.41051201 51,5.72541912 L51,2.20208428 C51,1.51699139 51.1957408,0.978704123 51.5872225,0.587222474 C51.9787041,0.195740825 52.5169914,0 53.2510195,0 C53.9850476,0 54.5233348,0.195740825 54.9148165,0.587222474 C55.3062981,0.978704123 55.4531038,1.51699139 55.4531038,2.20208428 L55.4531038,5.72541912 C55.4531038,6.41051201 55.2573629,6.94879928 54.8658813,7.34028092 C54.4743996,7.73176257 53.9361124,7.9275034 53.2020843,7.9275034 C52.4680562,7.9275034 51.8808337,7.73176257 51.5382873,7.34028092 Z M54.2786588,6.85092886 C54.5233348,6.60625283 54.6212053,6.21477118 54.6212053,5.77435433 L54.6212053,2.25101948 C54.6212053,1.76166742 54.5233348,1.41912098 54.2786588,1.12550974 C54.0339828,0.880833711 53.6914363,0.734028092 53.2020843,0.734028092 C52.7127322,0.734028092 52.3212506,0.880833711 52.1255097,1.12550974 C51.8808337,1.37018577 51.7829633,1.76166742 51.7829633,2.25101948 L51.7829633,5.77435433 C51.7829633,6.26370639 51.8808337,6.60625283 52.1255097,6.85092886 C52.3701858,7.09560489 52.7127322,7.24241051 53.2020843,7.24241051 C53.6914363,7.24241051 54.0339828,7.09560489 54.2786588,6.85092886 Z" id="形状" fill-rule="nonzero"></path>
                                <path d="M58.5382873,7.34028092 C58.1468056,6.94879928 58,6.41051201 58,5.72541912 L58,2.20208428 C58,1.51699139 58.1957408,0.978704123 58.5872225,0.587222474 C58.9787041,0.195740825 59.5169914,0 60.2510195,0 C60.9850476,0 61.5233348,0.195740825 61.9148165,0.587222474 C62.3062981,0.978704123 62.4531038,1.51699139 62.4531038,2.20208428 L62.4531038,5.72541912 C62.4531038,6.41051201 62.2573629,6.94879928 61.8658813,7.34028092 C61.4743996,7.73176257 60.9361124,7.9275034 60.2020843,7.9275034 C59.4680562,7.9275034 58.9297689,7.73176257 58.5382873,7.34028092 Z M61.2786588,6.85092886 C61.5233348,6.60625283 61.6212053,6.21477118 61.6212053,5.77435433 L61.6212053,2.25101948 C61.6212053,1.76166742 61.5233348,1.41912098 61.2786588,1.12550974 C61.0339828,0.880833711 60.6914363,0.734028092 60.2020843,0.734028092 C59.7127322,0.734028092 59.3212506,0.880833711 59.1255097,1.12550974 C58.8808337,1.37018577 58.7829633,1.76166742 58.7829633,2.25101948 L58.7829633,5.77435433 C58.7829633,6.26370639 58.8808337,6.60625283 59.1255097,6.85092886 C59.3701858,7.09560489 59.7127322,7.24241051 60.2020843,7.24241051 C60.6914363,7.24241051 61.0339828,7.09560489 61.2786588,6.85092886 Z" id="形状" fill-rule="nonzero"></path>
                            </g>
                            <g opacity="0.2" transform="translate(14.191210, 63.105120)" fill="#BF1F3A">
                                <path d="M0.538287268,7.34028092 C0.146805618,6.94879928 0,6.41051201 0,5.72541912 L0,2.20208428 C0,1.51699139 0.195740825,0.978704123 0.587222474,0.587222474 C0.978704123,0.195740825 1.51699139,0 2.25101948,0 C2.98504758,0 3.52333484,0.195740825 3.91481649,0.587222474 C4.30629814,0.978704123 4.45310376,1.51699139 4.45310376,2.20208428 L4.45310376,5.72541912 C4.45310376,6.41051201 4.25736294,6.94879928 3.86588129,7.34028092 C3.47439964,7.73176257 2.93611237,7.9275034 2.20208428,7.9275034 C1.46805618,7.9275034 0.880833711,7.73176257 0.538287268,7.34028092 Z M3.27865881,6.80199366 C3.52333484,6.55731763 3.62120526,6.16583598 3.62120526,5.72541912 L3.62120526,2.20208428 C3.62120526,1.71273222 3.52333484,1.37018577 3.27865881,1.07657454 C3.03398278,0.831898505 2.69143634,0.685092886 2.20208428,0.685092886 C1.71273222,0.685092886 1.32125057,0.831898505 1.12550974,1.07657454 C0.880833711,1.32125057 0.782963299,1.71273222 0.782963299,2.20208428 L0.782963299,5.72541912 C0.782963299,6.21477118 0.880833711,6.55731763 1.12550974,6.80199366 C1.37018577,7.04666969 1.71273222,7.19347531 2.20208428,7.19347531 C2.64250113,7.19347531 3.03398278,7.09560489 3.27865881,6.80199366 Z" id="形状" fill-rule="nonzero"></path>
                                <polygon id="路径" points="9.20208428 7.73176257 8.41912098 7.73176257 8.41912098 0.63615768 7 1.51699139 7 0.734028092 8.12550974 0 9.20208428 0"></polygon>
                                <polygon id="路径" points="14.2020843 7.73176257 13.419121 7.73176257 13.419121 0.63615768 12 1.51699139 12 0.734028092 13.1255097 0 14.2020843 0"></polygon>
                                <path d="M18.5382873,7.34028092 C18.1468056,6.94879928 18,6.41051201 18,5.72541912 L18,2.20208428 C18,1.51699139 18.1957408,0.978704123 18.5872225,0.587222474 C18.9787041,0.195740825 19.5169914,0 20.2510195,0 C20.9850476,0 21.5233348,0.195740825 21.9148165,0.587222474 C22.3062981,0.978704123 22.4531038,1.51699139 22.4531038,2.20208428 L22.4531038,5.72541912 C22.4531038,6.41051201 22.2573629,6.94879928 21.8658813,7.34028092 C21.4743996,7.73176257 20.9361124,7.9275034 20.2020843,7.9275034 C19.419121,7.9275034 18.8808337,7.73176257 18.5382873,7.34028092 Z M21.2786588,6.80199366 C21.5233348,6.55731763 21.6212053,6.16583598 21.6212053,5.72541912 L21.6212053,2.20208428 C21.6212053,1.71273222 21.5233348,1.37018577 21.2786588,1.07657454 C21.0339828,0.831898505 20.6914363,0.685092886 20.2020843,0.685092886 C19.7127322,0.685092886 19.3212506,0.831898505 19.1255097,1.07657454 C18.8808337,1.32125057 18.7829633,1.71273222 18.7829633,2.20208428 L18.7829633,5.72541912 C18.7829633,6.21477118 18.8808337,6.55731763 19.1255097,6.80199366 C19.3701858,7.04666969 19.7127322,7.19347531 20.2020843,7.19347531 C20.6425011,7.19347531 21.0339828,7.09560489 21.2786588,6.80199366 Z" id="形状" fill-rule="nonzero"></path>
                                <path d="M26.5382873,7.34028092 C26.1468056,6.94879928 26,6.41051201 26,5.72541912 L26,2.20208428 C26,1.51699139 26.1957408,0.978704123 26.5872225,0.587222474 C26.9787041,0.195740825 27.5169914,0 28.2510195,0 C28.9850476,0 29.5233348,0.195740825 29.9148165,0.587222474 C30.3062981,0.978704123 30.4531038,1.51699139 30.4531038,2.20208428 L30.4531038,5.72541912 C30.4531038,6.41051201 30.2573629,6.94879928 29.8658813,7.34028092 C29.4743996,7.73176257 28.9361124,7.9275034 28.2020843,7.9275034 C27.4680562,7.9275034 26.9297689,7.73176257 26.5382873,7.34028092 Z M29.2786588,6.80199366 C29.5233348,6.55731763 29.6212053,6.16583598 29.6212053,5.72541912 L29.6212053,2.20208428 C29.6212053,1.71273222 29.5233348,1.37018577 29.2786588,1.07657454 C29.0339828,0.831898505 28.6914363,0.685092886 28.2020843,0.685092886 C27.7127322,0.685092886 27.3212506,0.831898505 27.1255097,1.07657454 C26.8808337,1.32125057 26.7829633,1.71273222 26.7829633,2.20208428 L26.7829633,5.72541912 C26.7829633,6.21477118 26.8808337,6.55731763 27.1255097,6.80199366 C27.3701858,7.04666969 27.7127322,7.19347531 28.2020843,7.19347531 C28.6914363,7.19347531 29.0339828,7.09560489 29.2786588,6.80199366 Z" id="形状" fill-rule="nonzero"></path>
                                <polygon id="路径" points="35.2020843 7.73176257 34.419121 7.73176257 34.419121 0.63615768 33 1.51699139 33 0.734028092 34.1255097 0 35.2020843 0"></polygon>
                                <polygon id="路径" points="41.2020843 7.73176257 40.419121 7.73176257 40.419121 0.63615768 39 1.51699139 39 0.734028092 40.1255097 0 41.2020843 0 41.2020843 7.73176257"></polygon>
                                <polygon id="路径" points="46.2020843 7.73176257 45.419121 7.73176257 45.419121 0.63615768 44 1.51699139 44 0.734028092 45.1255097 0 46.2020843 0"></polygon>
                                <path d="M50.5382873,7.34028092 C50.1468056,6.94879928 50,6.41051201 50,5.72541912 L50,2.20208428 C50,1.51699139 50.1957408,0.978704123 50.5872225,0.587222474 C50.9787041,0.195740825 51.5169914,0 52.2510195,0 C52.9850476,0 53.5233348,0.195740825 53.9148165,0.587222474 C54.3062981,0.978704123 54.4531038,1.51699139 54.4531038,2.20208428 L54.4531038,5.72541912 C54.4531038,6.41051201 54.2573629,6.94879928 53.8658813,7.34028092 C53.4743996,7.73176257 52.9361124,7.9275034 52.2020843,7.9275034 C51.419121,7.9275034 50.8808337,7.73176257 50.5382873,7.34028092 Z M53.2786588,6.80199366 C53.5233348,6.55731763 53.6212053,6.16583598 53.6212053,5.72541912 L53.6212053,2.20208428 C53.6212053,1.71273222 53.5233348,1.37018577 53.2786588,1.07657454 C53.0339828,0.831898505 52.6914363,0.685092886 52.2020843,0.685092886 C51.7127322,0.685092886 51.3212506,0.831898505 51.1255097,1.07657454 C50.8808337,1.32125057 50.7829633,1.71273222 50.7829633,2.20208428 L50.7829633,5.72541912 C50.7829633,6.21477118 50.8808337,6.55731763 51.1255097,6.80199366 C51.3701858,7.04666969 51.7127322,7.19347531 52.2020843,7.19347531 C52.6425011,7.19347531 53.0339828,7.09560489 53.2786588,6.80199366 Z" id="形状" fill-rule="nonzero"></path>
                                <path d="M58.5382873,7.34028092 C58.1468056,6.94879928 58,6.41051201 58,5.72541912 L58,2.20208428 C58,1.51699139 58.1957408,0.978704123 58.5872225,0.587222474 C58.9787041,0.195740825 59.5169914,0 60.2510195,0 C60.9850476,0 61.5233348,0.195740825 61.9148165,0.587222474 C62.3062981,0.978704123 62.4531038,1.51699139 62.4531038,2.20208428 L62.4531038,5.72541912 C62.4531038,6.41051201 62.2573629,6.94879928 61.8658813,7.34028092 C61.4743996,7.73176257 60.9361124,7.9275034 60.2020843,7.9275034 C59.4680562,7.9275034 58.9297689,7.73176257 58.5382873,7.34028092 Z M61.2786588,6.80199366 C61.5233348,6.55731763 61.6212053,6.16583598 61.6212053,5.72541912 L61.6212053,2.20208428 C61.6212053,1.71273222 61.5233348,1.37018577 61.2786588,1.07657454 C61.0339828,0.831898505 60.6914363,0.685092886 60.2020843,0.685092886 C59.7127322,0.685092886 59.3212506,0.831898505 59.1255097,1.07657454 C58.8808337,1.32125057 58.7829633,1.71273222 58.7829633,2.20208428 L58.7829633,5.72541912 C58.7829633,6.21477118 58.8808337,6.55731763 59.1255097,6.80199366 C59.3701858,7.04666969 59.7127322,7.19347531 60.2020843,7.19347531 C60.6914363,7.19347531 61.0339828,7.09560489 61.2786588,6.80199366 Z" id="形状" fill-rule="nonzero"></path>
                            </g>
                            <g opacity="0.5" transform="translate(22.978251, 0.000000)" id="路径" stroke="#BF1F3A" stroke-linecap="round" stroke-linejoin="round">
                                <path d="M1,2.78930675 C1.58722247,1.17444495 3.10421386,0 4.91481649,0 C5.94245582,0 6.87222474,0.391481649 7.60625283,0.978704123"></path>
                                <path d="M3.42546443,8.11055732 C1.46805618,7.76801087 0,6.05527866 0,4"></path>
                                <path d="M8.85953783,2 C9.05527866,2.48935206 9.15314907,3.02763933 9.15314907,3.6148618 C9.15314907,5.1807884 8.27231536,6.55097417 7,7.28500227"></path>
                                <path d="M1,3.98504758 C1,2.6148618 1.8318985,1.48935206 3.00634345,1"></path>
                                <path d="M7.23606706,5.97870412 C6.64884459,6.5659266 5.81694608,6.90847304 4.93611237,6.90847304 C3.6148618,6.90847304 2.48935206,6.12550974 2,5"></path>
                                <path d="M5,1 C6.81060263,1 8.22972361,2.46805618 8.22972361,4.22972361"></path>
                                <path d="M3.84249298,5.20208428 C3.1574001,4.66379701 2.86378886,3.7829633 3.05952969,3"></path>
                                <path d="M6.54463072,4 C6.64250113,4.53828727 6.49569551,5.12550974 6.15314907,5.5659266 C5.66379701,6.25101948 4.7829633,6.54463072 4,6.3978251"></path>
                                <path d="M3,2.84913768 C3.68509289,1.91936876 5.05527866,1.72362794 5.98504758,2.40872083"></path>
                            </g>
                            <g opacity="0.3" transform="translate(95.891708, 66.551880)" id="路径" stroke="#BF1F3A" stroke-linecap="round" stroke-linejoin="round" stroke-width="0.5">
                                <path d="M1,2.54463072 C1.53828727,1.07657454 2.90847304,0 4.57227005,0 C5.50203897,0 6.38287268,0.342546443 7.01903036,0.929768917"></path>
                                <path d="M3.08291799,6.71907567 C1.32125057,6.37652923 0,4.85953783 0,3"></path>
                                <path d="M7.66379701,2 C7.85953783,2.44041686 7.95740825,2.92976892 7.95740825,3.41912098 C7.95740825,4.83824196 7.17444495,6.11055732 6,6.746715"></path>
                                <path d="M1,3.78930675 C1,2.5659266 1.73402809,1.48935206 2.81060263,1"></path>
                                <path d="M5.84458541,5.88083371 C5.30629814,6.41912098 4.57227005,6.76166742 3.74037155,6.76166742 C2.51699139,6.76166742 1.48935206,6.02763933 1,5"></path>
                                <path d="M4,0 C5.66379701,0 6.98504758,1.32125057 6.98504758,2.98504758"></path>
                                <path d="M2.77531717,5.00634345 C2.13915949,4.51699139 1.89448346,3.73402809 2.04128908,3"></path>
                                <path d="M6.29995469,3 C6.3488899,3.48935206 6.25101948,4.02763933 5.95740825,4.41912098 C5.51699139,5.05527866 4.73402809,5.29995469 4,5.15314907"></path>
                                <path d="M3,1.76809081 C3.63615768,0.936192305 4.85953783,0.74045148 5.69143634,1.37660916"></path>
                            </g>
                            <circle id="椭圆形" fill="#BF1F3A" opacity="0.3" cx="57.8595378" cy="2.85953783" r="1.85953783"></circle>
                            <circle id="椭圆形" fill="#BF1F3A" opacity="0.2" cx="1.85953783" cy="55.8595378" r="1.85953783"></circle>
                            <circle id="椭圆形" fill="#BF1F3A" opacity="0.53" cx="15.0339828" cy="17.0339828" r="3.03398278"></circle>
                            <circle id="椭圆形" fill="#BF1F3A" opacity="0.5" cx="93.5169914" cy="47.5169914" r="1.51699139"></circle>
                        </g>
                        <g transform="translate(32.275940, 24.446307)">
                            <path d="M26.7680109,18 L26.7680109,19.2723154 C26.7680109,21.1807884 25.0552787,22.6977798 23,22.6977798 L23,22.6977798 L23,18" id="路径" stroke="#BF1F3A" stroke-width="2" stroke-linecap="round" stroke-linejoin="round"></path>
                            <path d="M32.244676,0.244676031 L32.244676,0.244676031" id="路径" stroke="#BF1F3A" stroke-width="4"></path>
                            <path d="M29.5124604,1 L16.838242,1 C15.2723154,1 14,2.27231536 14,3.83824196 L14,14.6529225 C14,16.2188491 15.2723154,17.4911645 16.838242,17.4911645 L32.7911192,17.4911645 C33.5251473,17.4911645 34.2591754,17.1975532 34.7974626,16.659266 C35.3357499,16.1209787 35.6293611,15.3869506 35.6293611,14.6529225 L35.6293611,3.83824196 C35.6293611,3.10421386 35.3357499,2.37018577 34.7974626,1.8318985 C34.2591754,1.29361124 33.5251473,1 32.7911192,1" id="路径" stroke="#BF1F3A" stroke-width="2" stroke-linecap="round" stroke-linejoin="round"></path>
                            <path d="M19,10 L19,11.419121 L23.2573629,11.419121 L23.2573629,10 L19,10 Z M26.5360217,10 L26.5360217,11.419121 L30.7933847,11.419121 L30.7933847,10 L26.5360217,10 Z" id="形状" fill="#BF1F3A" fill-rule="nonzero"></path>
                            <path d="M0,46.3846851 C0,47.1187132 0.293611237,47.8527413 0.831898505,48.3910285 C1.37018577,48.9293158 2.10421386,49.2229271 2.83824196,49.2229271 L10.912551,49.2229271 C11.6465791,49.2229271 12.3806072,48.9293158 12.9188944,48.3910285 C13.4571817,47.8527413 13.7507929,47.1187132 13.7507929,46.3846851 L13.7507929,37.4295424 C13.7507929,36.6955143 13.4571817,35.9614862 12.9188944,35.4231989 C12.3806072,34.8849116 11.6465791,34.5913004 10.912551,34.5913004 L8.66153149,34.5913004 L8.66153149,28.7680109 L16.9315813,28.7680109 C19.0357952,28.7680109 20.6995922,27.0552787 20.6995922,25 L6.80199366,25 C6.31264159,25 5.82328953,25.1957408 5.48074309,25.5382873 C5.13819665,25.8808337 4.94245582,26.3701858 4.94245582,26.8595378 L4.94245582,34.5423652 L2.88717716,34.5423652 C2.15314907,34.5423652 1.41912098,34.8359764 0.880833711,35.3742637 C0.342546443,35.912551 0.0489352062,36.6465791 0.0489352062,37.3806072 C0.0489352062,37.3806072 0.0489352062,41.3443589 0.0489352062,42.1762574" id="路径" stroke="#BF1F3A" stroke-width="2" stroke-linecap="round" stroke-linejoin="round"></path>
                            <path d="M41.1416223,23.2208332 C36.3459721,21.018749 30.5226826,21.8017123 26.4121252,25.5207879 C21.0781878,30.3653733 20.4909653,38.586488 25.1398099,44.1651015 C29.7397193,49.743715 37.9118987,50.6734839 43.686253,46.3182505 L47.3563935,49.988391 C48.0904216,50.7224191 49.3138017,50.7224191 50.0478298,49.988391 C50.7818579,49.2543629 50.7818579,48.0309828 50.0478298,47.2969547 L50.0478298,47.2969547 L46.3776894,43.6268142 C50.4393115,38.2439415 49.9010242,30.7079198 45.1543092,25.9122696" id="路径" stroke="#BF1F3A" stroke-width="2" stroke-linecap="round" stroke-linejoin="round"></path>
                            <path d="M47.1253382,46.8735959 L44.0913554,43.8396131 C47.4678846,39.3865093 47.0274677,33.1717381 43.063716,29.2569216 C38.8552883,25.0484939 32.0532947,24.9016883 27.6491261,28.9143752 C23.2449575,32.9270621 22.7556055,39.6801206 26.5725516,44.2800299 C30.3894976,48.8799393 37.0936209,49.6629026 41.8892711,46.0416974 L44.9232539,49.0756801 C45.5104764,49.6629026 46.5381157,49.6629026 47.1253382,49.0756801 C47.7125606,48.4884577 47.7125606,47.5097535 47.1253382,46.8735959 L47.1253382,46.8735959 Z" id="路径" fill="#BF1F3A" opacity="0.3"></path>
                            <path d="M46.1253382,44.8735959 L43.0913554,41.8396131 C46.4678846,37.3865093 46.0274677,31.1717381 42.063716,27.2569216 C37.8552883,23.0484939 31.0532947,22.9016883 26.6491261,26.9143752 C22.2449575,30.9270621 21.7556055,37.6801206 25.5725516,42.2800299 C29.3894976,46.8799393 36.0936209,47.6629026 40.8892711,44.0416974 L43.9232539,47.0756801 C44.5104764,47.6629026 45.5381157,47.6629026 46.1253382,47.0756801 C46.7614958,46.4395225 46.7614958,45.4608183 46.1253382,44.8735959 L46.1253382,44.8735959 Z" id="路径" fill="#BF1F3A" opacity="0.15"></path>
                        </g>
                    </g>
                </g>
            </g>
        </g>
    </g>
</svg>