<?xml version="1.0" encoding="UTF-8"?>
<svg width="108px" height="108px" viewBox="0 0 108 108" version="1.1" xmlns="http://www.w3.org/2000/svg" xmlns:xlink="http://www.w3.org/1999/xlink">
    <!-- Generator: Sketch 56.2 (81672) - https://sketch.com -->
    <title>功能尝鲜</title>
    <desc>Created with Sketch.</desc>
    <g id="6.0.0个人中心" stroke="none" stroke-width="1" fill="none" fill-rule="evenodd">
        <g id="6.0.0个人中心_成为会员" transform="translate(-924.000000, -855.000000)">
            <g id="分组-11" transform="translate(924.000000, 855.000000)">
                <g id="分组-9">
                    <g transform="translate(2.000000, 10.000000)">
                        <g id="分组" opacity="0.2" transform="translate(21.000000, 46.000000)" fill="#4F68ED">
                            <path d="M0.538287268,7.34028092 C0.146805618,6.94879928 0,6.41051201 0,5.72541912 L0,2.20208428 C0,1.51699139 0.195740825,0.978704123 0.587222474,0.587222474 C0.978704123,0.195740825 1.51699139,0 2.25101948,0 C2.98504758,0 3.52333484,0.195740825 3.91481649,0.587222474 C4.30629814,0.978704123 4.45310376,1.51699139 4.45310376,2.20208428 L4.45310376,5.72541912 C4.45310376,6.41051201 4.25736294,6.94879928 3.86588129,7.34028092 C3.47439964,7.73176257 2.93611237,7.9275034 2.20208428,7.9275034 C1.46805618,7.9275034 0.929768917,7.73176257 0.538287268,7.34028092 Z M3.27865881,6.80199366 C3.52333484,6.55731763 3.62120526,6.16583598 3.62120526,5.72541912 L3.62120526,2.20208428 C3.62120526,1.71273222 3.52333484,1.37018577 3.27865881,1.07657454 C3.03398278,0.831898505 2.69143634,0.685092886 2.20208428,0.685092886 C1.71273222,0.685092886 1.32125057,0.831898505 1.12550974,1.07657454 C0.880833711,1.32125057 0.782963299,1.71273222 0.782963299,2.20208428 L0.782963299,5.72541912 C0.782963299,6.21477118 0.880833711,6.55731763 1.12550974,6.80199366 C1.37018577,7.04666969 1.71273222,7.19347531 2.20208428,7.19347531 C2.69143634,7.19347531 3.03398278,7.09560489 3.27865881,6.80199366 Z" id="形状" fill-rule="nonzero"></path>
                            <polygon id="路径" points="9.20208428 7.73176257 8.41912098 7.73176257 8.41912098 0.63615768 7 1.51699139 7 0.734028092 8.12550974 0 9.20208428 0"></polygon>
                            <polygon id="路径" points="15.2020843 7.73176257 14.419121 7.73176257 14.419121 0.63615768 13 1.51699139 13 0.734028092 14.1255097 0 15.2020843 0"></polygon>
                            <path d="M18.5382873,7.34028092 C18.1468056,6.94879928 18,6.41051201 18,5.72541912 L18,2.20208428 C18,1.51699139 18.1957408,0.978704123 18.5872225,0.587222474 C18.9787041,0.195740825 19.5169914,0 20.2510195,0 C20.9850476,0 21.5233348,0.195740825 21.9148165,0.587222474 C22.3062981,0.978704123 22.4531038,1.51699139 22.4531038,2.20208428 L22.4531038,5.72541912 C22.4531038,6.41051201 22.2573629,6.94879928 21.8658813,7.34028092 C21.4743996,7.73176257 20.9361124,7.9275034 20.2020843,7.9275034 C19.4680562,7.9275034 18.9297689,7.73176257 18.5382873,7.34028092 Z M21.2786588,6.80199366 C21.5233348,6.55731763 21.6212053,6.16583598 21.6212053,5.72541912 L21.6212053,2.20208428 C21.6212053,1.71273222 21.5233348,1.37018577 21.2786588,1.07657454 C21.0339828,0.831898505 20.6914363,0.685092886 20.2020843,0.685092886 C19.7127322,0.685092886 19.3212506,0.831898505 19.1255097,1.07657454 C18.8808337,1.32125057 18.7829633,1.71273222 18.7829633,2.20208428 L18.7829633,5.72541912 C18.7829633,6.21477118 18.8808337,6.55731763 19.1255097,6.80199366 C19.3701858,7.04666969 19.7127322,7.19347531 20.2020843,7.19347531 C20.6914363,7.19347531 21.0339828,7.09560489 21.2786588,6.80199366 Z" id="形状" fill-rule="nonzero"></path>
                            <path d="M26.5382873,7.34028092 C26.1468056,6.94879928 26,6.41051201 26,5.72541912 L26,2.20208428 C26,1.51699139 26.1957408,0.978704123 26.5872225,0.587222474 C26.9787041,0.195740825 27.5169914,0 28.2510195,0 C28.9850476,0 29.5233348,0.195740825 29.9148165,0.587222474 C30.3062981,0.978704123 30.4531038,1.51699139 30.4531038,2.20208428 L30.4531038,5.72541912 C30.4531038,6.41051201 30.2573629,6.94879928 29.8658813,7.34028092 C29.4743996,7.73176257 28.9361124,7.9275034 28.2020843,7.9275034 C27.4680562,7.9275034 26.9297689,7.73176257 26.5382873,7.34028092 Z M29.2786588,6.80199366 C29.5233348,6.55731763 29.6212053,6.16583598 29.6212053,5.72541912 L29.6212053,2.20208428 C29.6212053,1.71273222 29.5233348,1.37018577 29.2786588,1.07657454 C29.0339828,0.831898505 28.6914363,0.685092886 28.2020843,0.685092886 C27.7127322,0.685092886 27.3212506,0.831898505 27.1255097,1.07657454 C26.8808337,1.32125057 26.7829633,1.71273222 26.7829633,2.20208428 L26.7829633,5.72541912 C26.7829633,6.21477118 26.8808337,6.55731763 27.1255097,6.80199366 C27.3701858,7.04666969 27.7127322,7.19347531 28.2020843,7.19347531 C28.6914363,7.19347531 29.082918,7.09560489 29.2786588,6.80199366 Z" id="形状" fill-rule="nonzero"></path>
                            <polygon id="路径" points="36.2020843 7.73176257 35.419121 7.73176257 35.419121 0.63615768 34 1.51699139 34 0.734028092 35.1255097 0 36.2020843 0"></polygon>
                            <polygon id="路径" points="41.2020843 7.73176257 40.419121 7.73176257 40.419121 0.63615768 39 1.51699139 39 0.734028092 40.1255097 0 41.2020843 0"></polygon>
                            <polygon id="路径" points="46.2020843 7.73176257 45.419121 7.73176257 45.419121 0.63615768 44 1.51699139 44 0.734028092 45.1255097 0 46.2020843 0"></polygon>
                            <path d="M50.5382873,7.34028092 C50.1468056,6.94879928 50,6.41051201 50,5.72541912 L50,2.20208428 C50,1.51699139 50.1957408,0.978704123 50.5872225,0.587222474 C50.9787041,0.195740825 51.5169914,0 52.2510195,0 C52.9850476,0 53.5233348,0.195740825 53.9148165,0.587222474 C54.3062981,0.978704123 54.4531038,1.51699139 54.4531038,2.20208428 L54.4531038,5.72541912 C54.4531038,6.41051201 54.2573629,6.94879928 53.8658813,7.34028092 C53.4743996,7.73176257 52.9361124,7.9275034 52.2020843,7.9275034 C51.4680562,7.9275034 50.9297689,7.73176257 50.5382873,7.34028092 Z M53.2786588,6.80199366 C53.5233348,6.55731763 53.6212053,6.16583598 53.6212053,5.72541912 L53.6212053,2.20208428 C53.6212053,1.71273222 53.5233348,1.37018577 53.2786588,1.07657454 C53.0339828,0.831898505 52.6914363,0.685092886 52.2020843,0.685092886 C51.7127322,0.685092886 51.3212506,0.831898505 51.1255097,1.07657454 C50.8808337,1.32125057 50.7829633,1.71273222 50.7829633,2.20208428 L50.7829633,5.72541912 C50.7829633,6.21477118 50.8808337,6.55731763 51.1255097,6.80199366 C51.3701858,7.04666969 51.7127322,7.19347531 52.2020843,7.19347531 C52.6914363,7.19347531 53.0339828,7.09560489 53.2786588,6.80199366 Z" id="形状" fill-rule="nonzero"></path>
                            <path d="M58.5382873,7.34028092 C58.1468056,6.94879928 58,6.41051201 58,5.72541912 L58,2.20208428 C58,1.51699139 58.1957408,0.978704123 58.5872225,0.587222474 C58.9787041,0.195740825 59.5169914,0 60.2510195,0 C60.9850476,0 61.5233348,0.195740825 61.9148165,0.587222474 C62.3062981,0.978704123 62.4531038,1.51699139 62.4531038,2.20208428 L62.4531038,5.72541912 C62.4531038,6.41051201 62.2573629,6.94879928 61.8658813,7.34028092 C61.4743996,7.73176257 60.9361124,7.9275034 60.2020843,7.9275034 C59.4680562,7.9275034 58.9297689,7.73176257 58.5382873,7.34028092 Z M61.2786588,6.80199366 C61.5233348,6.55731763 61.6212053,6.16583598 61.6212053,5.72541912 L61.6212053,2.20208428 C61.6212053,1.71273222 61.5233348,1.37018577 61.2786588,1.07657454 C61.0339828,0.831898505 60.6914363,0.685092886 60.2020843,0.685092886 C59.7127322,0.685092886 59.3212506,0.831898505 59.1255097,1.07657454 C58.8808337,1.32125057 58.7829633,1.71273222 58.7829633,2.20208428 L58.7829633,5.72541912 C58.7829633,6.21477118 58.8808337,6.55731763 59.1255097,6.80199366 C59.3701858,7.04666969 59.7127322,7.19347531 60.2020843,7.19347531 C60.6914363,7.19347531 61.082918,7.09560489 61.2786588,6.80199366 Z" id="形状" fill-rule="nonzero"></path>
                        </g>
                        <g id="分组" opacity="0.2" transform="translate(41.000000, 59.000000)" fill="#4F68ED">
                            <path d="M0.538287268,7.34028092 C0.146805618,6.94879928 0,6.41051201 0,5.72541912 L0,2.20208428 C0,1.51699139 0.195740825,0.978704123 0.587222474,0.587222474 C0.978704123,0.195740825 1.51699139,0 2.25101948,0 C2.98504758,0 3.52333484,0.195740825 3.91481649,0.587222474 C4.30629814,0.978704123 4.45310376,1.51699139 4.45310376,2.20208428 L4.45310376,5.72541912 C4.45310376,6.41051201 4.25736294,6.94879928 3.86588129,7.34028092 C3.47439964,7.73176257 2.93611237,7.9275034 2.20208428,7.9275034 C1.46805618,7.9275034 0.880833711,7.73176257 0.538287268,7.34028092 Z M3.27865881,6.80199366 C3.52333484,6.55731763 3.62120526,6.16583598 3.62120526,5.72541912 L3.62120526,2.20208428 C3.62120526,1.71273222 3.52333484,1.37018577 3.27865881,1.07657454 C3.03398278,0.831898505 2.69143634,0.685092886 2.20208428,0.685092886 C1.71273222,0.685092886 1.32125057,0.831898505 1.12550974,1.07657454 C0.880833711,1.32125057 0.782963299,1.71273222 0.782963299,2.20208428 L0.782963299,5.72541912 C0.782963299,6.21477118 0.880833711,6.55731763 1.12550974,6.80199366 C1.37018577,7.04666969 1.71273222,7.19347531 2.20208428,7.19347531 C2.69143634,7.19347531 3.03398278,7.04666969 3.27865881,6.80199366 Z" id="形状" fill-rule="nonzero"></path>
                            <polygon id="路径" points="9.20208428 7.73176257 8.41912098 7.73176257 8.41912098 0.63615768 7 1.51699139 7 0.734028092 8.12550974 0 9.20208428 0"></polygon>
                            <polygon id="路径" points="15.2020843 7.73176257 14.419121 7.73176257 14.419121 0.63615768 13 1.51699139 13 0.734028092 14.1255097 0 15.2020843 0"></polygon>
                            <path d="M18.5382873,7.34028092 C18.1468056,6.94879928 18,6.41051201 18,5.72541912 L18,2.20208428 C18,1.51699139 18.1957408,0.978704123 18.5872225,0.587222474 C18.9787041,0.195740825 19.5169914,0 20.2510195,0 C20.9850476,0 21.5233348,0.195740825 21.9148165,0.587222474 C22.3062981,0.978704123 22.4531038,1.51699139 22.4531038,2.20208428 L22.4531038,5.72541912 C22.4531038,6.41051201 22.2573629,6.94879928 21.8658813,7.34028092 C21.4743996,7.73176257 20.9361124,7.9275034 20.2020843,7.9275034 C19.419121,7.9275034 18.8808337,7.73176257 18.5382873,7.34028092 Z M21.2297236,6.80199366 C21.4743996,6.55731763 21.57227,6.16583598 21.57227,5.72541912 L21.57227,2.20208428 C21.57227,1.71273222 21.4743996,1.37018577 21.2297236,1.07657454 C20.9850476,0.831898505 20.6425011,0.685092886 20.1531491,0.685092886 C19.663797,0.685092886 19.2723154,0.831898505 19.0765745,1.07657454 C18.8318985,1.32125057 18.7340281,1.71273222 18.7340281,2.20208428 L18.7340281,5.72541912 C18.7340281,6.21477118 18.8318985,6.55731763 19.0765745,6.80199366 C19.3212506,7.04666969 19.663797,7.19347531 20.1531491,7.19347531 C20.6425011,7.19347531 21.0339828,7.04666969 21.2297236,6.80199366 Z" id="形状" fill-rule="nonzero"></path>
                            <path d="M26.5382873,7.34028092 C26.1468056,6.94879928 26,6.41051201 26,5.72541912 L26,2.20208428 C26,1.51699139 26.1957408,0.978704123 26.5872225,0.587222474 C26.9787041,0.195740825 27.5169914,0 28.2510195,0 C28.9850476,0 29.5233348,0.195740825 29.9148165,0.587222474 C30.3062981,0.978704123 30.4531038,1.51699139 30.4531038,2.20208428 L30.4531038,5.72541912 C30.4531038,6.41051201 30.2573629,6.94879928 29.8658813,7.34028092 C29.4743996,7.73176257 28.9361124,7.9275034 28.2020843,7.9275034 C27.4680562,7.9275034 26.9297689,7.73176257 26.5382873,7.34028092 Z M29.2786588,6.80199366 C29.5233348,6.55731763 29.6212053,6.16583598 29.6212053,5.72541912 L29.6212053,2.20208428 C29.6212053,1.71273222 29.5233348,1.37018577 29.2786588,1.07657454 C29.0339828,0.831898505 28.6914363,0.685092886 28.2020843,0.685092886 C27.7127322,0.685092886 27.3212506,0.831898505 27.1255097,1.07657454 C26.8808337,1.32125057 26.7829633,1.71273222 26.7829633,2.20208428 L26.7829633,5.72541912 C26.7829633,6.21477118 26.8808337,6.55731763 27.1255097,6.80199366 C27.3701858,7.04666969 27.7127322,7.19347531 28.2020843,7.19347531 C28.6914363,7.19347531 29.0339828,7.04666969 29.2786588,6.80199366 Z" id="形状" fill-rule="nonzero"></path>
                            <polygon id="路径" points="35.2020843 7.73176257 34.419121 7.73176257 34.419121 0.63615768 33 1.51699139 33 0.734028092 34.1255097 0 35.2020843 0"></polygon>
                            <polygon id="路径" points="41.2020843 7.73176257 40.419121 7.73176257 40.419121 0.63615768 39 1.51699139 39 0.734028092 40.1255097 0 41.2020843 0"></polygon>
                            <polygon id="路径" points="46.2020843 7.73176257 45.419121 7.73176257 45.419121 0.63615768 44 1.51699139 44 0.734028092 45.1255097 0 46.2020843 0"></polygon>
                            <path d="M50.5382873,7.34028092 C50.1468056,6.94879928 50,6.41051201 50,5.72541912 L50,2.20208428 C50,1.51699139 50.1957408,0.978704123 50.5872225,0.587222474 C50.9787041,0.195740825 51.5169914,0 52.2510195,0 C52.9850476,0 53.5233348,0.195740825 53.9148165,0.587222474 C54.3062981,0.978704123 54.4531038,1.51699139 54.4531038,2.20208428 L54.4531038,5.72541912 C54.4531038,6.41051201 54.2573629,6.94879928 53.8658813,7.34028092 C53.4743996,7.73176257 52.9361124,7.9275034 52.2020843,7.9275034 C51.419121,7.9275034 50.8808337,7.73176257 50.5382873,7.34028092 Z M53.2297236,6.80199366 C53.4743996,6.55731763 53.57227,6.16583598 53.57227,5.72541912 L53.57227,2.20208428 C53.57227,1.71273222 53.4743996,1.37018577 53.2297236,1.07657454 C52.9850476,0.831898505 52.6425011,0.685092886 52.1531491,0.685092886 C51.663797,0.685092886 51.2723154,0.831898505 51.0765745,1.07657454 C50.8318985,1.32125057 50.7340281,1.71273222 50.7340281,2.20208428 L50.7340281,5.72541912 C50.7340281,6.21477118 50.8318985,6.55731763 51.0765745,6.80199366 C51.3212506,7.04666969 51.663797,7.19347531 52.1531491,7.19347531 C52.6425011,7.19347531 53.0339828,7.04666969 53.2297236,6.80199366 Z" id="形状" fill-rule="nonzero"></path>
                            <path d="M58.5382873,7.34028092 C58.1468056,6.94879928 58,6.41051201 58,5.72541912 L58,2.20208428 C58,1.51699139 58.1957408,0.978704123 58.5872225,0.587222474 C58.9787041,0.195740825 59.5169914,0 60.2510195,0 C60.9850476,0 61.5233348,0.195740825 61.9148165,0.587222474 C62.3062981,0.978704123 62.4531038,1.51699139 62.4531038,2.20208428 L62.4531038,5.72541912 C62.4531038,6.41051201 62.2573629,6.94879928 61.8658813,7.34028092 C61.4743996,7.73176257 60.9361124,7.9275034 60.2020843,7.9275034 C59.4680562,7.9275034 58.9297689,7.73176257 58.5382873,7.34028092 Z M61.2786588,6.80199366 C61.5233348,6.55731763 61.6212053,6.16583598 61.6212053,5.72541912 L61.6212053,2.20208428 C61.6212053,1.71273222 61.5233348,1.37018577 61.2786588,1.07657454 C61.0339828,0.831898505 60.6914363,0.685092886 60.2020843,0.685092886 C59.7127322,0.685092886 59.3212506,0.831898505 59.1255097,1.07657454 C58.8808337,1.32125057 58.7829633,1.71273222 58.7829633,2.20208428 L58.7829633,5.72541912 C58.7829633,6.21477118 58.8808337,6.55731763 59.1255097,6.80199366 C59.3701858,7.04666969 59.7127322,7.19347531 60.2020843,7.19347531 C60.6914363,7.19347531 61.0339828,7.04666969 61.2786588,6.80199366 Z" id="形状" fill-rule="nonzero"></path>
                        </g>
                        <g id="分组" opacity="0.2" transform="translate(28.000000, 80.000000)" fill="#4F68ED">
                            <path d="M0.538287268,7.34028092 C0.146805618,6.94879928 0,6.41051201 0,5.72541912 L0,2.20208428 C0,1.51699139 0.195740825,0.978704123 0.587222474,0.587222474 C0.978704123,0.195740825 1.51699139,0 2.25101948,0 C2.98504758,0 3.52333484,0.195740825 3.91481649,0.587222474 C4.30629814,0.978704123 4.45310376,1.51699139 4.45310376,2.20208428 L4.45310376,5.72541912 C4.45310376,6.41051201 4.25736294,6.94879928 3.86588129,7.34028092 C3.47439964,7.73176257 2.93611237,7.9275034 2.20208428,7.9275034 C1.46805618,7.9275034 0.880833711,7.73176257 0.538287268,7.34028092 Z M3.27865881,6.85092886 C3.52333484,6.60625283 3.62120526,6.21477118 3.62120526,5.77435433 L3.62120526,2.25101948 C3.62120526,1.76166742 3.52333484,1.41912098 3.27865881,1.12550974 C3.03398278,0.880833711 2.69143634,0.734028092 2.20208428,0.734028092 C1.71273222,0.734028092 1.32125057,0.880833711 1.12550974,1.12550974 C0.880833711,1.37018577 0.782963299,1.76166742 0.782963299,2.25101948 L0.782963299,5.77435433 C0.782963299,6.26370639 0.880833711,6.60625283 1.12550974,6.85092886 C1.37018577,7.09560489 1.71273222,7.24241051 2.20208428,7.24241051 C2.69143634,7.24241051 3.03398278,7.09560489 3.27865881,6.85092886 Z" id="形状" fill-rule="nonzero"></path>
                            <polygon id="路径" points="9.20208428 7.73176257 8.41912098 7.73176257 8.41912098 0.63615768 7 1.51699139 7 0.734028092 8.12550974 0 9.20208428 0"></polygon>
                            <polygon id="路径" points="14.2020843 7.73176257 13.419121 7.73176257 13.419121 0.63615768 12 1.51699139 12 0.734028092 13.1255097 0 14.2020843 0"></polygon>
                            <path d="M18.5382873,7.34028092 C18.1468056,6.94879928 18,6.41051201 18,5.72541912 L18,2.20208428 C18,1.51699139 18.1957408,0.978704123 18.5872225,0.587222474 C18.9787041,0.195740825 19.5169914,0 20.2510195,0 C20.9850476,0 21.5233348,0.195740825 21.9148165,0.587222474 C22.3062981,0.978704123 22.4531038,1.51699139 22.4531038,2.20208428 L22.4531038,5.72541912 C22.4531038,6.41051201 22.2573629,6.94879928 21.8658813,7.34028092 C21.4743996,7.73176257 20.9361124,7.9275034 20.2020843,7.9275034 C19.4680562,7.9275034 18.8808337,7.73176257 18.5382873,7.34028092 Z M21.2786588,6.85092886 C21.5233348,6.60625283 21.6212053,6.21477118 21.6212053,5.77435433 L21.6212053,2.25101948 C21.6212053,1.76166742 21.5233348,1.41912098 21.2786588,1.12550974 C21.0339828,0.880833711 20.6914363,0.734028092 20.2020843,0.734028092 C19.7127322,0.734028092 19.3212506,0.880833711 19.1255097,1.12550974 C18.8808337,1.37018577 18.7829633,1.76166742 18.7829633,2.25101948 L18.7829633,5.77435433 C18.7829633,6.26370639 18.8808337,6.60625283 19.1255097,6.85092886 C19.3701858,7.09560489 19.7127322,7.24241051 20.2020843,7.24241051 C20.6914363,7.24241051 21.0339828,7.09560489 21.2786588,6.85092886 Z" id="形状" fill-rule="nonzero"></path>
                            <path d="M26.5382873,7.34028092 C26.1468056,6.94879928 26,6.41051201 26,5.72541912 L26,2.20208428 C26,1.51699139 26.1957408,0.978704123 26.5872225,0.587222474 C26.9787041,0.195740825 27.5169914,0 28.2510195,0 C28.9850476,0 29.5233348,0.195740825 29.9148165,0.587222474 C30.3062981,0.978704123 30.4531038,1.51699139 30.4531038,2.20208428 L30.4531038,5.72541912 C30.4531038,6.41051201 30.2573629,6.94879928 29.8658813,7.34028092 C29.4743996,7.73176257 28.9361124,7.9275034 28.2020843,7.9275034 C27.4680562,7.9275034 26.9297689,7.73176257 26.5382873,7.34028092 Z M29.2786588,6.85092886 C29.5233348,6.60625283 29.6212053,6.21477118 29.6212053,5.77435433 L29.6212053,2.25101948 C29.6212053,1.76166742 29.5233348,1.41912098 29.2786588,1.12550974 C29.0339828,0.880833711 28.6914363,0.734028092 28.2020843,0.734028092 C27.7127322,0.734028092 27.3212506,0.880833711 27.1255097,1.12550974 C26.8808337,1.37018577 26.7829633,1.76166742 26.7829633,2.25101948 L26.7829633,5.77435433 C26.7829633,6.26370639 26.8808337,6.60625283 27.1255097,6.85092886 C27.3701858,7.09560489 27.7127322,7.24241051 28.2020843,7.24241051 C28.6914363,7.24241051 29.0339828,7.09560489 29.2786588,6.85092886 Z" id="形状" fill-rule="nonzero"></path>
                            <polygon id="路径" points="35.2020843 7.73176257 34.419121 7.73176257 34.419121 0.63615768 33 1.51699139 33 0.734028092 34.1255097 0 35.2020843 0"></polygon>
                            <polygon id="路径" points="41.2020843 7.73176257 40.419121 7.73176257 40.419121 0.63615768 39 1.51699139 39 0.734028092 40.1255097 0 41.2020843 0"></polygon>
                            <polygon id="路径" points="46.2020843 7.73176257 45.419121 7.73176257 45.419121 0.63615768 44 1.51699139 44 0.734028092 45.1255097 0 46.2020843 0"></polygon>
                            <path d="M50.5382873,7.34028092 C50.1468056,6.94879928 50,6.41051201 50,5.72541912 L50,2.20208428 C50,1.51699139 50.1957408,0.978704123 50.5872225,0.587222474 C50.9787041,0.195740825 51.5169914,0 52.2510195,0 C52.9850476,0 53.5233348,0.195740825 53.9148165,0.587222474 C54.3062981,0.978704123 54.4531038,1.51699139 54.4531038,2.20208428 L54.4531038,5.72541912 C54.4531038,6.41051201 54.2573629,6.94879928 53.8658813,7.34028092 C53.4743996,7.73176257 52.9361124,7.9275034 52.2020843,7.9275034 C51.4680562,7.9275034 50.8808337,7.73176257 50.5382873,7.34028092 Z M53.2786588,6.85092886 C53.5233348,6.60625283 53.6212053,6.21477118 53.6212053,5.77435433 L53.6212053,2.25101948 C53.6212053,1.76166742 53.5233348,1.41912098 53.2786588,1.12550974 C53.0339828,0.880833711 52.6914363,0.734028092 52.2020843,0.734028092 C51.7127322,0.734028092 51.3212506,0.880833711 51.1255097,1.12550974 C50.8808337,1.37018577 50.7829633,1.76166742 50.7829633,2.25101948 L50.7829633,5.77435433 C50.7829633,6.26370639 50.8808337,6.60625283 51.1255097,6.85092886 C51.3701858,7.09560489 51.7127322,7.24241051 52.2020843,7.24241051 C52.6425011,7.19347531 53.0339828,7.09560489 53.2786588,6.85092886 Z" id="形状" fill-rule="nonzero"></path>
                            <path d="M57.5382873,7.34028092 C57.1468056,6.94879928 57,6.41051201 57,5.72541912 L57,2.20208428 C57,1.51699139 57.1957408,0.978704123 57.5872225,0.587222474 C57.9787041,0.195740825 58.5169914,0 59.2510195,0 C59.9850476,0 60.5233348,0.195740825 60.9148165,0.587222474 C61.3062981,0.978704123 61.4531038,1.51699139 61.4531038,2.20208428 L61.4531038,5.72541912 C61.4531038,6.41051201 61.2573629,6.94879928 60.8658813,7.34028092 C60.4743996,7.73176257 59.9361124,7.9275034 59.2020843,7.9275034 C58.4680562,7.9275034 57.9297689,7.73176257 57.5382873,7.34028092 Z M60.2786588,6.85092886 C60.5233348,6.60625283 60.6212053,6.21477118 60.6212053,5.77435433 L60.6212053,2.25101948 C60.6212053,1.76166742 60.5233348,1.41912098 60.2786588,1.12550974 C60.0339828,0.880833711 59.6914363,0.734028092 59.2020843,0.734028092 C58.7127322,0.734028092 58.3212506,0.880833711 58.1255097,1.12550974 C57.8808337,1.37018577 57.7829633,1.76166742 57.7829633,2.25101948 L57.7829633,5.77435433 C57.7829633,6.26370639 57.8808337,6.60625283 58.1255097,6.85092886 C58.3701858,7.09560489 58.7127322,7.24241051 59.2020843,7.24241051 C59.6914363,7.24241051 60.0339828,7.09560489 60.2786588,6.85092886 Z" id="形状" fill-rule="nonzero"></path>
                        </g>
                        <g id="分组" opacity="0.2" transform="translate(15.000000, 69.000000)" fill="#4F68ED">
                            <path d="M0.538287268,7.34028092 C0.146805618,6.94879928 0,6.41051201 0,5.72541912 L0,2.20208428 C0,1.51699139 0.195740825,0.978704123 0.587222474,0.587222474 C0.978704123,0.195740825 1.51699139,0 2.25101948,0 C2.98504758,0 3.52333484,0.195740825 3.91481649,0.587222474 C4.30629814,0.978704123 4.45310376,1.51699139 4.45310376,2.20208428 L4.45310376,5.72541912 C4.45310376,6.41051201 4.25736294,6.94879928 3.86588129,7.34028092 C3.47439964,7.73176257 2.93611237,7.9275034 2.20208428,7.9275034 C1.41912098,7.9275034 0.880833711,7.73176257 0.538287268,7.34028092 Z M3.27865881,6.80199366 C3.52333484,6.55731763 3.62120526,6.16583598 3.62120526,5.72541912 L3.62120526,2.20208428 C3.62120526,1.71273222 3.52333484,1.37018577 3.27865881,1.07657454 C3.03398278,0.831898505 2.69143634,0.685092886 2.20208428,0.685092886 C1.71273222,0.685092886 1.32125057,0.831898505 1.12550974,1.07657454 C0.880833711,1.32125057 0.782963299,1.71273222 0.782963299,2.20208428 L0.782963299,5.72541912 C0.782963299,6.21477118 0.880833711,6.55731763 1.12550974,6.80199366 C1.37018577,7.04666969 1.71273222,7.19347531 2.20208428,7.19347531 C2.69143634,7.19347531 3.03398278,7.09560489 3.27865881,6.80199366 Z" id="形状" fill-rule="nonzero"></path>
                            <polygon id="路径" points="9.20208428 7.73176257 8.41912098 7.73176257 8.41912098 0.63615768 7 1.51699139 7 0.734028092 8.12550974 0 9.20208428 0"></polygon>
                            <polygon id="路径" points="15.2020843 7.73176257 14.419121 7.73176257 14.419121 0.63615768 13 1.51699139 13 0.734028092 14.1255097 0 15.2020843 0"></polygon>
                            <path d="M18.5382873,7.34028092 C18.1468056,6.94879928 18,6.41051201 18,5.72541912 L18,2.20208428 C18,1.51699139 18.1957408,0.978704123 18.5872225,0.587222474 C18.9787041,0.195740825 19.5169914,0 20.2510195,0 C20.9850476,0 21.5233348,0.195740825 21.9148165,0.587222474 C22.3062981,0.978704123 22.4531038,1.51699139 22.4531038,2.20208428 L22.4531038,5.72541912 C22.4531038,6.41051201 22.2573629,6.94879928 21.8658813,7.34028092 C21.4743996,7.73176257 20.9361124,7.9275034 20.2020843,7.9275034 C19.4680562,7.9275034 18.9297689,7.73176257 18.5382873,7.34028092 Z M21.2786588,6.80199366 C21.5233348,6.55731763 21.6212053,6.16583598 21.6212053,5.72541912 L21.6212053,2.20208428 C21.6212053,1.71273222 21.5233348,1.37018577 21.2786588,1.07657454 C21.0339828,0.831898505 20.6914363,0.685092886 20.2020843,0.685092886 C19.7127322,0.685092886 19.3212506,0.831898505 19.1255097,1.07657454 C18.8808337,1.32125057 18.7829633,1.71273222 18.7829633,2.20208428 L18.7829633,5.72541912 C18.7829633,6.21477118 18.8808337,6.55731763 19.1255097,6.80199366 C19.3701858,7.04666969 19.7127322,7.19347531 20.2020843,7.19347531 C20.6914363,7.19347531 21.082918,7.09560489 21.2786588,6.80199366 Z" id="形状" fill-rule="nonzero"></path>
                            <path d="M26.5382873,7.34028092 C26.1468056,6.94879928 26,6.41051201 26,5.72541912 L26,2.20208428 C26,1.51699139 26.1957408,0.978704123 26.5872225,0.587222474 C26.9787041,0.195740825 27.5169914,0 28.2510195,0 C28.9850476,0 29.5233348,0.195740825 29.9148165,0.587222474 C30.3062981,0.978704123 30.4531038,1.51699139 30.4531038,2.20208428 L30.4531038,5.72541912 C30.4531038,6.41051201 30.2573629,6.94879928 29.8658813,7.34028092 C29.4743996,7.73176257 28.9361124,7.9275034 28.2020843,7.9275034 C27.4680562,7.9275034 26.9297689,7.73176257 26.5382873,7.34028092 Z M29.2786588,6.80199366 C29.5233348,6.55731763 29.6212053,6.16583598 29.6212053,5.72541912 L29.6212053,2.20208428 C29.6212053,1.71273222 29.5233348,1.37018577 29.2786588,1.07657454 C29.0339828,0.831898505 28.6914363,0.685092886 28.2020843,0.685092886 C27.7127322,0.685092886 27.3212506,0.831898505 27.1255097,1.07657454 C26.8808337,1.32125057 26.7829633,1.71273222 26.7829633,2.20208428 L26.7829633,5.72541912 C26.7829633,6.21477118 26.8808337,6.55731763 27.1255097,6.80199366 C27.3701858,7.04666969 27.7127322,7.19347531 28.2020843,7.19347531 C28.6914363,7.19347531 29.0339828,7.09560489 29.2786588,6.80199366 Z" id="形状" fill-rule="nonzero"></path>
                            <polygon id="路径" points="35.2020843 7.73176257 34.419121 7.73176257 34.419121 0.63615768 33 1.51699139 33 0.734028092 34.1255097 0 35.2020843 0"></polygon>
                            <polygon id="路径" points="41.2020843 7.73176257 40.419121 7.73176257 40.419121 0.63615768 39 1.51699139 39 0.734028092 40.1255097 0 41.2020843 0"></polygon>
                            <polygon id="路径" points="46.2020843 7.73176257 45.419121 7.73176257 45.419121 0.63615768 44 1.51699139 44 0.734028092 45.1255097 0 46.2020843 0"></polygon>
                            <path d="M50.5382873,7.34028092 C50.1468056,6.94879928 50,6.41051201 50,5.72541912 L50,2.20208428 C50,1.51699139 50.1957408,0.978704123 50.5872225,0.587222474 C50.9787041,0.195740825 51.5169914,0 52.2510195,0 C52.9850476,0 53.5233348,0.195740825 53.9148165,0.587222474 C54.3062981,0.978704123 54.4531038,1.51699139 54.4531038,2.20208428 L54.4531038,5.72541912 C54.4531038,6.41051201 54.2573629,6.94879928 53.8658813,7.34028092 C53.4743996,7.73176257 52.9361124,7.9275034 52.2020843,7.9275034 C51.4680562,7.9275034 50.9297689,7.73176257 50.5382873,7.34028092 Z M53.2786588,6.80199366 C53.5233348,6.55731763 53.6212053,6.16583598 53.6212053,5.72541912 L53.6212053,2.20208428 C53.6212053,1.71273222 53.5233348,1.37018577 53.2786588,1.07657454 C53.0339828,0.831898505 52.6914363,0.685092886 52.2020843,0.685092886 C51.7127322,0.685092886 51.3212506,0.831898505 51.1255097,1.07657454 C50.8808337,1.32125057 50.7829633,1.71273222 50.7829633,2.20208428 L50.7829633,5.72541912 C50.7829633,6.21477118 50.8808337,6.55731763 51.1255097,6.80199366 C51.3701858,7.04666969 51.7127322,7.19347531 52.2020843,7.19347531 C52.6914363,7.19347531 53.082918,7.09560489 53.2786588,6.80199366 Z" id="形状" fill-rule="nonzero"></path>
                            <path d="M58.5382873,7.34028092 C58.1468056,6.94879928 58,6.41051201 58,5.72541912 L58,2.20208428 C58,1.51699139 58.1957408,0.978704123 58.5872225,0.587222474 C58.9787041,0.195740825 59.5169914,0 60.2510195,0 C60.9850476,0 61.5233348,0.195740825 61.9148165,0.587222474 C62.3062981,0.978704123 62.4531038,1.51699139 62.4531038,2.20208428 L62.4531038,5.72541912 C62.4531038,6.41051201 62.2573629,6.94879928 61.8658813,7.34028092 C61.4743996,7.73176257 60.9361124,7.9275034 60.2020843,7.9275034 C59.4680562,7.9275034 58.9297689,7.73176257 58.5382873,7.34028092 Z M61.2786588,6.80199366 C61.5233348,6.55731763 61.6212053,6.16583598 61.6212053,5.72541912 L61.6212053,2.20208428 C61.6212053,1.71273222 61.5233348,1.37018577 61.2786588,1.07657454 C61.0339828,0.831898505 60.6914363,0.685092886 60.2020843,0.685092886 C59.7127322,0.685092886 59.3212506,0.831898505 59.1255097,1.07657454 C58.8808337,1.32125057 58.7829633,1.71273222 58.7829633,2.20208428 L58.7829633,5.72541912 C58.7829633,6.21477118 58.8808337,6.55731763 59.1255097,6.80199366 C59.3701858,7.04666969 59.7127322,7.19347531 60.2020843,7.19347531 C60.6914363,7.19347531 61.0339828,7.09560489 61.2786588,6.80199366 Z" id="形状" fill-rule="nonzero"></path>
                        </g>
                        <g id="分组" opacity="0.3" transform="translate(97.000000, 71.000000)" stroke="#4F68ED" stroke-linecap="round" stroke-linejoin="round" stroke-width="0.5">
                            <path d="M0,2.54463072 C0.538287268,1.07657454 1.90847304,0 3.57227005,0 C4.50203897,0 5.38287268,0.342546443 6.01903036,0.929768917" id="路径"></path>
                            <path d="M3.08291799,7.71907567 C1.32125057,7.37652923 0,5.85953783 0,4" id="路径"></path>
                            <path d="M7.66379701,3 C7.85953783,3.44041686 7.95740825,3.92976892 7.95740825,4.41912098 C7.95740825,5.83824196 7.17444495,7.11055732 6,7.746715" id="路径"></path>
                            <path d="M1,3.78930675 C1,2.5659266 1.73402809,1.48935206 2.81060263,1" id="路径"></path>
                            <path d="M5.84458541,5.88083371 C5.30629814,6.41912098 4.57227005,6.76166742 3.74037155,6.76166742 C2.51699139,6.76166742 1.48935206,6.02763933 1,5" id="路径"></path>
                            <path d="M4,1 C5.66379701,1 6.98504758,2.32125057 6.98504758,3.98504758" id="路径"></path>
                            <path d="M2.77531717,6.00634345 C2.13915949,5.51699139 1.89448346,4.73402809 2.04128908,4" id="路径"></path>
                            <path d="M5.29995469,4 C5.3488899,4.48935206 5.25101948,5.02763933 4.95740825,5.41912098 C4.51699139,6.05527866 3.73402809,6.29995469 3,6.15314907" id="路径"></path>
                            <path d="M2,2.76809081 C2.63615768,1.9361923 3.85953783,1.74045148 4.69143634,2.37660916" id="路径"></path>
                        </g>
                        <circle id="椭圆形" fill="#4F68ED" opacity="0.2" cx="1.85953783" cy="61.8595378" r="1.85953783"></circle>
                        <circle id="椭圆形" fill="#4F68ED" opacity="0.5" cx="94.5169914" cy="52.5169914" r="1.51699139"></circle>
                        <path d="M78.3955596,61 L79.7657454,61 L79.7657454,62.0276393 L78.3955596,62.0276393 L78.3955596,61 Z M78.3955596,65.4041686 L79.7657454,65.4041686 L79.7657454,66.4807431 L78.3955596,66.4807431 L78.3955596,65.4041686 Z M78.3955596,63.2020843 L79.7657454,63.2020843 L79.7657454,64.2786588 L78.3955596,64.2786588 L78.3955596,63.2020843 Z M78.3955596,68.0956049 L78.0530131,68.0956049 L78.0530131,69.4657907 L79.0806525,69.4657907 C79.4721341,69.4657907 79.7657454,69.1721794 79.7657454,68.7806978 L79.7657454,67.7530585 L78.3955596,67.7530585 L78.3955596,68.0956049 Z M71.7403715,68.0956049 L73.3062981,68.0956049 L73.3062981,69.4657907 L71.7403715,69.4657907 L71.7403715,68.0956049 Z M74.9211599,68.0956049 L76.4870865,68.0956049 L76.4870865,69.4657907 L74.9211599,69.4657907 L74.9211599,68.0956049 Z M69,68.0956049 L70.0276393,68.0956049 L70.0276393,69.4657907 L69,69.4657907 L69,68.0956049 Z" id="形状" fill="#4F68ED" fill-rule="nonzero"></path>
                        <path d="M84.8246488,42.3529678 C83.9438151,39.9062075 82.4268237,38.3892161 80.7140915,37.5083824 C77.5333031,36.9211599 74.5971908,37.5573176 74.5971908,37.5573176 C74.5971908,37.5573176 74.5482556,37.0190304 74.2057091,36.2360671 C72.7376529,36.2850023 71.7100136,36.5296783 71.7100136,36.5296783 L70.5355686,36.7743543 L70.4376982,35.5999094 C70.4376982,35.502039 70.2419574,33.9850476 68.8228364,32.5169914 C68.48029,32.1744449 68.0888083,31.8318985 67.6973267,31.5382873 C66.3271409,31.1957408 64.7122791,31 62.7548709,31 C51.4997734,31 49.9338469,41.4231989 49.9338469,41.4231989 C49.9338469,41.4231989 40,39.4168555 40,48.4698686 C40,48.7634798 40,49.0570911 40.0489352,49.3507023 L65.0058903,49.3507023 C66.0824649,49.3507023 67.0122338,50.231536 67.0122338,51.3570458 L67.0122338,56.5441776 C70.6823743,56.4952424 74.1078387,56.4952424 76.309923,56.4952424 C79.0992297,56.4952424 81.6438604,55.0761214 83.4055279,52.5804259 C85.4608065,49.5953783 85.9990938,45.6805618 84.8246488,42.3529678 L84.8246488,42.3529678 Z" id="路径" fill="#4F68ED" opacity="0.3"></path>
                        <path d="M82.8246488,43.3529678 C81.9438151,40.9062075 80.4268237,39.3892161 78.7140915,38.5083824 C75.5333031,37.9211599 72.5971908,38.5573176 72.5971908,38.5573176 C72.5971908,38.5573176 72.5482556,38.0190304 72.2057091,37.2360671 C70.7376529,37.2850023 69.7100136,37.5296783 69.7100136,37.5296783 L68.5355686,37.7743543 L68.4376982,36.5999094 C68.4376982,36.502039 68.2419574,34.9850476 66.8228364,33.5169914 C66.48029,33.1744449 66.0888083,32.8318985 65.6973267,32.5382873 C64.3271409,32.1957408 62.7122791,32 60.7548709,32 C49.4997734,32 47.9338469,42.4231989 47.9338469,42.4231989 C47.9338469,42.4231989 38,40.4168555 38,49.4698686 C38,49.7634798 38,50.0570911 38.0489352,50.3507023 L63.0058903,50.3507023 C64.0824649,50.3507023 65.0122338,51.231536 65.0122338,52.3570458 L65.0122338,57.5441776 C68.6823743,57.4952424 72.1078387,57.4952424 74.309923,57.4952424 C77.0992297,57.4952424 79.6438604,56.0761214 81.4055279,53.5804259 C83.5097417,50.5953783 84.048029,46.6805618 82.8246488,43.3529678 L82.8246488,43.3529678 Z" id="路径" fill="#4F68ED" opacity="0.15"></path>
                        <path d="M65,74.7865881 C66.0765745,74.7865881 67.0063435,73.9057544 67.0063435,72.7802447 L67.0063435,58.8826461 C70.6764839,58.8337109 74.1019483,58.8337109 76.3040326,58.8337109 C78.0167648,58.8337109 79.6805618,58.3932941 81.148618,57.6103308 C82.6656094,56.7784323 84.0357952,55.6039873 85.1123697,54.0380607 L85.1123697,54.0380607 C87.55913,50.5636611 88.1952877,45.9148165 86.7761667,42" id="路径" stroke="#4F68ED" stroke-width="2" stroke-linecap="round" stroke-linejoin="round"></path>
                        <path d="M28,73 C28,74.0765745 28.8808337,75.0063435 30.0063435,75.0063435 L46.3017671,75.0063435 L46.3017671,77.9424558 L44.4911645,77.9424558 C43.4145899,77.9424558 42.5337562,78.8232895 42.5337562,79.8998641 L42.5337562,79.9487993 C42.5337562,81.0253738 43.4145899,81.9062075 44.4911645,81.9062075 L52.2229271,81.9062075 C53.2995016,81.9062075 54.1803353,81.0253738 54.1803353,79.9487993 L54.1803353,79.8998641 C54.1803353,78.8232895 53.2995016,77.9424558 52.2229271,77.9424558 L50.2655188,77.9424558 L50.2655188,75.0063435 L61.227005,75.0063435" id="路径" stroke="#4F68ED" stroke-width="2" stroke-linecap="round" stroke-linejoin="round"></path>
                        <path d="M35.4381513,44 C34.9487993,45.1744449 34.7041232,46.5446307 34.7041232,48.1594925 C34.7041232,48.7956502 34.7530585,49.3828727 34.8509289,49.9700952 L30.0063435,49.9700952 C28.9297689,49.9700952 28,50.8509289 28,51.9764386 L28,69.397372" id="路径" stroke="#4F68ED" stroke-width="2" stroke-linecap="round" stroke-linejoin="round"></path>
                        <rect id="矩形" stroke="#4F68ED" stroke-width="2" stroke-linecap="round" stroke-linejoin="round" x="31" y="53" width="32.2972361" height="19.0847304"></rect>
                        <path d="M62.5079293,56.5169914 C62.5079293,55.6361577 61.8228364,55 60.9420027,55 L34.663797,55 C33.7340281,55 33,55.6850929 33,56.5169914 L33,69.3380154 C33,70.0720435 33.6361577,71.148618 34.663797,71.148618 L60.9420027,71.148618 C61.9207068,71.148618 62.5079293,70.2188491 62.5079293,69.3380154 L62.5079293,56.5169914 L62.5079293,56.5169914 Z" id="路径" fill="#4F68ED" opacity="0.3"></path>
                        <path d="M61.8504758,55.5659266 C61.8504758,54.6850929 61.1653829,54 60.2845492,54 L33.663797,54 C32.7340281,54 32,54.6850929 32,55.5659266 L32,68.5826914 C32,69.3167195 32.6361577,70.4422293 33.663797,70.4422293 L60.2845492,70.4422293 C61.2632533,70.4422293 61.8504758,69.4635251 61.8504758,68.5826914 L61.8504758,55.5659266 Z" id="路径" fill="#4F68ED" opacity="0.15"></path>
                        <g id="分组" opacity="0.2" transform="translate(26.000000, 23.000000)" fill="#4F68ED">
                            <path d="M0.538287268,7.34028092 C0.146805618,6.94879928 0,6.41051201 0,5.72541912 L0,2.20208428 C0,1.51699139 0.195740825,0.978704123 0.587222474,0.587222474 C0.978704123,0.195740825 1.51699139,0 2.25101948,0 C2.98504758,0 3.52333484,0.195740825 3.91481649,0.587222474 C4.30629814,0.978704123 4.45310376,1.51699139 4.45310376,2.20208428 L4.45310376,5.72541912 C4.45310376,6.41051201 4.25736294,6.94879928 3.86588129,7.34028092 C3.47439964,7.73176257 2.93611237,7.9275034 2.20208428,7.9275034 C1.46805618,7.9275034 0.880833711,7.73176257 0.538287268,7.34028092 Z M3.27865881,6.80199366 C3.52333484,6.55731763 3.62120526,6.16583598 3.62120526,5.72541912 L3.62120526,2.20208428 C3.62120526,1.71273222 3.52333484,1.37018577 3.27865881,1.07657454 C3.03398278,0.831898505 2.69143634,0.685092886 2.20208428,0.685092886 C1.71273222,0.685092886 1.32125057,0.831898505 1.12550974,1.07657454 C0.880833711,1.32125057 0.782963299,1.71273222 0.782963299,2.20208428 L0.782963299,5.72541912 C0.782963299,6.21477118 0.880833711,6.55731763 1.12550974,6.80199366 C1.37018577,7.04666969 1.71273222,7.19347531 2.20208428,7.19347531 C2.69143634,7.19347531 3.03398278,7.09560489 3.27865881,6.80199366 Z" id="形状" fill-rule="nonzero"></path>
                            <polygon id="路径" points="9.20208428 7.73176257 8.41912098 7.73176257 8.41912098 0.63615768 7 1.51699139 7 0.734028092 8.12550974 0 9.20208428 0"></polygon>
                            <polygon id="路径" points="15.2020843 7.73176257 14.419121 7.73176257 14.419121 0.63615768 13 1.51699139 13 0.734028092 14.1255097 0 15.2020843 0"></polygon>
                            <path d="M18.5382873,7.34028092 C18.1468056,6.94879928 18,6.41051201 18,5.72541912 L18,2.20208428 C18,1.51699139 18.1957408,0.978704123 18.5872225,0.587222474 C18.9787041,0.195740825 19.5169914,0 20.2510195,0 C20.9850476,0 21.5233348,0.195740825 21.9148165,0.587222474 C22.3062981,0.978704123 22.4531038,1.51699139 22.4531038,2.20208428 L22.4531038,5.72541912 C22.4531038,6.41051201 22.2573629,6.94879928 21.8658813,7.34028092 C21.4743996,7.73176257 20.9361124,7.9275034 20.2020843,7.9275034 C19.419121,7.9275034 18.8808337,7.73176257 18.5382873,7.34028092 Z M21.2786588,6.80199366 C21.5233348,6.55731763 21.6212053,6.16583598 21.6212053,5.72541912 L21.6212053,2.20208428 C21.6212053,1.71273222 21.5233348,1.37018577 21.2786588,1.07657454 C21.0339828,0.831898505 20.6914363,0.685092886 20.2020843,0.685092886 C19.7127322,0.685092886 19.3212506,0.831898505 19.1255097,1.07657454 C18.8808337,1.32125057 18.7829633,1.71273222 18.7829633,2.20208428 L18.7829633,5.72541912 C18.7829633,6.21477118 18.8808337,6.55731763 19.1255097,6.80199366 C19.3701858,7.04666969 19.7127322,7.19347531 20.2020843,7.19347531 C20.6914363,7.19347531 21.0339828,7.09560489 21.2786588,6.80199366 Z" id="形状" fill-rule="nonzero"></path>
                            <path d="M26.5382873,7.34028092 C26.1468056,6.94879928 26,6.41051201 26,5.72541912 L26,2.20208428 C26,1.51699139 26.1957408,0.978704123 26.5872225,0.587222474 C26.9787041,0.195740825 27.5169914,0 28.2510195,0 C28.9850476,0 29.5233348,0.195740825 29.9148165,0.587222474 C30.3062981,0.978704123 30.4531038,1.51699139 30.4531038,2.20208428 L30.4531038,5.72541912 C30.4531038,6.41051201 30.2573629,6.94879928 29.8658813,7.34028092 C29.4743996,7.73176257 28.9361124,7.9275034 28.2020843,7.9275034 C27.4680562,7.9275034 26.9297689,7.73176257 26.5382873,7.34028092 Z M29.2786588,6.80199366 C29.5233348,6.55731763 29.6212053,6.16583598 29.6212053,5.72541912 L29.6212053,2.20208428 C29.6212053,1.71273222 29.5233348,1.37018577 29.2786588,1.07657454 C29.0339828,0.831898505 28.6914363,0.685092886 28.2020843,0.685092886 C27.7127322,0.685092886 27.3212506,0.831898505 27.1255097,1.07657454 C26.8808337,1.32125057 26.7829633,1.71273222 26.7829633,2.20208428 L26.7829633,5.72541912 C26.7829633,6.21477118 26.8808337,6.55731763 27.1255097,6.80199366 C27.3701858,7.04666969 27.7127322,7.19347531 28.2020843,7.19347531 C28.6914363,7.19347531 29.0339828,7.09560489 29.2786588,6.80199366 Z" id="形状" fill-rule="nonzero"></path>
                            <polygon id="路径" points="36.2020843 7.73176257 35.419121 7.73176257 35.419121 0.63615768 34 1.51699139 34 0.734028092 35.1255097 0 36.2020843 0"></polygon>
                            <polygon id="路径" points="41.2020843 7.73176257 40.419121 7.73176257 40.419121 0.63615768 39 1.51699139 39 0.734028092 40.1255097 0 41.2020843 0"></polygon>
                            <polygon id="路径" points="46.2020843 7.73176257 45.419121 7.73176257 45.419121 0.63615768 44 1.51699139 44 0.734028092 45.1255097 0 46.2020843 0"></polygon>
                            <path d="M50.5382873,7.34028092 C50.1468056,6.94879928 50,6.41051201 50,5.72541912 L50,2.20208428 C50,1.51699139 50.1957408,0.978704123 50.5872225,0.587222474 C50.9787041,0.195740825 51.5169914,0 52.2510195,0 C52.9850476,0 53.5233348,0.195740825 53.9148165,0.587222474 C54.3062981,0.978704123 54.4531038,1.51699139 54.4531038,2.20208428 L54.4531038,5.72541912 C54.4531038,6.41051201 54.2573629,6.94879928 53.8658813,7.34028092 C53.4743996,7.73176257 52.9361124,7.9275034 52.2020843,7.9275034 C51.419121,7.9275034 50.8808337,7.73176257 50.5382873,7.34028092 Z M53.2786588,6.80199366 C53.5233348,6.55731763 53.6212053,6.16583598 53.6212053,5.72541912 L53.6212053,2.20208428 C53.6212053,1.71273222 53.5233348,1.37018577 53.2786588,1.07657454 C53.0339828,0.831898505 52.6914363,0.685092886 52.2020843,0.685092886 C51.7127322,0.685092886 51.3212506,0.831898505 51.1255097,1.07657454 C50.8808337,1.32125057 50.7829633,1.71273222 50.7829633,2.20208428 L50.7829633,5.72541912 C50.7829633,6.21477118 50.8808337,6.55731763 51.1255097,6.80199366 C51.3701858,7.04666969 51.7127322,7.19347531 52.2020843,7.19347531 C52.6914363,7.19347531 53.0339828,7.09560489 53.2786588,6.80199366 Z" id="形状" fill-rule="nonzero"></path>
                            <path d="M58.5382873,7.34028092 C58.1468056,6.94879928 58,6.41051201 58,5.72541912 L58,2.20208428 C58,1.51699139 58.1957408,0.978704123 58.5872225,0.587222474 C58.9787041,0.195740825 59.5169914,0 60.2510195,0 C60.9850476,0 61.5233348,0.195740825 61.9148165,0.587222474 C62.3062981,0.978704123 62.4531038,1.51699139 62.4531038,2.20208428 L62.4531038,5.72541912 C62.4531038,6.41051201 62.2573629,6.94879928 61.8658813,7.34028092 C61.4743996,7.73176257 60.9361124,7.9275034 60.2020843,7.9275034 C59.4680562,7.9275034 58.9297689,7.73176257 58.5382873,7.34028092 Z M61.2786588,6.80199366 C61.5233348,6.55731763 61.6212053,6.16583598 61.6212053,5.72541912 L61.6212053,2.20208428 C61.6212053,1.71273222 61.5233348,1.37018577 61.2786588,1.07657454 C61.0339828,0.831898505 60.6914363,0.685092886 60.2020843,0.685092886 C59.7127322,0.685092886 59.3212506,0.831898505 59.1255097,1.07657454 C58.8808337,1.32125057 58.7829633,1.71273222 58.7829633,2.20208428 L58.7829633,5.72541912 C58.7829633,6.21477118 58.8808337,6.55731763 59.1255097,6.80199366 C59.3701858,7.04666969 59.7127322,7.19347531 60.2020843,7.19347531 C60.6914363,7.19347531 61.0339828,7.09560489 61.2786588,6.80199366 Z" id="形状" fill-rule="nonzero"></path>
                        </g>
                        <circle id="椭圆形" fill="#4F68ED" opacity="0.53" cx="16.0339828" cy="23.0339828" r="3.03398278"></circle>
                        <path d="M85.1735387,38.4721341 C84.292705,37.5423652 83.2161305,36.7594019 81.9927503,36.1721794 C80.1332125,35.2913457 77.9800634,34.8509289 75.5333031,34.8509289 C74.799275,34.8509289 74.1141821,34.8998641 73.5758949,34.9487993 C73.3312188,34.9487993 73.135478,34.9977345 72.9397372,34.9977345 C72.8418668,34.655188 72.6950612,34.3615768 72.5482556,34.0679656 C72.2546443,33.4318079 71.8142275,32.6488446 71.1291346,31.9148165 C70.05256,30.7403715 68.6823743,29.8106026 67.0185773,29.1744449 C65.0122338,28.3914816 62.5165383,28 59.6782963,28 C53.0720435,28 49.4997734,31.3765292 47.5913004,34.2147712 C46.2700498,36.2211146 45.6338922,38.2274581 45.3402809,39.3529678 C44.8509289,39.3040326 44.3126416,39.2550974 43.8232895,39.2550974 C42.2084277,39.2550974 39.908473,39.5487087 38,40.821024" id="路径" stroke="#4F68ED" stroke-width="2" stroke-linecap="round" stroke-linejoin="round"></path>
                        <g id="分组" opacity="0.5" transform="translate(22.383326, 0.079293)" stroke="#4F68ED" stroke-linecap="round" stroke-linejoin="round">
                            <path d="M0,2.78930675 C0.587222474,1.17444495 2.10421386,0 3.91481649,0 C4.94245582,0 5.87222474,0.391481649 6.60625283,0.978704123" id="路径"></path>
                            <path d="M3.42546443,9.11055732 C1.46805618,8.76801087 0,7.05527866 0,5" id="路径"></path>
                            <path d="M7.85953783,3 C8.05527866,3.48935206 8.15314907,4.02763933 8.15314907,4.6148618 C8.15314907,6.1807884 7.27231536,7.55097417 6,8.28500227" id="路径"></path>
                            <path d="M0,4.98504758 C0,3.6148618 0.831898505,2.48935206 2.00634345,2" id="路径"></path>
                            <path d="M6.23606706,6.97870412 C5.64884459,7.5659266 4.81694608,7.90847304 3.93611237,7.90847304 C2.6148618,7.90847304 1.48935206,7.12550974 1,6" id="路径"></path>
                            <path d="M4,1 C5.81060263,1 7.22972361,2.46805618 7.22972361,4.22972361" id="路径"></path>
                            <path d="M2.84249298,6.20208428 C2.1574001,5.66379701 1.86378886,4.7829633 2.05952969,4" id="路径"></path>
                            <path d="M5.54463072,4 C5.64250113,4.53828727 5.49569551,5.12550974 5.15314907,5.5659266 C4.66379701,6.25101948 3.7829633,6.54463072 3,6.3978251" id="路径"></path>
                            <path d="M2,2.84913768 C2.68509289,1.91936876 4.05527866,1.72362794 4.98504758,2.40872083" id="路径"></path>
                        </g>
                        <circle id="椭圆形" fill="#4F68ED" opacity="0.3" cx="55.8595378" cy="2.85953783" r="1.85953783"></circle>
                    </g>
                </g>
            </g>
        </g>
    </g>
</svg>