<?xml version="1.0" encoding="UTF-8"?>
<svg width="80px" height="40px" viewBox="0 0 80 40" version="1.1" xmlns="http://www.w3.org/2000/svg" xmlns:xlink="http://www.w3.org/1999/xlink">
    <!-- Generator: Sketch 52.3 (67297) - http://www.bohemiancoding.com/sketch -->
    <title>twitch_logo </title>
    <desc>Created with Sketch.</desc>
    <g id="1.0.0扶뒬못" stroke="none" stroke-width="1" fill="none" fill-rule="evenodd">
        <g id="1.0.1扶뒬못" transform="translate(-1471.000000, -1107.000000)" fill="#FFFFFF">
            <g id="44" transform="translate(481.000000, 1107.000000)">
                <g id="Fill-1-+-twitch_logo--Mask" transform="translate(990.000000, 0.000000)">
                    <path d="M47.503451,21.9999737 C47.7930231,21.9973533 48.000485,21.7887684 47.9999991,21.5010469 C47.9995133,21.2180422 47.7847635,21.0026442 47.50005,21.0000238 C47.2022183,20.9974034 46.9947565,21.2112292 47.0001009,21.5157212 C47.0059312,21.8092076 47.2061052,22.0025941 47.503451,21.9999737 Z M37.0012321,12.0032635 C37.0012321,12.3175212 36.9958845,12.6025561 37.007471,12.8871414 C37.0088079,12.9258054 37.0916964,12.9927931 37.1380427,12.9936923 C37.7053388,13.0013351 38.2730806,12.9972889 38.8408224,12.9999864 C38.9540142,13.0008856 38.9994692,12.9572761 38.9963497,12.8421832 C38.9910021,12.6385226 38.9843175,12.4339629 38.9985779,12.2316511 C39.0101645,12.0572133 38.9522317,11.9969693 38.7775419,12.0001164 C38.3042752,12.009108 37.8310085,12.0032635 37.3577418,12.0032635 L37.0012321,12.0032635 Z M47.9988514,24.5228546 L47.9988514,23.6182343 C47.9988514,22.9808443 47.9650249,22.9542663 47.239937,23.0296513 C47.224115,23.031101 47.2033826,23.0282016 47.1946531,23.0359334 C47.1286369,23.0973045 47.0096985,23.1606086 47.0091529,23.2243959 C46.9966043,24.0874578 47.0004235,24.9510028 47.000969,25.8140646 C47.000969,25.9416393 47.0768059,25.9991445 47.2202958,25.9962451 C47.3905196,25.9928624 47.5618346,25.9856139 47.7309672,25.998178 C47.9426557,26.0141249 48.0021249,25.924726 47.9999426,25.7560762 C47.9950323,25.3453245 47.9983058,24.9340895 47.9988514,24.5228546 Z M45.8643531,23.4184019 C45.8375521,23.3540696 45.8117437,23.317792 45.8077732,23.2795795 C45.7854391,23.0686856 45.6554047,23.0029022 45.4568789,23.0207992 C45.4082401,23.0256362 45.3586086,23.0207992 45.3094735,23.0222503 C45.0320337,23.0290221 45.0047364,23.050305 45.0022549,23.3173083 C44.9982843,23.8111676 45.0007659,24.305027 45.0007659,24.7988864 C45.0007659,25.1142598 45.0057291,25.4296333 45.0002696,25.7450068 C44.9967954,25.9249438 45.06082,26.015396 45.2593457,25.9965316 C45.3849133,25.9849228 45.5139551,25.9834717 45.6390263,25.9970153 C45.8514489,26.0192656 45.9119992,25.9157534 45.9105103,25.7319468 C45.9070361,25.3000013 45.910014,24.8680557 45.9105103,24.4356264 C45.9105103,23.8740488 45.9105103,23.8740488 46.4867314,23.8164884 C47.0351588,23.7623138 47.0326773,23.7608627 46.9746085,23.2191168 C46.9567411,23.0541746 46.8783235,23 46.7135471,23 C46.3681122,23 46.1169771,23.1755837 45.8643531,23.4184019 Z M54.934473,23.734685 C55.0425003,23.7434577 55.134544,23.7614648 55.2249342,23.7568476 C55.5875974,23.7379171 55.9579768,23.7439194 56.3107191,23.6802019 C56.6761381,23.613714 56.9258136,23.3957814 56.9842365,23.0707295 C57.048171,22.7124337 56.920302,22.4053889 56.551576,22.1985377 C55.9767163,21.8753327 54.6539326,21.8730241 54.1909583,22.7549121 C53.972699,23.1709231 53.9506526,23.6035561 54.0785217,24.0403446 C54.2052885,24.4729776 54.52441,24.7675559 55.0303748,24.9097661 C55.5131908,25.0450505 56.0009673,25.0141152 56.4837833,24.9097661 C56.8662883,24.827118 56.9340809,24.7310799 56.8800673,24.4055663 C56.858572,24.2776694 56.7973933,24.2338059 56.6276361,24.256892 C56.2985936,24.301679 55.9640396,24.341387 55.6316902,24.3409253 C55.2023367,24.3409253 54.9410869,24.1059091 54.934473,23.734685 Z M41.9066192,24.7410969 C41.9893622,24.7734143 42.0402043,24.7920765 42.0900496,24.8130146 C42.8676348,25.1348239 43.5958733,24.8544356 43.8730127,24.1165958 C44.0380003,23.6778063 44.0429848,23.2312789 43.8834802,22.788393 C43.6666535,22.1848299 43.1188547,21.8903312 42.4479381,22.037353 C42.2276223,22.0856016 42.0237554,22.1975749 41.8044365,22.2836031 C41.7665541,22.1211053 41.6289814,22.0774085 41.4470464,22.1001672 C41.3981981,22.1060845 41.3478544,22.1010776 41.2985076,22.1010776 C41.0118977,22.1024431 41.0019286,22.1101811 41.0019286,22.3746382 C41.0009317,23.4142596 40.9999348,24.4534258 41.0019286,25.492592 C41.003424,26.0506375 40.9301515,25.9978371 41.5591981,25.9992026 C41.8936594,26.000113 41.9056223,25.9891887 41.9066192,25.6864969 C41.9071176,25.3787981 41.9066192,25.0715545 41.9066192,24.7410969 Z M49.8812891,22.3268305 C49.8148996,22.0439054 49.5696867,22.0825719 49.3437482,22.0849296 C49.0262564,22.0877588 49.0026988,22.1066205 49.0021634,22.3801147 C49.0010926,23.0690371 48.998951,23.7579596 49.0026988,24.446882 C49.0064466,25.0650732 48.9063269,24.9882119 49.6419656,24.9915127 C49.9251918,24.9929273 49.9733778,24.9504886 49.974984,24.6996284 C49.9776609,24.157827 49.9760548,23.6160255 49.9760548,23.0742241 C49.9765902,22.7912991 50.0028247,22.7639496 50.3213873,22.7068931 C50.3583299,22.7002915 50.3963432,22.6984053 50.4338212,22.6927468 C50.8583928,22.6290887 51.00884,22.7394295 51.0109816,23.1223213 C51.0131232,23.5570828 51.0077692,23.9913727 51.0120524,24.4261342 C51.019548,25.0702602 50.9001539,24.9816103 51.6727351,24.9948135 C51.8943905,24.9990574 51.9639924,24.9188953 51.96078,24.7321648 C51.952749,24.1771602 51.9693464,23.621684 51.9522136,23.0666794 C51.9457888,22.8587295 52.0191385,22.7531042 52.2520372,22.733771 C52.3045063,22.7295271 52.3548339,22.7106654 52.407303,22.7050069 C52.8902332,22.6536089 52.9930298,22.7318848 52.994636,23.1572154 C52.9967776,23.6858137 52.9989192,24.214412 52.9935652,24.7425387 C52.991959,24.9283261 53.0658441,25.0174475 53.289641,24.9971712 C53.4250971,24.9844396 53.5637655,24.9853827 53.6992215,24.9966997 C53.9128458,25.0150898 53.9920849,24.916066 53.9926203,24.751498 C53.9942265,24.096055 54.0135009,23.4396689 53.9824477,22.7856406 C53.9567486,22.248083 53.4684644,21.9250769 52.8666756,22.0307023 C52.515989,22.0924742 52.1781521,22.2103597 51.8162222,22.3074973 C51.2080085,21.7746551 50.551609,22.0368323 49.8812891,22.3268305 Z M37,20.9994333 C37.6450013,20.9994333 38.2666947,21.0031803 38.8888364,20.991404 C38.9255912,20.9908687 38.9928255,20.8704289 38.9932737,20.805659 C38.9986525,18.6034833 38.9964113,16.4013076 38.9999972,14.1991319 C39.0004454,14.0444336 38.9480026,13.9994694 38.8319113,14.0000047 C38.2595231,14.0021459 37.6871348,14.0010753 37.1147466,14.0032164 C37.0788883,14.0037517 37.04303,14.0230221 37,14.035869 L37,20.9994333 Z M47.3477364,16.4151073 L47.6193559,16.4151073 C48.3294246,16.4151073 49.038972,16.4086941 49.7485194,16.4193827 C49.9466296,16.4220549 50.0018919,16.3536478 49.9987639,16.1569772 C49.988337,15.5204702 49.988337,14.8839631 49.9982425,14.2474561 C50.0013706,14.0561299 49.9362027,13.9989458 49.7558182,14.0000147 C48.6912364,14.0058934 47.6266547,13.9994802 46.5625943,14.0091 C46.4598898,14.0101688 46.3295541,14.0689562 46.2596942,14.1459143 C45.8681659,14.5793376 45.4875857,15.0234496 45.112219,15.4723714 C45.0512219,15.545054 45.0058651,15.6578189 45.0053438,15.7524131 C44.998045,16.9425905 44.9985663,18.1322334 45.0048224,19.3218763 C45.0053438,19.4100573 45.0423591,19.5174779 45.0991854,19.582144 C45.4802869,20.0155674 45.8671232,20.4436464 46.2633436,20.8626402 C46.3305968,20.9342539 46.4515483,20.9898347 46.5479967,20.9909036 C47.6203986,20.9999889 48.6922791,20.9930413 49.7641597,20.9999889 C49.953407,21.0010577 50.0003279,20.9251686 49.9977212,20.7439965 C49.9893797,20.1149715 49.9857303,19.4859465 49.9998065,18.8569215 C50.0044986,18.6297884 49.9242119,18.5774142 49.7182815,18.5806208 C49.0160329,18.5913094 48.3137843,18.5848962 47.6115358,18.5838274 C47.5255142,18.5838274 47.4394927,18.5763453 47.3477364,18.5720699 L47.3477364,16.4151073 Z M26.2037367,17.8209025 C26.1964493,17.7422679 26.185761,17.6824478 26.1852751,17.62311 C26.1843035,17.1030606 26.1911051,16.5830111 26.1813885,16.063444 C26.1779876,15.893632 26.2440608,15.8574504 26.3990411,15.8598625 C26.8605814,15.8675813 27.3221217,15.8574504 27.783662,15.8656516 C27.9435007,15.8680637 28.0013147,15.820304 27.9988855,15.6553162 C27.9901405,15.0735169 27.9877114,14.4917175 27.9998572,13.9108831 C28.0037438,13.7203269 27.9284399,13.6798036 27.7583987,13.6826981 C27.3041459,13.6899344 26.8494073,13.6798036 26.3946687,13.6875223 C26.2324008,13.6908993 26.1779876,13.6363857 26.1818743,13.4747748 C26.1906193,13.0439732 26.1804168,12.6131715 26.1872185,12.1823699 C26.1891618,12.0477745 26.1410644,12.0000149 26.009404,12.0004973 C25.4030858,12.0038742 24.7967676,12.0043566 24.1904495,12.0000149 C24.0515015,11.99905 23.9995175,12.04488 24.0000034,12.1900886 C24.00389,14.2905481 24.0014609,16.3905252 24.006805,18.4905024 C24.006805,18.5691369 24.0476149,18.6661035 24.1025139,18.7220643 C24.4931227,19.1181316 24.8890757,19.5084099 25.2903728,19.8933816 C25.3481868,19.94886 25.4448674,19.9927603 25.5240579,19.9937251 C26.2819557,20.0009614 27.0398534,19.9961372 27.7972653,19.9999966 C27.9469015,20.000479 28.0008288,19.9498248 27.9983997,19.7964151 C27.9906264,19.2421137 27.9954847,18.6878124 27.9954847,18.1339935 C27.9954847,17.8213849 27.9954847,17.8213849 27.682609,17.8213849 C27.1948338,17.8209025 26.7070586,17.8209025 26.2037367,17.8209025 Z M40.0010073,15.3295219 C40.0010073,16.3557716 39.9961318,17.3825039 40.007833,18.4092361 C40.0088082,18.5298578 40.0717022,18.6750864 40.1550734,18.764829 C40.5046474,19.1435813 40.8693355,19.5093064 41.2374364,19.8702066 C41.3037434,19.9353424 41.4129548,19.9913108 41.5031517,19.9927583 C42.2705568,20.002408 43.0384495,19.9966182 43.8058546,19.9999956 C43.943344,20.0004781 44.000875,19.9613966 43.9989248,19.8127907 C43.991124,19.2106469 43.9916115,18.6085032 43.9989248,18.0063595 C44.0003874,17.860166 43.948707,17.8167421 43.8068297,17.8186721 C43.3436564,17.8249444 42.8799954,17.8162596 42.4168221,17.8234969 C42.2642186,17.8259094 42.1940113,17.7950302 42.1979117,17.6222999 C42.2086378,17.1021789 42.2081503,16.5815755 42.1979117,16.0619371 C42.1940113,15.8901717 42.2622684,15.8568801 42.415847,15.8592925 C42.8721946,15.8670123 43.3290298,15.8568801 43.7853775,15.8650824 C43.9438315,15.8674948 44.0023376,15.825036 43.9998999,15.6571305 C43.9901489,15.0689789 43.9896613,14.4798623 43.9998999,13.8917107 C44.0028252,13.7238053 43.9418813,13.679899 43.7863526,13.6823114 C43.3436564,13.6885837 42.9004726,13.6755566 42.4582639,13.6881012 C42.2642186,13.6934086 42.1886483,13.6437124 42.1969366,13.4386555 C42.2125383,13.0560433 42.2018121,12.6719837 42.2013246,12.2888891 C42.2013246,12.0018093 42.200837,12.0008444 41.9200077,12.0003619 C41.3734631,11.9998794 40.8274061,11.9998794 40.2808616,12.0003619 C40.0029575,12.0008444 40.0014949,12.0018093 40.0014949,12.2700721 C40.0005198,13.2900495 40.0010073,14.3095444 40.0010073,15.3295219 Z M50.0038255,15.9935309 C50.0038255,17.2380257 50.0033506,18.4825204 50.0038255,19.7274973 C50.0043004,19.9955868 50.0052501,19.9965511 50.2764003,19.9970333 C50.8082537,19.9979977 51.3405819,19.9975155 51.8729101,19.9970333 C52.1464347,19.9965511 52.1469096,19.9955868 52.1469096,19.7091746 C52.1473845,18.5124152 52.1507085,17.3151737 52.1435855,16.1184144 C52.1426358,15.9322947 52.1768263,15.8498427 52.384819,15.8585218 C52.801754,15.875398 53.2201137,15.8734693 53.6370487,15.859004 C53.8298456,15.8522536 53.8725838,15.9212046 53.871634,16.1039491 C53.864511,17.3281925 53.8706843,18.5524358 53.864511,19.776197 C53.8635613,19.9459227 53.9129476,20.0023372 54.0810513,19.9999264 C54.6461455,19.9922116 55.2121894,19.9926937 55.7777585,19.9994442 C55.9411134,20.0013729 56.000472,19.9507445 55.9999972,19.7771613 C55.9942987,18.2867572 55.9985726,16.7953886 55.9914495,15.3045023 C55.9909747,15.2085494 55.9420632,15.0904164 55.8760564,15.020501 C55.4990103,14.6207776 55.1062936,14.2355194 54.727823,13.8367604 C54.6190779,13.7220026 54.5046345,13.6834286 54.3536261,13.684393 C53.6864351,13.6896969 53.0197189,13.6829464 52.3530028,13.6892147 C52.1948714,13.6906612 52.1412112,13.6371398 52.1445352,13.4760932 C52.1530829,13.0590115 52.1412112,12.6414476 52.1502337,12.2243658 C52.1535578,12.0531936 52.0918248,11.9991899 51.9270452,12.0011186 C51.3681243,12.0083513 50.8092034,12.0112443 50.2502825,12.0001543 C50.0541616,11.9962969 49.9986019,12.0642836 50.0000266,12.2595646 C50.0071496,13.5040594 50.0038255,14.7485541 50.0038255,15.9935309 Z M30.9140538,17.5847834 C30.730324,17.5847834 30.5789887,17.5708906 30.4310379,17.5885238 C30.2299022,17.6125691 30.1786512,17.5292121 30.1796182,17.310667 C30.1888047,15.961993 30.1810687,14.6127846 30.1878377,13.2635762 C30.1888047,13.0653361 30.1341693,12.9974749 29.9533405,13.0006809 C29.3774928,13.0102991 28.8011615,13.0092304 28.2253138,13.0012153 C28.056089,12.9985436 27.9995196,13.0615957 28.0000031,13.2496834 C28.0043546,15.4169662 28.0043546,17.5847834 28.0000031,19.7526006 C27.9995196,19.9412226 28.058023,20 28.2262808,20 C30.2903396,19.9951909 32.3548819,19.998397 34.4194242,19.9919849 C34.5103221,19.9914506 34.6224939,19.9422913 34.6897004,19.8738958 C35.0919718,19.4613853 35.4874743,19.0413941 35.8747573,18.6117848 C35.9419637,18.5375115 35.9912807,18.4055296 35.9912807,18.2997303 C35.9990166,16.6170938 35.9941817,14.9344572 35.9999836,13.2518207 C36.0009506,13.0685421 35.9593697,12.9974749 35.7843429,13.0006809 C35.2080117,13.0102991 34.6316804,13.0102991 34.0558327,13.0006809 C33.8730699,12.9969406 33.826654,13.0680078 33.8281045,13.2641105 C33.835357,14.6058382 33.8319725,15.9470314 33.8319725,17.2887591 L33.8319725,17.5847834 C33.6666157,17.5847834 33.5244669,17.5853177 33.3828016,17.5847834 C33.0907679,17.5847834 33.0902844,17.5847834 33.0902844,17.2620421 C33.0898009,15.9283296 33.0868999,14.5940827 33.0931854,13.2603702 C33.0941524,13.0637331 33.041451,12.9964062 32.8596552,13.0001466 C32.2905765,13.0108334 31.7210142,13.0108334 31.1519355,13.0001466 C30.9614367,12.9969406 30.9087353,13.0706795 30.9101858,13.2764004 C30.9174383,14.6106472 30.9140538,15.9443597 30.9140538,17.2786066 L30.9140538,17.5847834 Z M23.0141091,11.0117076 C23.0958304,11.0077079 23.1625614,11.0012084 23.2297759,11.0012084 C24.3066591,11.0007084 25.3840258,10.9967087 26.4609089,11.0067079 C26.5687423,11.0077079 26.6993029,11.0667033 26.7790899,11.1436972 C27.2766709,11.6211599 27.758778,12.1166212 28.2568425,12.5935839 C28.3419487,12.6745776 28.4807297,12.7370727 28.5948494,12.7370727 C31.1257908,12.7450721 33.6576992,12.7410724 36.1891242,12.7480719 C36.3960869,12.7490718 36.4396071,12.6790773 36.434288,12.4820927 C36.4212319,12.0006303 36.429936,11.518168 36.429936,11.018707 L42.9826273,11.018707 C42.9869793,11.083202 42.9951998,11.1571962 42.9956834,11.2316904 C42.997134,11.671156 43.000519,12.1111216 42.9942327,12.5510873 C42.9918149,12.7000756 43.0445227,12.7475719 43.1862051,12.7455721 C43.7137667,12.7395725 44.2413282,12.7435722 44.7988703,12.7435722 L44.7988703,13.7599928 C44.8167619,13.7664923 44.8346536,13.7734917 44.8520617,13.7799912 C45.0512875,13.5415099 45.2659871,13.3150276 45.4449035,13.0615474 C45.6189843,12.8150666 45.8177265,12.7160744 46.118983,12.7355728 C46.5696589,12.7655705 47.0242032,12.7510716 47.4763297,12.7375727 C47.5802946,12.7345729 47.704569,12.6830769 47.780004,12.6105826 C48.2920916,12.1181211 48.7920904,11.6111607 49.3012767,11.1151995 C49.3593037,11.0582039 49.4506961,11.006208 49.5275818,11.005708 C50.6731301,10.9992085 51.8186785,11.0012084 52.9647104,11.0017083 C52.9913061,11.0017083 53.0179018,11.0077079 53.0677082,11.0137074 C53.0715767,11.0887015 53.0783465,11.1636957 53.07883,11.2381899 C53.0797971,11.6641566 53.0860834,12.0896233 53.0764122,12.5150901 C53.0720602,12.6880766 53.1208996,12.7500717 53.2954639,12.7470719 C53.878151,12.7370727 54.4618053,12.7380726 55.0444924,12.7490718 C55.1407204,12.7510716 55.2587085,12.8010677 55.3268901,12.8700623 C55.8505832,13.4020208 56.3675064,13.9414786 56.8771763,14.486936 C56.9439073,14.5584304 56.991296,14.6819207 56.9917795,14.7819129 C56.9985493,16.6687655 56.9951644,18.555618 57,20.4419706 C57,20.5834596 56.9492264,20.6579538 56.8394588,20.7289482 C56.2998083,21.0789209 55.7640263,21.4368929 55.2272772,21.7923651 C55.167316,21.832362 55.1107398,21.8763585 55.0101598,21.9488529 C55.1972966,21.9763507 55.3297915,21.9923495 55.4608356,22.0158476 C56.3036768,22.1688357 56.8201165,22.7527901 56.8191494,23.6392208 C56.8181823,24.3241673 56.7500006,25.0091137 56.6968093,25.6925603 C56.6760163,25.9590395 56.4883959,26.132026 56.2944892,26.2845141 C55.8839487,26.6074888 55.4037758,26.7394785 54.9018428,26.8069732 C54.3588075,26.8804675 53.8225419,26.8454702 53.2944968,26.6879825 C53.2403383,26.6719838 53.1508801,26.6639844 53.1223502,26.695482 C52.97825,26.8539696 52.7969158,26.8244719 52.6213844,26.8244719 C50.6591069,26.8259718 48.6973131,26.8254718 46.7350356,26.8254718 C46.3815549,26.8254718 46.3820385,26.8249718 46.2833927,26.4729993 C46.2688859,26.4220033 46.2480929,26.3730072 46.2069905,26.2570162 C46.1465458,26.4235032 46.1010914,26.528495 46.0701437,26.6384864 C46.027107,26.7894746 45.9284613,26.8289715 45.7891966,26.8259718 C45.2882308,26.8169725 44.7877485,26.8109729 44.2867826,26.8084731 C44.1127018,26.8074732 44.0406517,26.7474779 44.1141525,26.5624923 C44.1417153,26.4939977 44.1494522,26.4170037 44.1774986,26.2945133 C44.1001293,26.3615081 44.0585434,26.3935056 44.021793,26.4300027 C43.7742114,26.6749836 43.4845603,26.822972 43.1373658,26.8184723 C42.9647357,26.8164725 42.8762446,26.8679685 42.8588365,27.0639532 C42.8399778,27.2814362 42.7790495,27.4939196 42.7432662,27.7099027 C42.7103843,27.9078872 42.6151234,28.0038797 42.4100949,27.99988 C41.9366919,27.9913807 41.4632888,27.9978802 40.9898857,27.9968803 C40.7287645,27.9963803 40.6978168,27.9643828 40.6978168,27.6859046 C40.6973333,25.9620393 40.6949155,24.2386739 40.7012017,22.5148087 C40.7016853,22.3268233 40.6542966,22.1948337 40.5029431,22.0848423 C40.3090364,21.9438533 40.13012,21.780866 39.9105848,21.5988802 C39.8796371,21.9393536 39.8530414,22.2323307 39.8249951,22.5373069 C39.7500436,22.5418065 39.6900824,22.548806 39.6301213,22.548806 C38.7519804,22.5498059 37.8738395,22.5438064 36.9956985,22.5543056 C36.8177493,22.5563054 36.773262,22.4793114 36.7592388,22.3248235 C36.7389294,22.100841 36.7089488,21.8778584 36.6755833,21.5868812 C36.4855451,21.7978647 36.312915,21.9483529 36.1905749,22.1343384 C35.961852,22.4828112 35.6668818,22.5698044 35.2674631,22.5598051 C34.1228818,22.5303074 32.9763663,22.5353071 31.830818,22.5563054 C31.3632176,22.5648047 30.9202787,22.5008097 30.4870109,22.3283232 C30.3864309,22.2883264 30.2814989,22.2598286 30.1833367,22.2273311 C30.165445,22.2493294 30.1485205,22.2598286 30.1490041,22.2698278 C30.1596423,22.5123088 30.0411707,22.5603051 29.8235697,22.5553055 C29.1514244,22.5393067 28.4787955,22.5528057 27.8066502,22.5458062 C27.7099387,22.5448063 27.6021053,22.5163085 27.5179662,22.4668124 C26.6243515,21.9418534 25.7341216,21.4108949 24.8443753,20.8784365 C24.762654,20.8294404 24.6862519,20.7649454 24.6190374,20.6959508 C24.1229071,20.1859906 23.6258097,19.6765304 23.1398342,19.1560711 C23.0643991,19.0750774 23.0058887,18.9380882 23.0058887,18.8265969 C22.9981517,16.2942947 23.000086,13.7619926 23.0005695,11.2296905 C23.0005695,11.1606959 23.00879,11.0922013 23.0141091,11.0117076 Z" id="Fill-1"></path>
                </g>
            </g>
        </g>
    </g>
</svg>